STARTFONT 2.3
FONT -FontForge-Source Code Pro-Book-R-Normal--8-80-72-72-M-50-ISO10646-1
SIZE 8 72 72  4
FONTBOUNDINGBOX 10 14 -3 -4
COMMENT "Generated by fontforge, http://fontforge.sourceforge.net"
COMMENT "Copyright 2010, 2012 Adobe Systems Incorporated (http://www.adobe.com/), with Reserved Font Name `Source'."
STARTPROPERTIES 42
FOUNDRY "FontForge"
FAMILY_NAME "Source Code Pro"
WEIGHT_NAME "Book"
SLANT "R"
SETWIDTH_NAME "Normal"
ADD_STYLE_NAME ""
PIXEL_SIZE 8
POINT_SIZE 80
RESOLUTION_X 72
RESOLUTION_Y 72
SPACING "M"
AVERAGE_WIDTH 50
CHARSET_REGISTRY "ISO10646"
CHARSET_ENCODING "1"
FONTNAME_REGISTRY ""
CHARSET_COLLECTIONS "ASCII ISOLatin1Encoding ISO8859-2 ISO8859-9 ISO8859-4 ISO10646-1"
BITS_PER_PIXEL 4
FONT_NAME "SourceCodePro-It"
FACE_NAME "Source Code Pro Italic"
COPYRIGHT "Copyright 2010, 2012 Adobe Systems Incorporated (http://www.adobe.com/), with Reserved Font Name `Source'."
FONT_VERSION "1.050;PS 1.000;hotconv 16.6.51;makeotf.lib2.5.65220"
FONT_ASCENT 6
FONT_DESCENT 2
UNDERLINE_POSITION -1
UNDERLINE_THICKNESS 1
X_HEIGHT 3
CAP_HEIGHT 4
RAW_ASCENT 750
RAW_DESCENT 250
ITALIC_ANGLE 5056
NORM_SPACE 5
RELATIVE_WEIGHT 40
RELATIVE_SETWIDTH 50
SUPERSCRIPT_X 0
SUPERSCRIPT_Y 2
SUPERSCRIPT_SIZE 4
SUBSCRIPT_X 0
SUBSCRIPT_Y 0
SUBSCRIPT_SIZE 4
FIGURE_WIDTH 5
AVG_LOWERCASE_WIDTH 50
AVG_UPPERCASE_WIDTH 50
ENDPROPERTIES
CHARS 1269
STARTCHAR space
ENCODING 32
SWIDTH 600 0
DWIDTH 5 0
BBX 1 1 0 0
BITMAP
00
ENDCHAR
STARTCHAR exclam
ENCODING 33
SWIDTH 600 0
DWIDTH 5 0
BBX 3 5 1 0
BITMAP
0730
0800
0700
0000
6600
ENDCHAR
STARTCHAR quotedbl
ENCODING 34
SWIDTH 600 0
DWIDTH 5 0
BBX 4 3 1 3
BITMAP
6784
83A1
8080
ENDCHAR
STARTCHAR numbersign
ENCODING 35
SWIDTH 600 0
DWIDTH 5 0
BBX 5 5 0 0
BITMAP
015610
0EFF50
061500
6FFD00
246000
ENDCHAR
STARTCHAR dollar
ENCODING 36
SWIDTH 600 0
DWIDTH 5 0
BBX 5 7 0 -1
BITMAP
004300
08F800
0A1510
029400
431A00
1CF700
052000
ENDCHAR
STARTCHAR percent
ENCODING 37
SWIDTH 600 0
DWIDTH 5 0
BBX 6 6 -1 0
BITMAP
08E200
086316
0CB050
0006E3
014945
170AC1
ENDCHAR
STARTCHAR ampersand
ENCODING 38
SWIDTH 600 0
DWIDTH 5 0
BBX 5 5 0 0
BITMAP
05E600
094400
2B5250
919810
8EAB20
ENDCHAR
STARTCHAR quotesingle
ENCODING 39
SWIDTH 600 0
DWIDTH 5 0
BBX 2 3 2 3
BITMAP
75
92
80
ENDCHAR
STARTCHAR parenleft
ENCODING 40
SWIDTH 600 0
DWIDTH 5 0
BBX 4 7 1 -1
BITMAP
0073
0730
1700
5300
6300
3600
0700
ENDCHAR
STARTCHAR parenright
ENCODING 41
SWIDTH 600 0
DWIDTH 5 0
BBX 4 8 0 -2
BITMAP
0250
0090
0072
0071
0090
0460
4700
1000
ENDCHAR
STARTCHAR asterisk
ENCODING 42
SWIDTH 600 0
DWIDTH 5 0
BBX 5 4 0 1
BITMAP
006000
1AC910
04E200
074400
ENDCHAR
STARTCHAR plus
ENCODING 43
SWIDTH 600 0
DWIDTH 5 0
BBX 5 5 0 0
BITMAP
004000
007000
4FFF20
007000
004000
ENDCHAR
STARTCHAR comma
ENCODING 44
SWIDTH 600 0
DWIDTH 5 0
BBX 3 3 0 -2
BITMAP
0590
0680
3A10
ENDCHAR
STARTCHAR hyphen
ENCODING 45
SWIDTH 600 0
DWIDTH 5 0
BBX 5 1 0 2
BITMAP
4FFF20
ENDCHAR
STARTCHAR period
ENCODING 46
SWIDTH 600 0
DWIDTH 5 0
BBX 2 1 1 0
BITMAP
77
ENDCHAR
STARTCHAR slash
ENCODING 47
SWIDTH 600 0
DWIDTH 5 0
BBX 5 7 0 -1
BITMAP
000360
000800
005400
008000
072000
170000
810000
ENDCHAR
STARTCHAR zero
ENCODING 48
SWIDTH 600 0
DWIDTH 5 0
BBX 5 5 0 0
BITMAP
06EB00
2A1740
72A540
742B10
2DE400
ENDCHAR
STARTCHAR one
ENCODING 49
SWIDTH 600 0
DWIDTH 5 0
BBX 4 5 0 0
BITMAP
03A5
0081
0090
0090
AFFC
ENDCHAR
STARTCHAR two
ENCODING 50
SWIDTH 600 0
DWIDTH 5 0
BBX 4 5 0 0
BITMAP
05EB
0619
0033
1620
AFFE
ENDCHAR
STARTCHAR three
ENCODING 51
SWIDTH 600 0
DWIDTH 5 0
BBX 5 5 0 0
BITMAP
05EC00
042B10
05F600
522B00
2DE600
ENDCHAR
STARTCHAR four
ENCODING 52
SWIDTH 600 0
DWIDTH 5 0
BBX 5 5 0 0
BITMAP
002C10
037900
370800
CFFF40
005400
ENDCHAR
STARTCHAR five
ENCODING 53
SWIDTH 600 0
DWIDTH 5 0
BBX 5 5 0 0
BITMAP
09FF40
090000
0BEA00
521B00
3DE500
ENDCHAR
STARTCHAR six
ENCODING 54
SWIDTH 600 0
DWIDTH 5 0
BBX 5 5 0 0
BITMAP
04DD10
2B2220
6BEB00
681A00
1CE600
ENDCHAR
STARTCHAR seven
ENCODING 55
SWIDTH 600 0
DWIDTH 5 0
BBX 5 5 0 0
BITMAP
1FFF90
001810
008100
036000
091000
ENDCHAR
STARTCHAR eight
ENCODING 56
SWIDTH 600 0
DWIDTH 5 0
BBX 5 5 0 0
BITMAP
08EC10
061730
4C8C10
731500
2DE900
ENDCHAR
STARTCHAR nine
ENCODING 57
SWIDTH 600 0
DWIDTH 5 0
BBX 5 5 0 0
BITMAP
09EB00
381930
1DEC20
313B00
3EC300
ENDCHAR
STARTCHAR colon
ENCODING 58
SWIDTH 600 0
DWIDTH 5 0
BBX 3 4 1 0
BITMAP
0C10
0000
0000
7700
ENDCHAR
STARTCHAR semicolon
ENCODING 59
SWIDTH 600 0
DWIDTH 5 0
BBX 4 6 0 -2
BITMAP
00C1
0000
0000
0590
0680
3A10
ENDCHAR
STARTCHAR less
ENCODING 60
SWIDTH 600 0
DWIDTH 5 0
BBX 3 5 1 0
BITMAP
01A0
5C40
D100
5C40
01A0
ENDCHAR
STARTCHAR equal
ENCODING 61
SWIDTH 600 0
DWIDTH 5 0
BBX 5 3 0 1
BITMAP
4FFF20
000000
4FFF20
ENDCHAR
STARTCHAR greater
ENCODING 62
SWIDTH 600 0
DWIDTH 5 0
BBX 4 5 0 0
BITMAP
2910
06C3
002B
06C3
2910
ENDCHAR
STARTCHAR question
ENCODING 63
SWIDTH 600 0
DWIDTH 5 0
BBX 4 5 1 0
BITMAP
2DD1
3170
1600
0000
8400
ENDCHAR
STARTCHAR at
ENCODING 64
SWIDTH 600 0
DWIDTH 5 0
BBX 5 6 0 -1
BITMAP
05DE40
3A2170
817D70
747B40
96FD20
3DD200
ENDCHAR
STARTCHAR A
ENCODING 65
SWIDTH 600 0
DWIDTH 5 0
BBX 4 5 0 0
BITMAP
0087
0368
0909
5FFD
B10A
ENDCHAR
STARTCHAR B
ENCODING 66
SWIDTH 600 0
DWIDTH 5 0
BBX 5 5 0 0
BITMAP
0BFD30
0B6920
2CAA00
531A10
9FE800
ENDCHAR
STARTCHAR C
ENCODING 67
SWIDTH 600 0
DWIDTH 5 0
BBX 5 5 0 0
BITMAP
03CE30
1B3140
450000
581400
0BE700
ENDCHAR
STARTCHAR D
ENCODING 68
SWIDTH 600 0
DWIDTH 5 0
BBX 5 5 0 0
BITMAP
0DEA10
190760
550450
713B20
BFC400
ENDCHAR
STARTCHAR E
ENCODING 69
SWIDTH 600 0
DWIDTH 5 0
BBX 5 5 0 0
BITMAP
09FFB0
0A0000
0FFD00
360000
6FFD00
ENDCHAR
STARTCHAR F
ENCODING 70
SWIDTH 600 0
DWIDTH 5 0
BBX 5 5 0 0
BITMAP
06FFC0
091000
0DFE00
190000
460000
ENDCHAR
STARTCHAR G
ENCODING 71
SWIDTH 600 0
DWIDTH 5 0
BBX 5 5 0 0
BITMAP
04DD20
2B2230
635F40
760810
1CE900
ENDCHAR
STARTCHAR H
ENCODING 72
SWIDTH 600 0
DWIDTH 5 0
BBX 5 5 0 0
BITMAP
090190
270460
5FFF30
820800
A00900
ENDCHAR
STARTCHAR I
ENCODING 73
SWIDTH 600 0
DWIDTH 5 0
BBX 5 5 0 0
BITMAP
0BFF80
009100
009000
037000
AFF900
ENDCHAR
STARTCHAR J
ENCODING 74
SWIDTH 600 0
DWIDTH 5 0
BBX 5 5 0 0
BITMAP
08FF30
000800
000900
515800
4EC200
ENDCHAR
STARTCHAR K
ENCODING 75
SWIDTH 600 0
DWIDTH 5 0
BBX 5 5 0 0
BITMAP
090560
095500
2CB100
553700
810A00
ENDCHAR
STARTCHAR L
ENCODING 76
SWIDTH 600 0
DWIDTH 5 0
BBX 5 5 0 0
BITMAP
045000
072000
080000
080000
1FFF10
ENDCHAR
STARTCHAR M
ENCODING 77
SWIDTH 600 0
DWIDTH 5 0
BBX 5 5 0 0
BITMAP
0D0590
2C2960
57A730
826800
800900
ENDCHAR
STARTCHAR N
ENCODING 78
SWIDTH 600 0
DWIDTH 5 0
BBX 5 5 0 0
BITMAP
0C1180
196450
458720
727900
903B00
ENDCHAR
STARTCHAR O
ENCODING 79
SWIDTH 600 0
DWIDTH 5 0
BBX 5 5 0 0
BITMAP
07EC20
4A1570
910370
931B20
3DE500
ENDCHAR
STARTCHAR P
ENCODING 80
SWIDTH 600 0
DWIDTH 5 0
BBX 5 5 0 0
BITMAP
0AFE40
090580
1FFC20
450000
720000
ENDCHAR
STARTCHAR Q
ENCODING 81
SWIDTH 600 0
DWIDTH 5 0
BBX 5 7 0 -2
BITMAP
07EC10
491570
910370
931B20
3EE600
038100
00AD00
ENDCHAR
STARTCHAR R
ENCODING 82
SWIDTH 600 0
DWIDTH 5 0
BBX 5 5 0 0
BITMAP
0CFD20
090750
3FF900
638200
902800
ENDCHAR
STARTCHAR S
ENCODING 83
SWIDTH 600 0
DWIDTH 5 0
BBX 5 5 0 0
BITMAP
07EA00
0A1510
02A400
521B00
2CE600
ENDCHAR
STARTCHAR T
ENCODING 84
SWIDTH 600 0
DWIDTH 5 0
BBX 5 5 0 0
BITMAP
2FFFE0
009100
009000
018000
055000
ENDCHAR
STARTCHAR U
ENCODING 85
SWIDTH 600 0
DWIDTH 5 0
BBX 5 5 0 0
BITMAP
090190
270460
530830
752C00
3DE500
ENDCHAR
STARTCHAR V
ENCODING 86
SWIDTH 600 0
DWIDTH 5 0
BBX 4 5 1 0
BITMAP
900A
9063
9190
9720
8700
ENDCHAR
STARTCHAR W
ENCODING 87
SWIDTH 600 0
DWIDTH 5 0
BBX 5 5 0 0
BITMAP
450080
536090
64B450
786910
865900
ENDCHAR
STARTCHAR X
ENCODING 88
SWIDTH 600 0
DWIDTH 5 0
BBX 5 5 0 0
BITMAP
0A0460
057800
02E000
096400
821900
ENDCHAR
STARTCHAR Y
ENCODING 89
SWIDTH 600 0
DWIDTH 5 0
BBX 4 5 1 0
BITMAP
9019
A1A2
6A60
2C00
4500
ENDCHAR
STARTCHAR Z
ENCODING 90
SWIDTH 600 0
DWIDTH 5 0
BBX 5 5 0 0
BITMAP
0EFF90
001810
028100
380000
CFFE00
ENDCHAR
STARTCHAR bracketleft
ENCODING 91
SWIDTH 600 0
DWIDTH 5 0
BBX 4 8 1 -2
BITMAP
0AF8
0800
1700
3400
6100
6000
6000
EF40
ENDCHAR
STARTCHAR backslash
ENCODING 92
SWIDTH 600 0
DWIDTH 5 0
BBX 3 7 1 -1
BITMAP
6200
3400
1700
0800
0800
0700
0520
ENDCHAR
STARTCHAR bracketright
ENCODING 93
SWIDTH 600 0
DWIDTH 5 0
BBX 4 8 0 -2
BITMAP
08F9
0006
0034
0061
0070
0080
0080
DF60
ENDCHAR
STARTCHAR asciicircum
ENCODING 94
SWIDTH 600 0
DWIDTH 5 0
BBX 3 3 1 2
BITMAP
1B00
7440
8080
ENDCHAR
STARTCHAR underscore
ENCODING 95
SWIDTH 600 0
DWIDTH 5 0
BBX 5 1 -1 -1
BITMAP
3FFFA0
ENDCHAR
STARTCHAR grave
ENCODING 96
SWIDTH 600 0
DWIDTH 5 0
BBX 2 2 2 4
BITMAP
80
45
ENDCHAR
STARTCHAR a
ENCODING 97
SWIDTH 600 0
DWIDTH 5 0
BBX 5 4 0 0
BITMAP
09EB50
571920
833C00
4EBA00
ENDCHAR
STARTCHAR b
ENCODING 98
SWIDTH 600 0
DWIDTH 5 0
BBX 5 6 0 0
BITMAP
090000
0A0000
1CDD10
4A1840
751A10
8CE600
ENDCHAR
STARTCHAR c
ENCODING 99
SWIDTH 600 0
DWIDTH 5 0
BBX 5 4 0 0
BITMAP
07EB00
491420
651400
1CE500
ENDCHAR
STARTCHAR d
ENCODING 100
SWIDTH 600 0
DWIDTH 5 0
BBX 5 6 0 0
BITMAP
000090
000180
09EC50
571920
833C00
4EB900
ENDCHAR
STARTCHAR e
ENCODING 101
SWIDTH 600 0
DWIDTH 5 0
BBX 5 4 0 0
BITMAP
08EB00
5FFF20
751400
2DE400
ENDCHAR
STARTCHAR f
ENCODING 102
SWIDTH 600 0
DWIDTH 5 0
BBX 4 6 1 0
BITMAP
04EB
0A22
EFF5
1800
4500
8100
ENDCHAR
STARTCHAR g
ENCODING 103
SWIDTH 600 0
DWIDTH 5 0
BBX 5 6 0 -2
BITMAP
09EB50
581920
831B00
5EDB00
324800
7EC200
ENDCHAR
STARTCHAR h
ENCODING 104
SWIDTH 600 0
DWIDTH 5 0
BBX 5 6 0 0
BITMAP
090000
090000
1BCE10
4C2730
740800
910900
ENDCHAR
STARTCHAR i
ENCODING 105
SWIDTH 600 0
DWIDTH 5 0
BBX 4 6 0 0
BITMAP
0083
0000
2FD0
0070
0271
02E9
ENDCHAR
STARTCHAR j
ENCODING 106
SWIDTH 600 0
DWIDTH 5 0
BBX 4 8 0 -2
BITMAP
001A
0000
0EF7
0044
0081
00A0
23A0
CD30
ENDCHAR
STARTCHAR k
ENCODING 107
SWIDTH 600 0
DWIDTH 5 0
BBX 5 6 0 0
BITMAP
081000
090000
090830
29B200
5A5500
820900
ENDCHAR
STARTCHAR l
ENCODING 108
SWIDTH 600 0
DWIDTH 5 0
BBX 3 6 1 0
BITMAP
CF10
0700
0700
2500
5410
4E70
ENDCHAR
STARTCHAR m
ENCODING 109
SWIDTH 600 0
DWIDTH 5 0
BBX 5 4 0 0
BITMAP
5CCC60
85B460
A09530
936810
ENDCHAR
STARTCHAR n
ENCODING 110
SWIDTH 600 0
DWIDTH 5 0
BBX 5 4 0 0
BITMAP
1ACE10
3C2730
640800
910900
ENDCHAR
STARTCHAR o
ENCODING 111
SWIDTH 600 0
DWIDTH 5 0
BBX 5 4 0 0
BITMAP
09EA00
661930
931B10
3DD500
ENDCHAR
STARTCHAR p
ENCODING 112
SWIDTH 600 0
DWIDTH 5 0
BBX 5 6 0 -2
BITMAP
1BDD10
3A1840
651A20
8CE600
900000
900000
ENDCHAR
STARTCHAR q
ENCODING 113
SWIDTH 600 0
DWIDTH 5 0
BBX 5 6 0 -2
BITMAP
09EB50
571920
833C00
4EBA00
001900
003600
ENDCHAR
STARTCHAR r
ENCODING 114
SWIDTH 600 0
DWIDTH 5 0
BBX 5 4 0 0
BITMAP
087E40
0B8100
0A0000
280000
ENDCHAR
STARTCHAR s
ENCODING 115
SWIDTH 600 0
DWIDTH 5 0
BBX 4 4 0 0
BITMAP
0AE7
0A55
4358
1CE7
ENDCHAR
STARTCHAR t
ENCODING 116
SWIDTH 600 0
DWIDTH 5 0
BBX 5 5 0 0
BITMAP
018000
5FFF50
063000
091200
08E800
ENDCHAR
STARTCHAR u
ENCODING 117
SWIDTH 600 0
DWIDTH 5 0
BBX 5 4 0 0
BITMAP
270540
540910
735D00
5E9900
ENDCHAR
STARTCHAR v
ENCODING 118
SWIDTH 600 0
DWIDTH 5 0
BBX 5 4 0 0
BITMAP
360450
090900
096300
088000
ENDCHAR
STARTCHAR w
ENCODING 119
SWIDTH 600 0
DWIDTH 5 0
BBX 5 4 0 0
BITMAP
909090
93B350
887800
867800
ENDCHAR
STARTCHAR x
ENCODING 120
SWIDTH 600 0
DWIDTH 5 0
BBX 5 4 0 0
BITMAP
090920
04A200
08A100
743700
ENDCHAR
STARTCHAR y
ENCODING 121
SWIDTH 600 0
DWIDTH 5 0
BBX 6 6 -1 -2
BITMAP
036046
009090
009530
008800
007200
4E6000
ENDCHAR
STARTCHAR z
ENCODING 122
SWIDTH 600 0
DWIDTH 5 0
BBX 5 4 0 0
BITMAP
1FFF40
005500
172000
AFFB00
ENDCHAR
STARTCHAR braceleft
ENCODING 123
SWIDTH 600 0
DWIDTH 5 0
BBX 5 8 0 -2
BITMAP
004E90
008300
01A000
1F5000
036000
033000
062000
05F500
ENDCHAR
STARTCHAR bar
ENCODING 124
SWIDTH 600 0
DWIDTH 5 0
BBX 1 8 2 -2
BITMAP
80
80
80
80
80
80
80
80
ENDCHAR
STARTCHAR braceright
ENCODING 125
SWIDTH 600 0
DWIDTH 5 0
BBX 4 8 0 -2
BITMAP
09E2
0061
0070
008C
0191
0360
0730
DC00
ENDCHAR
STARTCHAR asciitilde
ENCODING 126
SWIDTH 600 0
DWIDTH 5 0
BBX 4 1 0 2
BITMAP
2EFC
ENDCHAR
STARTCHAR uni00A0
ENCODING 160
SWIDTH 600 0
DWIDTH 5 0
BBX 1 1 0 0
BITMAP
00
ENDCHAR
STARTCHAR exclamdown
ENCODING 161
SWIDTH 600 0
DWIDTH 5 0
BBX 3 6 1 -2
BITMAP
0B10
0000
0600
3500
6300
9000
ENDCHAR
STARTCHAR cent
ENCODING 162
SWIDTH 600 0
DWIDTH 5 0
BBX 4 7 0 -1
BITMAP
0024
04DB
0B72
2760
2A63
0AE4
0150
ENDCHAR
STARTCHAR sterling
ENCODING 163
SWIDTH 600 0
DWIDTH 5 0
BBX 5 5 0 0
BITMAP
03DD10
083220
5FF800
070000
BFFA00
ENDCHAR
STARTCHAR currency
ENCODING 164
SWIDTH 600 0
DWIDTH 5 0
BBX 5 5 0 0
BITMAP
020020
0BEC20
1A1B00
4DEA00
300300
ENDCHAR
STARTCHAR yen
ENCODING 165
SWIDTH 600 0
DWIDTH 5 0
BBX 5 5 0 0
BITMAP
080350
042300
6FDF20
009000
8FFF00
ENDCHAR
STARTCHAR brokenbar
ENCODING 166
SWIDTH 600 0
DWIDTH 5 0
BBX 1 8 2 -2
BITMAP
80
80
80
40
40
80
80
80
ENDCHAR
STARTCHAR section
ENCODING 167
SWIDTH 600 0
DWIDTH 5 0
BBX 4 7 0 -1
BITMAP
03E8
0854
1B51
0606
015B
3286
1DD1
ENDCHAR
STARTCHAR dieresis
ENCODING 168
SWIDTH 600 0
DWIDTH 5 0
BBX 3 1 1 5
BITMAP
2780
ENDCHAR
STARTCHAR copyright
ENCODING 169
SWIDTH 600 0
DWIDTH 5 0
BBX 5 5 0 0
BITMAP
08ED20
662370
59F650
811A30
4ED600
ENDCHAR
STARTCHAR ordfeminine
ENCODING 170
SWIDTH 600 0
DWIDTH 5 0
BBX 3 3 1 3
BITMAP
2DB0
7270
6D30
ENDCHAR
STARTCHAR guillemotleft
ENCODING 171
SWIDTH 600 0
DWIDTH 5 0
BBX 5 3 0 1
BITMAP
062710
557300
071600
ENDCHAR
STARTCHAR logicalnot
ENCODING 172
SWIDTH 600 0
DWIDTH 5 0
BBX 5 3 0 0
BITMAP
4FFF20
000620
000620
ENDCHAR
STARTCHAR uni00AD
ENCODING 173
SWIDTH 600 0
DWIDTH 5 0
BBX 5 1 0 2
BITMAP
4FFF20
ENDCHAR
STARTCHAR registered
ENCODING 174
SWIDTH 600 0
DWIDTH 5 0
BBX 4 4 1 2
BITMAP
2CD1
6834
6773
6E80
ENDCHAR
STARTCHAR macron
ENCODING 175
SWIDTH 600 0
DWIDTH 5 0
BBX 3 1 1 5
BITMAP
2FE0
ENDCHAR
STARTCHAR degree
ENCODING 176
SWIDTH 600 0
DWIDTH 5 0
BBX 3 3 1 3
BITMAP
0C80
3570
1E50
ENDCHAR
STARTCHAR plusminus
ENCODING 177
SWIDTH 600 0
DWIDTH 5 0
BBX 5 5 0 0
BITMAP
007000
007000
4FFF20
000000
4FFF20
ENDCHAR
STARTCHAR two.sups
ENCODING 178
SWIDTH 600 0
DWIDTH 5 0
BBX 3 4 1 3
BITMAP
0A90
0260
0510
8F80
ENDCHAR
STARTCHAR three.sups
ENCODING 179
SWIDTH 600 0
DWIDTH 5 0
BBX 3 4 1 3
BITMAP
0BA0
0B60
3280
2E50
ENDCHAR
STARTCHAR acute
ENCODING 180
SWIDTH 600 0
DWIDTH 5 0
BBX 2 2 2 4
BITMAP
09
63
ENDCHAR
STARTCHAR uni00B5
ENCODING 181
SWIDTH 600 0
DWIDTH 5 0
BBX 5 6 0 -2
BITMAP
170540
440810
734B00
8EAC00
800000
800000
ENDCHAR
STARTCHAR paragraph
ENCODING 182
SWIDTH 600 0
DWIDTH 5 0
BBX 5 6 0 -1
BITMAP
07E940
2FF910
2FC900
034900
002700
005400
ENDCHAR
STARTCHAR periodcentered
ENCODING 183
SWIDTH 600 0
DWIDTH 5 0
BBX 2 1 1 2
BITMAP
3B
ENDCHAR
STARTCHAR cedilla
ENCODING 184
SWIDTH 600 0
DWIDTH 5 0
BBX 3 4 0 -4
BITMAP
0510
0920
0630
2B00
ENDCHAR
STARTCHAR one.sups
ENCODING 185
SWIDTH 600 0
DWIDTH 5 0
BBX 3 4 1 3
BITMAP
0960
0330
0610
8FC0
ENDCHAR
STARTCHAR ordmasculine
ENCODING 186
SWIDTH 600 0
DWIDTH 5 0
BBX 3 3 1 3
BITMAP
2DC0
7390
5E80
ENDCHAR
STARTCHAR guillemotright
ENCODING 187
SWIDTH 600 0
DWIDTH 5 0
BBX 4 3 0 1
BITMAP
1725
0A1A
5362
ENDCHAR
STARTCHAR onequarter
ENCODING 188
SWIDTH 600 0
DWIDTH 5 0
BBX 6 6 -1 0
BITMAP
058000
016016
034050
000050
014650
170EF3
ENDCHAR
STARTCHAR onehalf
ENCODING 189
SWIDTH 600 0
DWIDTH 5 0
BBX 6 6 -1 0
BITMAP
058000
016016
034050
0003E1
014330
170CF2
ENDCHAR
STARTCHAR threequarters
ENCODING 190
SWIDTH 600 0
DWIDTH 5 0
BBX 6 6 -1 0
BITMAP
05D000
07B016
0BA050
000050
014650
170EF3
ENDCHAR
STARTCHAR questiondown
ENCODING 191
SWIDTH 600 0
DWIDTH 5 0
BBX 4 6 0 -2
BITMAP
00A2
0000
0080
1610
7341
5E90
ENDCHAR
STARTCHAR Agrave
ENCODING 192
SWIDTH 600 0
DWIDTH 5 0
BBX 4 7 0 0
BITMAP
0053
0000
0087
0368
0909
5FFD
B10A
ENDCHAR
STARTCHAR Aacute
ENCODING 193
SWIDTH 600 0
DWIDTH 5 0
BBX 5 7 0 0
BITMAP
002710
000000
008700
036800
090900
5FFD00
B10A00
ENDCHAR
STARTCHAR Acircumflex
ENCODING 194
SWIDTH 600 0
DWIDTH 5 0
BBX 5 7 0 0
BITMAP
007810
000000
008700
036800
090900
5FFD00
B10A00
ENDCHAR
STARTCHAR Atilde
ENCODING 195
SWIDTH 600 0
DWIDTH 5 0
BBX 5 7 0 0
BITMAP
01D470
044D30
008700
036800
090900
5FFD00
B10A00
ENDCHAR
STARTCHAR Adieresis
ENCODING 196
SWIDTH 600 0
DWIDTH 5 0
BBX 5 7 0 0
BITMAP
008620
000000
008700
036800
090900
5FFD00
B10A00
ENDCHAR
STARTCHAR Aring
ENCODING 197
SWIDTH 600 0
DWIDTH 5 0
BBX 4 8 0 0
BITMAP
004B
0077
0069
0087
0368
0909
5FFD
B10A
ENDCHAR
STARTCHAR AE
ENCODING 198
SWIDTH 600 0
DWIDTH 5 0
BBX 7 5 -1 0
BITMAP
0008FF20
00486000
0186F600
08FE0000
390CF400
ENDCHAR
STARTCHAR Ccedilla
ENCODING 199
SWIDTH 600 0
DWIDTH 5 0
BBX 5 9 0 -4
BITMAP
03CE30
1B3140
450000
581400
0BE700
005000
038000
019000
0A4000
ENDCHAR
STARTCHAR Egrave
ENCODING 200
SWIDTH 600 0
DWIDTH 5 0
BBX 5 7 0 0
BITMAP
003500
000000
09FFB0
0A0000
0FFD00
360000
6FFD00
ENDCHAR
STARTCHAR Eacute
ENCODING 201
SWIDTH 600 0
DWIDTH 5 0
BBX 5 7 0 0
BITMAP
000730
000000
09FFB0
0A0000
0FFD00
360000
6FFD00
ENDCHAR
STARTCHAR Ecircumflex
ENCODING 202
SWIDTH 600 0
DWIDTH 5 0
BBX 5 7 0 0
BITMAP
005730
000000
09FFB0
0A0000
0FFD00
360000
6FFD00
ENDCHAR
STARTCHAR Edieresis
ENCODING 203
SWIDTH 600 0
DWIDTH 5 0
BBX 5 7 0 0
BITMAP
008260
000000
09FFB0
0A0000
0FFD00
360000
6FFD00
ENDCHAR
STARTCHAR Igrave
ENCODING 204
SWIDTH 600 0
DWIDTH 5 0
BBX 5 7 0 0
BITMAP
005300
000000
0BFF80
009100
009000
037000
AFF900
ENDCHAR
STARTCHAR Iacute
ENCODING 205
SWIDTH 600 0
DWIDTH 5 0
BBX 5 7 0 0
BITMAP
002710
000000
0BFF80
009100
009000
037000
AFF900
ENDCHAR
STARTCHAR Icircumflex
ENCODING 206
SWIDTH 600 0
DWIDTH 5 0
BBX 5 7 0 0
BITMAP
007810
000000
0BFF80
009100
009000
037000
AFF900
ENDCHAR
STARTCHAR Idieresis
ENCODING 207
SWIDTH 600 0
DWIDTH 5 0
BBX 5 7 0 0
BITMAP
008620
000000
0BFF80
009100
009000
037000
AFF900
ENDCHAR
STARTCHAR Eth
ENCODING 208
SWIDTH 600 0
DWIDTH 5 0
BBX 5 5 0 0
BITMAP
0CFB10
0A0670
BF9270
532A30
9FD500
ENDCHAR
STARTCHAR Ntilde
ENCODING 209
SWIDTH 600 0
DWIDTH 5 0
BBX 5 7 0 0
BITMAP
01D470
044D30
0C1180
196450
458720
727900
903B00
ENDCHAR
STARTCHAR Ograve
ENCODING 210
SWIDTH 600 0
DWIDTH 5 0
BBX 5 7 0 0
BITMAP
005300
000000
07EC20
4A1570
910370
931B20
3DE500
ENDCHAR
STARTCHAR Oacute
ENCODING 211
SWIDTH 600 0
DWIDTH 5 0
BBX 5 7 0 0
BITMAP
002710
000000
07EC20
4A1570
910370
931B20
3DE500
ENDCHAR
STARTCHAR Ocircumflex
ENCODING 212
SWIDTH 600 0
DWIDTH 5 0
BBX 5 7 0 0
BITMAP
007810
000000
07EC20
4A1570
910370
931B20
3DE500
ENDCHAR
STARTCHAR Otilde
ENCODING 213
SWIDTH 600 0
DWIDTH 5 0
BBX 5 7 0 0
BITMAP
01D470
044D30
07EC20
4A1570
910370
931B20
3DE500
ENDCHAR
STARTCHAR Odieresis
ENCODING 214
SWIDTH 600 0
DWIDTH 5 0
BBX 5 7 0 0
BITMAP
008620
000000
07EC20
4A1570
910370
931B20
3DE500
ENDCHAR
STARTCHAR multiply
ENCODING 215
SWIDTH 600 0
DWIDTH 5 0
BBX 3 3 1 1
BITMAP
8270
3D10
8270
ENDCHAR
STARTCHAR Oslash
ENCODING 216
SWIDTH 600 0
DWIDTH 5 0
BBX 5 7 0 -1
BITMAP
000010
07EC80
4A3970
928470
882B20
9DE500
100000
ENDCHAR
STARTCHAR Ugrave
ENCODING 217
SWIDTH 600 0
DWIDTH 5 0
BBX 5 7 0 0
BITMAP
005300
000000
090190
270460
530830
752C00
3DE500
ENDCHAR
STARTCHAR Uacute
ENCODING 218
SWIDTH 600 0
DWIDTH 5 0
BBX 5 7 0 0
BITMAP
002710
000000
090190
270460
530830
752C00
3DE500
ENDCHAR
STARTCHAR Ucircumflex
ENCODING 219
SWIDTH 600 0
DWIDTH 5 0
BBX 5 7 0 0
BITMAP
007810
000000
090190
270460
530830
752C00
3DE500
ENDCHAR
STARTCHAR Udieresis
ENCODING 220
SWIDTH 600 0
DWIDTH 5 0
BBX 5 7 0 0
BITMAP
008620
000000
090190
270460
530830
752C00
3DE500
ENDCHAR
STARTCHAR Yacute
ENCODING 221
SWIDTH 600 0
DWIDTH 5 0
BBX 4 7 1 0
BITMAP
0270
0000
9019
A1A2
6A60
2C00
4500
ENDCHAR
STARTCHAR Thorn
ENCODING 222
SWIDTH 600 0
DWIDTH 5 0
BBX 5 5 0 0
BITMAP
0BFD10
080660
261840
5FE800
810000
ENDCHAR
STARTCHAR germandbls
ENCODING 223
SWIDTH 600 0
DWIDTH 5 0
BBX 5 6 0 0
BITMAP
04EC00
0B2900
194300
464600
741720
92DC10
ENDCHAR
STARTCHAR agrave
ENCODING 224
SWIDTH 600 0
DWIDTH 5 0
BBX 5 6 0 0
BITMAP
008100
002600
09EB50
571920
833C00
4EBA00
ENDCHAR
STARTCHAR aacute
ENCODING 225
SWIDTH 600 0
DWIDTH 5 0
BBX 5 6 0 0
BITMAP
000910
005400
09EB50
571920
833C00
4EBA00
ENDCHAR
STARTCHAR acircumflex
ENCODING 226
SWIDTH 600 0
DWIDTH 5 0
BBX 5 6 0 0
BITMAP
017810
000000
09EB50
571920
833C00
4EBA00
ENDCHAR
STARTCHAR atilde
ENCODING 227
SWIDTH 600 0
DWIDTH 5 0
BBX 5 6 0 0
BITMAP
007340
033C30
09EB50
571920
833C00
4EBA00
ENDCHAR
STARTCHAR adieresis
ENCODING 228
SWIDTH 600 0
DWIDTH 5 0
BBX 5 6 0 0
BITMAP
008720
000000
09EB50
571920
833C00
4EBA00
ENDCHAR
STARTCHAR aring
ENCODING 229
SWIDTH 600 0
DWIDTH 5 0
BBX 5 7 0 0
BITMAP
007B00
008800
009900
09EB50
571920
833C00
4EBA00
ENDCHAR
STARTCHAR ae
ENCODING 230
SWIDTH 600 0
DWIDTH 5 0
BBX 6 4 -1 0
BITMAP
03E9D9
036EDB
1B9A32
1EBBD2
ENDCHAR
STARTCHAR ccedilla
ENCODING 231
SWIDTH 600 0
DWIDTH 5 0
BBX 5 8 0 -4
BITMAP
07EB00
491420
651400
1CE500
024000
066000
027000
0C2000
ENDCHAR
STARTCHAR egrave
ENCODING 232
SWIDTH 600 0
DWIDTH 5 0
BBX 5 6 0 0
BITMAP
008000
003500
08EB00
5FFF20
751400
2DE400
ENDCHAR
STARTCHAR eacute
ENCODING 233
SWIDTH 600 0
DWIDTH 5 0
BBX 5 6 0 0
BITMAP
000900
005400
08EB00
5FFF20
751400
2DE400
ENDCHAR
STARTCHAR ecircumflex
ENCODING 234
SWIDTH 600 0
DWIDTH 5 0
BBX 5 6 0 0
BITMAP
017700
000000
08EB00
5FFF20
751400
2DE400
ENDCHAR
STARTCHAR edieresis
ENCODING 235
SWIDTH 600 0
DWIDTH 5 0
BBX 5 6 0 0
BITMAP
017810
000000
08EB00
5FFF20
751400
2DE400
ENDCHAR
STARTCHAR igrave
ENCODING 236
SWIDTH 600 0
DWIDTH 5 0
BBX 4 6 0 0
BITMAP
0090
0063
2FD0
0070
0271
02E9
ENDCHAR
STARTCHAR iacute
ENCODING 237
SWIDTH 600 0
DWIDTH 5 0
BBX 4 6 0 0
BITMAP
0018
0072
2FD0
0070
0271
02E9
ENDCHAR
STARTCHAR icircumflex
ENCODING 238
SWIDTH 600 0
DWIDTH 5 0
BBX 4 6 0 0
BITMAP
0267
0000
2FD0
0070
0271
02E9
ENDCHAR
STARTCHAR idieresis
ENCODING 239
SWIDTH 600 0
DWIDTH 5 0
BBX 4 6 0 0
BITMAP
0358
0000
2FD0
0070
0271
02E9
ENDCHAR
STARTCHAR eth
ENCODING 240
SWIDTH 600 0
DWIDTH 5 0
BBX 5 6 0 0
BITMAP
008650
017A00
1BEB30
851940
921910
4ED500
ENDCHAR
STARTCHAR ntilde
ENCODING 241
SWIDTH 600 0
DWIDTH 5 0
BBX 5 6 0 0
BITMAP
007340
043D30
1ACE10
3C2730
640800
910900
ENDCHAR
STARTCHAR ograve
ENCODING 242
SWIDTH 600 0
DWIDTH 5 0
BBX 5 6 0 0
BITMAP
008000
004500
09EA00
661930
931B10
3DD500
ENDCHAR
STARTCHAR oacute
ENCODING 243
SWIDTH 600 0
DWIDTH 5 0
BBX 5 6 0 0
BITMAP
000900
006300
09EA00
661930
931B10
3DD500
ENDCHAR
STARTCHAR ocircumflex
ENCODING 244
SWIDTH 600 0
DWIDTH 5 0
BBX 5 6 0 0
BITMAP
026700
000000
09EA00
661930
931B10
3DD500
ENDCHAR
STARTCHAR otilde
ENCODING 245
SWIDTH 600 0
DWIDTH 5 0
BBX 5 6 0 0
BITMAP
018330
052D20
09EA00
661930
931B10
3DD500
ENDCHAR
STARTCHAR odieresis
ENCODING 246
SWIDTH 600 0
DWIDTH 5 0
BBX 5 6 0 0
BITMAP
027800
000000
09EA00
661930
931B10
3DD500
ENDCHAR
STARTCHAR divide
ENCODING 247
SWIDTH 600 0
DWIDTH 5 0
BBX 5 5 0 0
BITMAP
009000
000000
4FFF20
000000
009000
ENDCHAR
STARTCHAR oslash
ENCODING 248
SWIDTH 600 0
DWIDTH 5 0
BBX 5 4 0 0
BITMAP
09EC40
677A30
985B10
9DD500
ENDCHAR
STARTCHAR ugrave
ENCODING 249
SWIDTH 600 0
DWIDTH 5 0
BBX 5 6 0 0
BITMAP
008000
004400
270540
540910
735D00
5E9900
ENDCHAR
STARTCHAR uacute
ENCODING 250
SWIDTH 600 0
DWIDTH 5 0
BBX 5 6 0 0
BITMAP
000900
006300
270540
540910
735D00
5E9900
ENDCHAR
STARTCHAR ucircumflex
ENCODING 251
SWIDTH 600 0
DWIDTH 5 0
BBX 5 6 0 0
BITMAP
026700
000000
270540
540910
735D00
5E9900
ENDCHAR
STARTCHAR udieresis
ENCODING 252
SWIDTH 600 0
DWIDTH 5 0
BBX 5 6 0 0
BITMAP
027800
000000
270540
540910
735D00
5E9900
ENDCHAR
STARTCHAR yacute
ENCODING 253
SWIDTH 600 0
DWIDTH 5 0
BBX 6 8 -1 -2
BITMAP
000090
000630
036046
009090
009530
008800
007200
4E6000
ENDCHAR
STARTCHAR thorn
ENCODING 254
SWIDTH 600 0
DWIDTH 5 0
BBX 5 8 0 -2
BITMAP
090000
090000
1CDD10
3A1840
651A20
8CE600
900000
900000
ENDCHAR
STARTCHAR ydieresis
ENCODING 255
SWIDTH 600 0
DWIDTH 5 0
BBX 6 8 -1 -2
BITMAP
002680
000000
036046
009090
009530
008800
007200
4E6000
ENDCHAR
STARTCHAR Amacron
ENCODING 256
SWIDTH 600 0
DWIDTH 5 0
BBX 5 7 0 0
BITMAP
00EF20
000000
008700
036800
090900
5FFD00
B10A00
ENDCHAR
STARTCHAR amacron
ENCODING 257
SWIDTH 600 0
DWIDTH 5 0
BBX 5 6 0 0
BITMAP
00FF10
000000
09EB50
571920
833C00
4EBA00
ENDCHAR
STARTCHAR Abreve
ENCODING 258
SWIDTH 600 0
DWIDTH 5 0
BBX 5 7 0 0
BITMAP
008440
00AC00
008700
036800
090900
5FFD00
B10A00
ENDCHAR
STARTCHAR abreve
ENCODING 259
SWIDTH 600 0
DWIDTH 5 0
BBX 5 6 0 0
BITMAP
017440
00BB00
09EB50
571920
833C00
4EBA00
ENDCHAR
STARTCHAR Aogonek
ENCODING 260
SWIDTH 600 0
DWIDTH 5 0
BBX 4 7 0 -2
BITMAP
0087
0368
0909
5FFD
B10A
0024
004D
ENDCHAR
STARTCHAR aogonek
ENCODING 261
SWIDTH 600 0
DWIDTH 5 0
BBX 5 6 0 -2
BITMAP
09EB50
571920
833C00
4EBA00
004200
00A700
ENDCHAR
STARTCHAR Cacute
ENCODING 262
SWIDTH 600 0
DWIDTH 5 0
BBX 5 7 0 0
BITMAP
000630
000000
03CE30
1B3140
450000
581400
0BE700
ENDCHAR
STARTCHAR cacute
ENCODING 263
SWIDTH 600 0
DWIDTH 5 0
BBX 5 6 0 0
BITMAP
000810
004500
07EB00
491420
651400
1CE500
ENDCHAR
STARTCHAR Ccircumflex
ENCODING 264
SWIDTH 600 0
DWIDTH 5 0
BBX 5 7 0 0
BITMAP
005730
000000
03CE30
1B3140
450000
581400
0BE700
ENDCHAR
STARTCHAR ccircumflex
ENCODING 265
SWIDTH 600 0
DWIDTH 5 0
BBX 5 6 0 0
BITMAP
006710
000000
07EB00
491420
651400
1CE500
ENDCHAR
STARTCHAR Cdotaccent
ENCODING 266
SWIDTH 600 0
DWIDTH 5 0
BBX 5 7 0 0
BITMAP
000900
000000
03CE30
1B3140
450000
581400
0BE700
ENDCHAR
STARTCHAR cdotaccent
ENCODING 267
SWIDTH 600 0
DWIDTH 5 0
BBX 5 6 0 0
BITMAP
003700
000000
07EB00
491420
651400
1CE500
ENDCHAR
STARTCHAR Ccaron
ENCODING 268
SWIDTH 600 0
DWIDTH 5 0
BBX 5 7 0 0
BITMAP
005740
000000
03CE30
1B3140
450000
581400
0BE700
ENDCHAR
STARTCHAR ccaron
ENCODING 269
SWIDTH 600 0
DWIDTH 5 0
BBX 5 6 0 0
BITMAP
007620
000000
07EB00
491420
651400
1CE500
ENDCHAR
STARTCHAR Dcaron
ENCODING 270
SWIDTH 600 0
DWIDTH 5 0
BBX 5 7 0 0
BITMAP
007720
000000
0DEA10
190760
550450
713B20
BFC400
ENDCHAR
STARTCHAR dcaron
ENCODING 271
SWIDTH 600 0
DWIDTH 5 0
BBX 6 6 0 0
BITMAP
000378
000556
0AEC10
661A00
924A00
5EB700
ENDCHAR
STARTCHAR Dcroat
ENCODING 272
SWIDTH 600 0
DWIDTH 5 0
BBX 5 5 0 0
BITMAP
0CFB10
0A0670
BF9270
532A30
9FD500
ENDCHAR
STARTCHAR dcroat
ENCODING 273
SWIDTH 600 0
DWIDTH 5 0
BBX 6 6 0 0
BITMAP
000090
004AF2
000360
1BEC30
853C00
5ECA00
ENDCHAR
STARTCHAR Emacron
ENCODING 274
SWIDTH 600 0
DWIDTH 5 0
BBX 5 7 0 0
BITMAP
00AF60
000000
09FFB0
0A0000
0FFD00
360000
6FFD00
ENDCHAR
STARTCHAR emacron
ENCODING 275
SWIDTH 600 0
DWIDTH 5 0
BBX 5 6 0 0
BITMAP
01FF00
000000
08EB00
5FFF20
751400
2DE400
ENDCHAR
STARTCHAR Ebreve
ENCODING 276
SWIDTH 600 0
DWIDTH 5 0
BBX 5 7 0 0
BITMAP
007170
006E20
09FFB0
0A0000
0FFD00
360000
6FFD00
ENDCHAR
STARTCHAR ebreve
ENCODING 277
SWIDTH 600 0
DWIDTH 5 0
BBX 5 6 0 0
BITMAP
026530
00CB00
08EB00
5FFF20
751400
2DE400
ENDCHAR
STARTCHAR Edotaccent
ENCODING 278
SWIDTH 600 0
DWIDTH 5 0
BBX 5 7 0 0
BITMAP
000900
000000
09FFB0
0A0000
0FFD00
360000
6FFD00
ENDCHAR
STARTCHAR edotaccent
ENCODING 279
SWIDTH 600 0
DWIDTH 5 0
BBX 5 6 0 0
BITMAP
005600
000000
08EB00
5FFF20
751400
2DE400
ENDCHAR
STARTCHAR Eogonek
ENCODING 280
SWIDTH 600 0
DWIDTH 5 0
BBX 5 7 0 -2
BITMAP
09FFB0
0A0000
0FFD00
360000
6FFD00
004200
00A700
ENDCHAR
STARTCHAR eogonek
ENCODING 281
SWIDTH 600 0
DWIDTH 5 0
BBX 5 6 0 -2
BITMAP
08EB00
5FFF20
751400
2DE300
004000
00D400
ENDCHAR
STARTCHAR Ecaron
ENCODING 282
SWIDTH 600 0
DWIDTH 5 0
BBX 5 7 0 0
BITMAP
005740
000000
09FFB0
0A0000
0FFD00
360000
6FFD00
ENDCHAR
STARTCHAR ecaron
ENCODING 283
SWIDTH 600 0
DWIDTH 5 0
BBX 5 6 0 0
BITMAP
008710
000000
08EB00
5FFF20
751400
2DE400
ENDCHAR
STARTCHAR Gcircumflex
ENCODING 284
SWIDTH 600 0
DWIDTH 5 0
BBX 5 7 0 0
BITMAP
006720
000000
04DD20
2B2230
635F40
760810
1CE900
ENDCHAR
STARTCHAR gcircumflex
ENCODING 285
SWIDTH 600 0
DWIDTH 5 0
BBX 5 8 0 -2
BITMAP
017810
000000
09EB50
581920
831B00
5EDB00
324800
7EC200
ENDCHAR
STARTCHAR Gbreve
ENCODING 286
SWIDTH 600 0
DWIDTH 5 0
BBX 5 7 0 0
BITMAP
008260
007D20
04DD20
2B2230
635F40
760810
1CE900
ENDCHAR
STARTCHAR gbreve
ENCODING 287
SWIDTH 600 0
DWIDTH 5 0
BBX 5 8 0 -2
BITMAP
017440
00BB00
09EB50
581920
831B00
5EDB00
324800
7EC200
ENDCHAR
STARTCHAR Gdotaccent
ENCODING 288
SWIDTH 600 0
DWIDTH 5 0
BBX 5 7 0 0
BITMAP
000900
000000
04DD20
2B2230
635F40
760810
1CE900
ENDCHAR
STARTCHAR gdotaccent
ENCODING 289
SWIDTH 600 0
DWIDTH 5 0
BBX 5 8 0 -2
BITMAP
004600
000000
09EB50
581920
831B00
5EDB00
324800
7EC200
ENDCHAR
STARTCHAR uni0122
ENCODING 290
SWIDTH 600 0
DWIDTH 5 0
BBX 5 7 0 -2
BITMAP
04DD20
2B2230
635F40
760810
1CE900
02A000
097000
ENDCHAR
STARTCHAR uni0123
ENCODING 291
SWIDTH 600 0
DWIDTH 5 0
BBX 5 8 0 -2
BITMAP
001900
006300
09EB50
581920
831B00
5EDB00
324800
7EC200
ENDCHAR
STARTCHAR Hcircumflex
ENCODING 292
SWIDTH 600 0
DWIDTH 5 0
BBX 5 7 0 0
BITMAP
007810
000000
090190
270460
5FFF30
820800
A00900
ENDCHAR
STARTCHAR hcircumflex
ENCODING 293
SWIDTH 600 0
DWIDTH 5 0
BBX 5 7 0 0
BITMAP
277000
090000
090000
1BCE10
4C2730
740800
910900
ENDCHAR
STARTCHAR Hbar
ENCODING 294
SWIDTH 600 0
DWIDTH 5 0
BBX 6 5 0 0
BITMAP
8FFFF1
370450
6FFF20
920800
A00900
ENDCHAR
STARTCHAR hbar
ENCODING 295
SWIDTH 600 0
DWIDTH 5 0
BBX 5 6 0 0
BITMAP
090000
5FF900
090000
2CDE10
5A2810
910900
ENDCHAR
STARTCHAR Itilde
ENCODING 296
SWIDTH 600 0
DWIDTH 5 0
BBX 5 7 0 0
BITMAP
01D470
044D30
0BFF80
009100
009000
037000
AFF900
ENDCHAR
STARTCHAR itilde
ENCODING 297
SWIDTH 600 0
DWIDTH 5 0
BBX 5 6 0 0
BITMAP
027320
063D00
2FD000
007000
027100
02E900
ENDCHAR
STARTCHAR Imacron
ENCODING 298
SWIDTH 600 0
DWIDTH 5 0
BBX 5 7 0 0
BITMAP
00EF20
000000
0BFF80
009100
009000
037000
AFF900
ENDCHAR
STARTCHAR imacron
ENCODING 299
SWIDTH 600 0
DWIDTH 5 0
BBX 4 6 0 0
BITMAP
04FC
0000
2FD0
0070
0271
02E9
ENDCHAR
STARTCHAR Ibreve
ENCODING 300
SWIDTH 600 0
DWIDTH 5 0
BBX 5 7 0 0
BITMAP
008440
00AC00
0BFF80
009100
009000
037000
AFF900
ENDCHAR
STARTCHAR ibreve
ENCODING 301
SWIDTH 600 0
DWIDTH 5 0
BBX 5 6 0 0
BITMAP
054810
01D800
2FD000
007000
027100
02E900
ENDCHAR
STARTCHAR Iogonek
ENCODING 302
SWIDTH 600 0
DWIDTH 5 0
BBX 5 7 0 -2
BITMAP
0BFF80
009100
009000
037000
AFF900
061000
0D4000
ENDCHAR
STARTCHAR iogonek
ENCODING 303
SWIDTH 600 0
DWIDTH 5 0
BBX 4 8 0 -2
BITMAP
0083
0000
2FD0
0070
0271
02E7
0040
00C5
ENDCHAR
STARTCHAR Idotaccent
ENCODING 304
SWIDTH 600 0
DWIDTH 5 0
BBX 5 7 0 0
BITMAP
003600
000000
0BFF80
009100
009000
037000
AFF900
ENDCHAR
STARTCHAR dotlessi
ENCODING 305
SWIDTH 600 0
DWIDTH 5 0
BBX 4 4 0 0
BITMAP
2FD0
0070
0271
02E9
ENDCHAR
STARTCHAR IJ
ENCODING 306
SWIDTH 600 0
DWIDTH 5 0
BBX 5 7 0 -2
BITMAP
090370
090640
270910
540A00
810A00
004700
03E200
ENDCHAR
STARTCHAR ij
ENCODING 307
SWIDTH 600 0
DWIDTH 5 0
BBX 5 8 0 -2
BITMAP
073650
000000
090900
090A00
372800
645500
009200
07B000
ENDCHAR
STARTCHAR Jcircumflex
ENCODING 308
SWIDTH 600 0
DWIDTH 5 0
BBX 5 7 0 0
BITMAP
007810
000000
08FF30
000800
000900
515800
4EC200
ENDCHAR
STARTCHAR jcircumflex
ENCODING 309
SWIDTH 600 0
DWIDTH 5 0
BBX 5 8 0 -2
BITMAP
005730
000000
0EF700
004400
008100
00A000
23A000
CD3000
ENDCHAR
STARTCHAR uni0136
ENCODING 310
SWIDTH 600 0
DWIDTH 5 0
BBX 5 7 0 -2
BITMAP
090560
095500
2CB100
553700
810A00
039000
0A6000
ENDCHAR
STARTCHAR uni0137
ENCODING 311
SWIDTH 600 0
DWIDTH 5 0
BBX 5 8 0 -2
BITMAP
081000
090000
090830
29B200
5A5500
820900
048000
0B5000
ENDCHAR
STARTCHAR kgreenlandic
ENCODING 312
SWIDTH 600 0
DWIDTH 5 0
BBX 5 4 0 0
BITMAP
090830
29B200
5B6500
820900
ENDCHAR
STARTCHAR Lacute
ENCODING 313
SWIDTH 600 0
DWIDTH 5 0
BBX 5 7 0 0
BITMAP
007200
000000
045000
072000
080000
080000
1FFF10
ENDCHAR
STARTCHAR lacute
ENCODING 314
SWIDTH 600 0
DWIDTH 5 0
BBX 3 7 1 0
BITMAP
0370
CF10
0700
0700
2500
5410
4E70
ENDCHAR
STARTCHAR uni013B
ENCODING 315
SWIDTH 600 0
DWIDTH 5 0
BBX 5 7 0 -2
BITMAP
045000
072000
080000
080000
1FFF10
01B000
088000
ENDCHAR
STARTCHAR uni013C
ENCODING 316
SWIDTH 600 0
DWIDTH 5 0
BBX 3 8 1 -2
BITMAP
CF10
0700
0700
2500
5410
4E70
0C00
6A00
ENDCHAR
STARTCHAR Lcaron
ENCODING 317
SWIDTH 600 0
DWIDTH 5 0
BBX 5 6 0 0
BITMAP
000540
045700
072000
080000
080000
1FFF10
ENDCHAR
STARTCHAR lcaron
ENCODING 318
SWIDTH 600 0
DWIDTH 5 0
BBX 4 6 1 0
BITMAP
CF27
0743
0700
2500
5410
4E70
ENDCHAR
STARTCHAR Ldot
ENCODING 319
SWIDTH 600 0
DWIDTH 5 0
BBX 5 5 0 0
BITMAP
045000
072650
080000
080000
1FFF10
ENDCHAR
STARTCHAR ldot
ENCODING 320
SWIDTH 600 0
DWIDTH 5 0
BBX 5 6 0 0
BITMAP
2FB000
007000
0340B0
061000
091100
08E300
ENDCHAR
STARTCHAR Lslash
ENCODING 321
SWIDTH 600 0
DWIDTH 5 0
BBX 5 5 0 0
BITMAP
045000
073500
1A4000
390000
2FFF10
ENDCHAR
STARTCHAR lslash
ENCODING 322
SWIDTH 600 0
DWIDTH 5 0
BBX 4 6 0 0
BITMAP
0CF1
0075
00A2
1850
0541
04E7
ENDCHAR
STARTCHAR Nacute
ENCODING 323
SWIDTH 600 0
DWIDTH 5 0
BBX 5 7 0 0
BITMAP
002710
000000
0C1180
196450
458720
727900
903B00
ENDCHAR
STARTCHAR nacute
ENCODING 324
SWIDTH 600 0
DWIDTH 5 0
BBX 5 6 0 0
BITMAP
000910
005400
1ACE10
3C2730
640800
910900
ENDCHAR
STARTCHAR uni0145
ENCODING 325
SWIDTH 600 0
DWIDTH 5 0
BBX 5 7 0 -2
BITMAP
0C1180
196450
458720
727900
903B00
075000
0D3000
ENDCHAR
STARTCHAR uni0146
ENCODING 326
SWIDTH 600 0
DWIDTH 5 0
BBX 5 6 0 -2
BITMAP
1ACE10
3C2730
640800
910900
075000
0D3000
ENDCHAR
STARTCHAR Ncaron
ENCODING 327
SWIDTH 600 0
DWIDTH 5 0
BBX 5 7 0 0
BITMAP
007720
000000
0C1180
196450
458720
727900
903B00
ENDCHAR
STARTCHAR ncaron
ENCODING 328
SWIDTH 600 0
DWIDTH 5 0
BBX 5 6 0 0
BITMAP
007620
000000
1ACE10
3C2730
640800
910900
ENDCHAR
STARTCHAR napostrophe
ENCODING 329
SWIDTH 600 0
DWIDTH 5 0
BBX 5 5 0 0
BITMAP
690000
5BADA0
B7A1A0
091080
0A0360
ENDCHAR
STARTCHAR Eng
ENCODING 330
SWIDTH 600 0
DWIDTH 5 0
BBX 5 5 0 0
BITMAP
0CDE20
2C2560
560450
821B20
A0E700
ENDCHAR
STARTCHAR eng
ENCODING 331
SWIDTH 600 0
DWIDTH 5 0
BBX 5 6 0 -2
BITMAP
1ACE10
3C2730
640810
910A00
002A00
00E400
ENDCHAR
STARTCHAR Omacron
ENCODING 332
SWIDTH 600 0
DWIDTH 5 0
BBX 5 7 0 0
BITMAP
00EF20
000000
07EC20
4A1570
910370
931B20
3DE500
ENDCHAR
STARTCHAR omacron
ENCODING 333
SWIDTH 600 0
DWIDTH 5 0
BBX 5 6 0 0
BITMAP
02FE00
000000
09EA00
661930
931B10
3DD500
ENDCHAR
STARTCHAR Obreve
ENCODING 334
SWIDTH 600 0
DWIDTH 5 0
BBX 5 7 0 0
BITMAP
008440
00AC00
07EC20
4A1570
910370
931B20
3DE500
ENDCHAR
STARTCHAR obreve
ENCODING 335
SWIDTH 600 0
DWIDTH 5 0
BBX 5 6 0 0
BITMAP
036630
00CA00
09EA00
661930
931B10
3DD500
ENDCHAR
STARTCHAR Ohungarumlaut
ENCODING 336
SWIDTH 600 0
DWIDTH 5 0
BBX 5 7 0 0
BITMAP
004550
000000
07EC20
4A1570
910370
931B20
3DE500
ENDCHAR
STARTCHAR ohungarumlaut
ENCODING 337
SWIDTH 600 0
DWIDTH 5 0
BBX 5 6 0 0
BITMAP
003560
007610
09EA00
661930
931B10
3DD500
ENDCHAR
STARTCHAR OE
ENCODING 338
SWIDTH 600 0
DWIDTH 5 0
BBX 6 5 0 0
BITMAP
07DFF2
594500
907F50
A29000
4EFF40
ENDCHAR
STARTCHAR oe
ENCODING 339
SWIDTH 600 0
DWIDTH 5 0
BBX 6 4 -1 0
BITMAP
04E8C8
0A1CFB
192A11
0CC9D2
ENDCHAR
STARTCHAR Racute
ENCODING 340
SWIDTH 600 0
DWIDTH 5 0
BBX 5 7 0 0
BITMAP
002710
000000
0CFD20
090750
3FF900
638200
902800
ENDCHAR
STARTCHAR racute
ENCODING 341
SWIDTH 600 0
DWIDTH 5 0
BBX 5 6 0 0
BITMAP
000720
003700
087E40
0B8100
0A0000
280000
ENDCHAR
STARTCHAR uni0156
ENCODING 342
SWIDTH 600 0
DWIDTH 5 0
BBX 5 7 0 -2
BITMAP
0CFD20
090750
3FF900
638200
902800
066000
0D4000
ENDCHAR
STARTCHAR uni0157
ENCODING 343
SWIDTH 600 0
DWIDTH 5 0
BBX 5 6 0 -2
BITMAP
087E40
0B8100
0A0000
280000
660000
C40000
ENDCHAR
STARTCHAR Rcaron
ENCODING 344
SWIDTH 600 0
DWIDTH 5 0
BBX 5 7 0 0
BITMAP
007720
000000
0CFD20
090750
3FF900
638200
902800
ENDCHAR
STARTCHAR rcaron
ENCODING 345
SWIDTH 600 0
DWIDTH 5 0
BBX 5 6 0 0
BITMAP
006630
000000
087E40
0B8100
0A0000
280000
ENDCHAR
STARTCHAR Sacute
ENCODING 346
SWIDTH 600 0
DWIDTH 5 0
BBX 5 7 0 0
BITMAP
002700
000000
07EA00
0A1510
02A400
521B00
2CE600
ENDCHAR
STARTCHAR sacute
ENCODING 347
SWIDTH 600 0
DWIDTH 5 0
BBX 4 6 0 0
BITMAP
0009
0063
0AE7
0A55
4358
1CE7
ENDCHAR
STARTCHAR Scircumflex
ENCODING 348
SWIDTH 600 0
DWIDTH 5 0
BBX 5 7 0 0
BITMAP
017800
000000
07EA00
0A1510
02A400
521B00
2CE600
ENDCHAR
STARTCHAR scircumflex
ENCODING 349
SWIDTH 600 0
DWIDTH 5 0
BBX 4 6 0 0
BITMAP
0267
0000
0AE7
0A55
4358
1CE7
ENDCHAR
STARTCHAR uni015E
ENCODING 350
SWIDTH 600 0
DWIDTH 5 0
BBX 5 9 0 -4
BITMAP
07EA00
0A1510
02A400
521B00
2CE600
042000
074000
046000
0C1000
ENDCHAR
STARTCHAR uni015F
ENCODING 351
SWIDTH 600 0
DWIDTH 5 0
BBX 4 8 0 -4
BITMAP
0AE7
0A55
4358
1CE7
0320
0740
0460
0C10
ENDCHAR
STARTCHAR Scaron
ENCODING 352
SWIDTH 600 0
DWIDTH 5 0
BBX 5 7 0 0
BITMAP
007710
000000
07EA00
0A1510
02A400
521B00
2CE600
ENDCHAR
STARTCHAR scaron
ENCODING 353
SWIDTH 600 0
DWIDTH 5 0
BBX 5 6 0 0
BITMAP
008710
000000
0AE700
0A5500
435800
1CE700
ENDCHAR
STARTCHAR uni0162
ENCODING 354
SWIDTH 600 0
DWIDTH 5 0
BBX 5 9 0 -4
BITMAP
2FFFE0
009100
009000
018000
055000
051000
092000
063000
2B0000
ENDCHAR
STARTCHAR uni0163
ENCODING 355
SWIDTH 600 0
DWIDTH 5 0
BBX 5 9 0 -4
BITMAP
018000
5FFF50
063000
091200
08E800
006000
02A000
019000
095000
ENDCHAR
STARTCHAR Tcaron
ENCODING 356
SWIDTH 600 0
DWIDTH 5 0
BBX 5 7 0 0
BITMAP
007720
000000
2FFFE0
009100
009000
018000
055000
ENDCHAR
STARTCHAR tcaron
ENCODING 357
SWIDTH 600 0
DWIDTH 5 0
BBX 5 6 0 0
BITMAP
000540
018700
5FFF50
063000
091200
08E800
ENDCHAR
STARTCHAR Tbar
ENCODING 358
SWIDTH 600 0
DWIDTH 5 0
BBX 5 5 0 0
BITMAP
2FFFE0
009000
0DFD00
019000
045000
ENDCHAR
STARTCHAR tbar
ENCODING 359
SWIDTH 600 0
DWIDTH 5 0
BBX 5 5 0 0
BITMAP
018000
5FFF50
9FFD00
0A1200
07E800
ENDCHAR
STARTCHAR Utilde
ENCODING 360
SWIDTH 600 0
DWIDTH 5 0
BBX 5 7 0 0
BITMAP
01D470
044D30
090190
270460
530830
752C00
3DE500
ENDCHAR
STARTCHAR utilde
ENCODING 361
SWIDTH 600 0
DWIDTH 5 0
BBX 5 6 0 0
BITMAP
018330
052D10
270540
540910
735D00
5E9900
ENDCHAR
STARTCHAR Umacron
ENCODING 362
SWIDTH 600 0
DWIDTH 5 0
BBX 5 7 0 0
BITMAP
00EF20
000000
090190
270460
530830
752C00
3DE500
ENDCHAR
STARTCHAR umacron
ENCODING 363
SWIDTH 600 0
DWIDTH 5 0
BBX 5 6 0 0
BITMAP
02FE00
000000
270540
540910
735D00
5E9900
ENDCHAR
STARTCHAR Ubreve
ENCODING 364
SWIDTH 600 0
DWIDTH 5 0
BBX 5 7 0 0
BITMAP
008440
00AC00
090190
270460
530830
752C00
3DE500
ENDCHAR
STARTCHAR ubreve
ENCODING 365
SWIDTH 600 0
DWIDTH 5 0
BBX 5 6 0 0
BITMAP
035620
00D900
270540
540910
735D00
5E9900
ENDCHAR
STARTCHAR Uring
ENCODING 366
SWIDTH 600 0
DWIDTH 5 0
BBX 5 8 0 0
BITMAP
004B00
007700
006900
090190
270460
530830
752C00
3DE500
ENDCHAR
STARTCHAR uring
ENCODING 367
SWIDTH 600 0
DWIDTH 5 0
BBX 5 7 0 0
BITMAP
009900
008800
00B700
270540
540910
735D00
5E9900
ENDCHAR
STARTCHAR Uhungarumlaut
ENCODING 368
SWIDTH 600 0
DWIDTH 5 0
BBX 5 7 0 0
BITMAP
004550
000000
090190
270460
530830
752C00
3DE500
ENDCHAR
STARTCHAR uhungarumlaut
ENCODING 369
SWIDTH 600 0
DWIDTH 5 0
BBX 5 6 0 0
BITMAP
004560
007610
270540
540910
735D00
5E9900
ENDCHAR
STARTCHAR Uogonek
ENCODING 370
SWIDTH 600 0
DWIDTH 5 0
BBX 5 7 0 -2
BITMAP
090090
280360
550630
720800
374500
061000
0D4000
ENDCHAR
STARTCHAR uogonek
ENCODING 371
SWIDTH 600 0
DWIDTH 5 0
BBX 5 6 0 -2
BITMAP
270540
540910
735D00
5E9900
004200
00B700
ENDCHAR
STARTCHAR Wcircumflex
ENCODING 372
SWIDTH 600 0
DWIDTH 5 0
BBX 5 7 0 0
BITMAP
007810
000000
450080
536090
64B450
786910
865900
ENDCHAR
STARTCHAR wcircumflex
ENCODING 373
SWIDTH 600 0
DWIDTH 5 0
BBX 5 6 0 0
BITMAP
026700
000000
909090
93B350
887800
867800
ENDCHAR
STARTCHAR Ycircumflex
ENCODING 374
SWIDTH 600 0
DWIDTH 5 0
BBX 4 7 1 0
BITMAP
1780
0000
9019
A1A2
6A60
2C00
4500
ENDCHAR
STARTCHAR ycircumflex
ENCODING 375
SWIDTH 600 0
DWIDTH 5 0
BBX 6 8 -1 -2
BITMAP
002670
000000
036046
009090
009530
008800
007200
4E6000
ENDCHAR
STARTCHAR Ydieresis
ENCODING 376
SWIDTH 600 0
DWIDTH 5 0
BBX 4 7 1 0
BITMAP
0771
0000
9019
A1A2
6A60
2C00
4500
ENDCHAR
STARTCHAR Zacute
ENCODING 377
SWIDTH 600 0
DWIDTH 5 0
BBX 5 7 0 0
BITMAP
002700
000000
0EFF90
001810
028100
380000
CFFE00
ENDCHAR
STARTCHAR zacute
ENCODING 378
SWIDTH 600 0
DWIDTH 5 0
BBX 5 6 0 0
BITMAP
000900
006300
1FFF40
005500
172000
AFFB00
ENDCHAR
STARTCHAR Zdotaccent
ENCODING 379
SWIDTH 600 0
DWIDTH 5 0
BBX 5 7 0 0
BITMAP
004500
000000
0EFF90
001810
028100
380000
CFFE00
ENDCHAR
STARTCHAR zdotaccent
ENCODING 380
SWIDTH 600 0
DWIDTH 5 0
BBX 5 6 0 0
BITMAP
007400
000000
1FFF40
005500
172000
AFFB00
ENDCHAR
STARTCHAR Zcaron
ENCODING 381
SWIDTH 600 0
DWIDTH 5 0
BBX 5 7 0 0
BITMAP
007710
000000
0EFF90
001810
028100
380000
CFFE00
ENDCHAR
STARTCHAR zcaron
ENCODING 382
SWIDTH 600 0
DWIDTH 5 0
BBX 5 6 0 0
BITMAP
018710
000000
1FFF40
005500
172000
AFFB00
ENDCHAR
STARTCHAR longs
ENCODING 383
SWIDTH 600 0
DWIDTH 5 0
BBX 4 6 1 0
BITMAP
04EB
0A22
EB00
1700
4400
8100
ENDCHAR
STARTCHAR uni0180
ENCODING 384
SWIDTH 600 0
DWIDTH 5 0
BBX 5 6 0 0
BITMAP
090000
5FF900
090000
2DED20
692930
8CE800
ENDCHAR
STARTCHAR uni018A
ENCODING 394
SWIDTH 600 0
DWIDTH 5 0
BBX 5 5 0 0
BITMAP
07EC30
568490
844190
582A40
0BD600
ENDCHAR
STARTCHAR uni018F
ENCODING 399
SWIDTH 600 0
DWIDTH 5 0
BBX 5 5 0 0
BITMAP
03DD20
041470
8FFF60
831920
3DD500
ENDCHAR
STARTCHAR uni0192
ENCODING 402
SWIDTH 600 0
DWIDTH 5 0
BBX 6 6 -1 -1
BITMAP
0005EA
009FF1
001900
005500
01A100
1E8000
ENDCHAR
STARTCHAR uni0193
ENCODING 403
SWIDTH 600 0
DWIDTH 5 0
BBX 6 7 0 0
BITMAP
0000C2
000270
04DE60
2B2240
635F40
760810
1CE900
ENDCHAR
STARTCHAR Ohorn
ENCODING 416
SWIDTH 600 0
DWIDTH 5 0
BBX 6 6 0 0
BITMAP
000071
07ED90
4A1550
910370
931B30
3DD600
ENDCHAR
STARTCHAR ohorn
ENCODING 417
SWIDTH 600 0
DWIDTH 5 0
BBX 5 5 0 0
BITMAP
000080
09ED50
661820
931B20
3DE600
ENDCHAR
STARTCHAR Uhorn
ENCODING 431
SWIDTH 600 0
DWIDTH 5 0
BBX 6 6 0 0
BITMAP
000018
0901A1
270460
530820
752B00
3DE400
ENDCHAR
STARTCHAR uhorn
ENCODING 432
SWIDTH 600 0
DWIDTH 5 0
BBX 6 5 0 0
BITMAP
000063
2705D1
540930
735D00
5E9900
ENDCHAR
STARTCHAR uni01C2
ENCODING 450
SWIDTH 600 0
DWIDTH 5 0
BBX 5 8 0 -2
BITMAP
004400
007200
009000
3FFF20
009000
7FFD00
045000
081000
ENDCHAR
STARTCHAR uni01CD
ENCODING 461
SWIDTH 600 0
DWIDTH 5 0
BBX 5 7 0 0
BITMAP
007720
000000
008700
036800
090900
5FFD00
B10A00
ENDCHAR
STARTCHAR uni01CE
ENCODING 462
SWIDTH 600 0
DWIDTH 5 0
BBX 5 6 0 0
BITMAP
007620
000000
09EB50
571920
833C00
4EBA00
ENDCHAR
STARTCHAR uni01CF
ENCODING 463
SWIDTH 600 0
DWIDTH 5 0
BBX 5 7 0 0
BITMAP
007720
000000
0BFF80
009100
009000
037000
AFF900
ENDCHAR
STARTCHAR uni01D0
ENCODING 464
SWIDTH 600 0
DWIDTH 5 0
BBX 4 6 0 0
BITMAP
0186
0000
2FD0
0070
0271
02E9
ENDCHAR
STARTCHAR uni01D1
ENCODING 465
SWIDTH 600 0
DWIDTH 5 0
BBX 5 7 0 0
BITMAP
007720
000000
07EC20
4A1570
910370
931B20
3DE500
ENDCHAR
STARTCHAR uni01D2
ENCODING 466
SWIDTH 600 0
DWIDTH 5 0
BBX 5 6 0 0
BITMAP
008710
000000
09EA00
661930
931B10
3DD500
ENDCHAR
STARTCHAR uni01D3
ENCODING 467
SWIDTH 600 0
DWIDTH 5 0
BBX 5 7 0 0
BITMAP
007720
000000
090190
270460
530830
752C00
3DE500
ENDCHAR
STARTCHAR uni01D4
ENCODING 468
SWIDTH 600 0
DWIDTH 5 0
BBX 5 6 0 0
BITMAP
018710
000000
270540
540910
735D00
5E9900
ENDCHAR
STARTCHAR uni01D5
ENCODING 469
SWIDTH 600 0
DWIDTH 5 0
BBX 5 9 0 0
BITMAP
00BF40
000000
007610
000000
090190
270460
530830
752C00
3DE500
ENDCHAR
STARTCHAR uni01D6
ENCODING 470
SWIDTH 600 0
DWIDTH 5 0
BBX 5 8 0 0
BITMAP
00DF20
000000
016700
000000
270540
540910
735D00
5E9900
ENDCHAR
STARTCHAR uni01D7
ENCODING 471
SWIDTH 600 0
DWIDTH 5 0
BBX 5 8 0 0
BITMAP
000700
007610
000000
090190
270460
530830
752C00
3DE500
ENDCHAR
STARTCHAR uni01D8
ENCODING 472
SWIDTH 600 0
DWIDTH 5 0
BBX 5 7 0 0
BITMAP
000600
016700
000000
270540
540910
735D00
5E9900
ENDCHAR
STARTCHAR uni01D9
ENCODING 473
SWIDTH 600 0
DWIDTH 5 0
BBX 5 8 0 0
BITMAP
005720
007610
000000
090190
270460
530830
752C00
3DE500
ENDCHAR
STARTCHAR uni01DA
ENCODING 474
SWIDTH 600 0
DWIDTH 5 0
BBX 5 7 0 0
BITMAP
006710
016700
000000
270540
540910
735D00
5E9900
ENDCHAR
STARTCHAR uni01DB
ENCODING 475
SWIDTH 600 0
DWIDTH 5 0
BBX 5 8 0 0
BITMAP
003300
007610
000000
090190
270460
530830
752C00
3DE500
ENDCHAR
STARTCHAR uni01DC
ENCODING 476
SWIDTH 600 0
DWIDTH 5 0
BBX 5 7 0 0
BITMAP
004200
016700
000000
270540
540910
735D00
5E9900
ENDCHAR
STARTCHAR uni01E2
ENCODING 482
SWIDTH 600 0
DWIDTH 5 0
BBX 7 7 -1 0
BITMAP
0000FF10
00000000
0008FF20
00486000
0186F600
08FE0000
390CF400
ENDCHAR
STARTCHAR uni01E3
ENCODING 483
SWIDTH 600 0
DWIDTH 5 0
BBX 6 6 -1 0
BITMAP
002FE0
000000
03E9D9
036EDB
1B9A32
1EBBD2
ENDCHAR
STARTCHAR Gcaron
ENCODING 486
SWIDTH 600 0
DWIDTH 5 0
BBX 5 7 0 0
BITMAP
005730
000000
04DD20
2B2230
635F40
760810
1CE900
ENDCHAR
STARTCHAR gcaron
ENCODING 487
SWIDTH 600 0
DWIDTH 5 0
BBX 5 8 0 -2
BITMAP
007620
000000
09EB50
581920
831B00
5EDB00
324800
7EC200
ENDCHAR
STARTCHAR uni01EA
ENCODING 490
SWIDTH 600 0
DWIDTH 5 0
BBX 5 7 0 -2
BITMAP
07EC10
491570
910370
931B20
3EE600
061000
0D4000
ENDCHAR
STARTCHAR uni01EB
ENCODING 491
SWIDTH 600 0
DWIDTH 5 0
BBX 5 6 0 -2
BITMAP
09EA00
661930
931B10
3EE600
061000
0D4000
ENDCHAR
STARTCHAR uni01F4
ENCODING 500
SWIDTH 600 0
DWIDTH 5 0
BBX 5 7 0 0
BITMAP
000720
000000
04DD20
2B2230
635F40
760810
1CE900
ENDCHAR
STARTCHAR uni01F5
ENCODING 501
SWIDTH 600 0
DWIDTH 5 0
BBX 5 8 0 -2
BITMAP
000910
005400
09EB50
581920
831B00
5EDB00
324800
7EC200
ENDCHAR
STARTCHAR uni01F8
ENCODING 504
SWIDTH 600 0
DWIDTH 5 0
BBX 5 7 0 0
BITMAP
005300
000000
0C1180
196450
458720
727900
903B00
ENDCHAR
STARTCHAR uni01F9
ENCODING 505
SWIDTH 600 0
DWIDTH 5 0
BBX 5 6 0 0
BITMAP
008100
002600
1ACE10
3C2730
640800
910900
ENDCHAR
STARTCHAR Aringacute
ENCODING 506
SWIDTH 600 0
DWIDTH 5 0
BBX 5 7 0 0
BITMAP
000410
007B00
009700
039800
091900
5FFD00
B10A00
ENDCHAR
STARTCHAR aringacute
ENCODING 507
SWIDTH 600 0
DWIDTH 5 0
BBX 5 7 0 0
BITMAP
000600
008C00
009A00
09EB50
571820
832B00
4EBA00
ENDCHAR
STARTCHAR AEacute
ENCODING 508
SWIDTH 600 0
DWIDTH 5 0
BBX 7 7 -1 0
BITMAP
00002700
00000000
0008FF20
00486000
0186F600
08FE0000
390CF400
ENDCHAR
STARTCHAR aeacute
ENCODING 509
SWIDTH 600 0
DWIDTH 5 0
BBX 6 6 -1 0
BITMAP
000090
000630
03E9D9
036EDB
1B9A32
1EBBD2
ENDCHAR
STARTCHAR Oslashacute
ENCODING 510
SWIDTH 600 0
DWIDTH 5 0
BBX 5 8 0 -1
BITMAP
002710
000010
07EC80
4A3970
928470
882B20
9DE500
100000
ENDCHAR
STARTCHAR oslashacute
ENCODING 511
SWIDTH 600 0
DWIDTH 5 0
BBX 5 6 0 0
BITMAP
000900
006300
09EC40
677A30
985B10
9DD500
ENDCHAR
STARTCHAR uni0218
ENCODING 536
SWIDTH 600 0
DWIDTH 5 0
BBX 5 7 0 -2
BITMAP
07EA00
0A1510
02A400
521B00
2CE600
066000
0D4000
ENDCHAR
STARTCHAR uni0219
ENCODING 537
SWIDTH 600 0
DWIDTH 5 0
BBX 4 6 0 -2
BITMAP
0AE7
0A55
4358
1CE7
0660
0D40
ENDCHAR
STARTCHAR uni021A
ENCODING 538
SWIDTH 600 0
DWIDTH 5 0
BBX 5 7 0 -2
BITMAP
2FFFE0
009100
009000
018000
055000
093000
2D2000
ENDCHAR
STARTCHAR uni021B
ENCODING 539
SWIDTH 600 0
DWIDTH 5 0
BBX 5 7 0 -2
BITMAP
018000
5FFF50
063000
091200
08E800
01B000
088000
ENDCHAR
STARTCHAR uni0237
ENCODING 567
SWIDTH 600 0
DWIDTH 5 0
BBX 4 6 0 -2
BITMAP
0EF7
0044
0081
00A0
23A0
CD30
ENDCHAR
STARTCHAR uni0243
ENCODING 579
SWIDTH 600 0
DWIDTH 5 0
BBX 5 5 0 0
BITMAP
0FFF10
261A10
EF7720
722B00
9FD500
ENDCHAR
STARTCHAR uni0250
ENCODING 592
SWIDTH 600 0
DWIDTH 5 0
BBX 5 4 0 0
BITMAP
1BDE20
4FF900
742300
4EC300
ENDCHAR
STARTCHAR uni0251
ENCODING 593
SWIDTH 600 0
DWIDTH 5 0
BBX 5 4 0 0
BITMAP
09EB50
571920
833C00
4EBA00
ENDCHAR
STARTCHAR uni0252
ENCODING 594
SWIDTH 600 0
DWIDTH 5 0
BBX 5 4 0 0
BITMAP
1BDD10
3A1840
651A10
8CE600
ENDCHAR
STARTCHAR uni0253
ENCODING 595
SWIDTH 600 0
DWIDTH 5 0
BBX 5 6 0 0
BITMAP
05E600
0B2100
1CDD10
4A1840
651A10
8CE600
ENDCHAR
STARTCHAR uni0254
ENCODING 596
SWIDTH 600 0
DWIDTH 5 0
BBX 5 4 0 0
BITMAP
09E900
141B10
412B00
4EC300
ENDCHAR
STARTCHAR uni0255
ENCODING 597
SWIDTH 600 0
DWIDTH 5 0
BBX 5 5 0 -1
BITMAP
08EB00
58CE20
5D4900
3CE600
700000
ENDCHAR
STARTCHAR uni0256
ENCODING 598
SWIDTH 600 0
DWIDTH 5 0
BBX 5 8 0 -2
BITMAP
000090
000180
09EC50
571920
833C00
4EBA00
001900
000E20
ENDCHAR
STARTCHAR uni0257
ENCODING 599
SWIDTH 600 0
DWIDTH 5 0
BBX 6 6 0 0
BITMAP
0000A7
0001A0
09EC60
571930
833C00
4EBA00
ENDCHAR
STARTCHAR uni0258
ENCODING 600
SWIDTH 600 0
DWIDTH 5 0
BBX 5 4 0 0
BITMAP
0AEB00
5FFF30
221B10
2DD500
ENDCHAR
STARTCHAR uni0259
ENCODING 601
SWIDTH 600 0
DWIDTH 5 0
BBX 5 4 0 0
BITMAP
07EB00
031830
8FFF10
4ED500
ENDCHAR
STARTCHAR uni025A
ENCODING 602
SWIDTH 600 0
DWIDTH 5 0
BBX 5 4 0 0
BITMAP
2DD210
14AAD0
A4A200
AE6000
ENDCHAR
STARTCHAR uni025B
ENCODING 603
SWIDTH 600 0
DWIDTH 5 0
BBX 5 4 0 0
BITMAP
0BFA00
1DF510
851300
4DE500
ENDCHAR
STARTCHAR uni025C
ENCODING 604
SWIDTH 600 0
DWIDTH 5 0
BBX 4 4 0 0
BITMAP
08ED
08F9
321B
2DE6
ENDCHAR
STARTCHAR uni025E
ENCODING 606
SWIDTH 600 0
DWIDTH 5 0
BBX 5 4 0 0
BITMAP
09ED10
66DA00
931B00
3DE700
ENDCHAR
STARTCHAR uni025F
ENCODING 607
SWIDTH 600 0
DWIDTH 5 0
BBX 5 6 0 -2
BITMAP
0EF700
004400
0EFF60
009000
22B000
CE4000
ENDCHAR
STARTCHAR uni0260
ENCODING 608
SWIDTH 600 0
DWIDTH 5 0
BBX 6 7 0 -2
BITMAP
0000C5
09EB80
581930
842C10
4ECB00
314900
7EC200
ENDCHAR
STARTCHAR uni0261
ENCODING 609
SWIDTH 600 0
DWIDTH 5 0
BBX 5 6 0 -2
BITMAP
09EB50
581920
831B00
5EDB00
324800
7EC200
ENDCHAR
STARTCHAR uni0262
ENCODING 610
SWIDTH 600 0
DWIDTH 5 0
BBX 5 4 0 0
BITMAP
08EB00
481310
758F00
2CE900
ENDCHAR
STARTCHAR uni0263
ENCODING 611
SWIDTH 600 0
DWIDTH 5 0
BBX 5 6 0 -2
BITMAP
360450
090900
086200
078000
078000
1E6000
ENDCHAR
STARTCHAR uni0264
ENCODING 612
SWIDTH 600 0
DWIDTH 5 0
BBX 5 4 0 0
BITMAP
2E8D60
059300
274700
1ED200
ENDCHAR
STARTCHAR uni0265
ENCODING 613
SWIDTH 600 0
DWIDTH 5 0
BBX 5 6 0 -2
BITMAP
270550
540920
734D00
5F9A00
001800
003600
ENDCHAR
STARTCHAR uni0266
ENCODING 614
SWIDTH 600 0
DWIDTH 5 0
BBX 5 6 0 0
BITMAP
05E600
0B2100
1BCE10
4C2720
640800
900900
ENDCHAR
STARTCHAR uni0267
ENCODING 615
SWIDTH 600 0
DWIDTH 5 0
BBX 5 8 0 -2
BITMAP
05E600
0B2100
1BCE10
4C2730
640810
900A00
002900
00E400
ENDCHAR
STARTCHAR uni0268
ENCODING 616
SWIDTH 600 0
DWIDTH 5 0
BBX 4 6 0 0
BITMAP
0083
0000
2FC0
4FFD
0371
02E9
ENDCHAR
STARTCHAR uni026A
ENCODING 618
SWIDTH 600 0
DWIDTH 5 0
BBX 5 4 0 0
BITMAP
0EFF40
00A000
037000
AFF800
ENDCHAR
STARTCHAR uni026B
ENCODING 619
SWIDTH 600 0
DWIDTH 5 0
BBX 4 6 0 0
BITMAP
0CF1
0171
0DE8
26F6
0541
04E7
ENDCHAR
STARTCHAR uni026C
ENCODING 620
SWIDTH 600 0
DWIDTH 5 0
BBX 4 6 0 0
BITMAP
0CF1
2DB0
56A0
2EF9
0451
04E7
ENDCHAR
STARTCHAR uni026D
ENCODING 621
SWIDTH 600 0
DWIDTH 5 0
BBX 3 8 1 -2
BITMAP
CF10
0800
0800
1600
4400
7100
9110
8E30
ENDCHAR
STARTCHAR uni026E
ENCODING 622
SWIDTH 600 0
DWIDTH 5 0
BBX 5 8 0 -2
BITMAP
090000
090000
2FFF90
553510
83FB00
901A10
131A00
0BD400
ENDCHAR
STARTCHAR uni026F
ENCODING 623
SWIDTH 600 0
DWIDTH 5 0
BBX 5 4 0 0
BITMAP
639180
819550
957A20
CAEC00
ENDCHAR
STARTCHAR uni0270
ENCODING 624
SWIDTH 600 0
DWIDTH 5 0
BBX 5 6 0 -2
BITMAP
639180
819550
967A20
CAEC00
000900
000900
ENDCHAR
STARTCHAR uni0271
ENCODING 625
SWIDTH 600 0
DWIDTH 5 0
BBX 5 6 0 -2
BITMAP
5CCC60
85B470
A09540
936810
000B00
009800
ENDCHAR
STARTCHAR uni0272
ENCODING 626
SWIDTH 600 0
DWIDTH 5 0
BBX 6 6 -1 -2
BITMAP
01ACE1
03C273
064080
091090
0B0000
980000
ENDCHAR
STARTCHAR uni0273
ENCODING 627
SWIDTH 600 0
DWIDTH 5 0
BBX 5 6 0 -2
BITMAP
19CE10
3C2730
640800
910800
000800
000E20
ENDCHAR
STARTCHAR uni0274
ENCODING 628
SWIDTH 600 0
DWIDTH 5 0
BBX 5 4 0 0
BITMAP
0D1810
2A6900
549900
726800
ENDCHAR
STARTCHAR uni0275
ENCODING 629
SWIDTH 600 0
DWIDTH 5 0
BBX 5 4 0 0
BITMAP
09EA00
6FFF30
931B10
3DD500
ENDCHAR
STARTCHAR uni0276
ENCODING 630
SWIDTH 600 0
DWIDTH 5 0
BBX 5 4 0 0
BITMAP
2CF640
A37F50
B19000
9FFF50
ENDCHAR
STARTCHAR uni0278
ENCODING 632
SWIDTH 600 0
DWIDTH 5 0
BBX 5 8 0 -2
BITMAP
005500
007200
1BFC10
94A660
A38840
5EE800
082000
090000
ENDCHAR
STARTCHAR uni0279
ENCODING 633
SWIDTH 600 0
DWIDTH 5 0
BBX 4 4 0 0
BITMAP
0009
0019
11B7
9D74
ENDCHAR
STARTCHAR uni027A
ENCODING 634
SWIDTH 600 0
DWIDTH 5 0
BBX 5 6 0 0
BITMAP
000540
000910
000A00
001A00
11B700
9D7400
ENDCHAR
STARTCHAR uni027B
ENCODING 635
SWIDTH 600 0
DWIDTH 5 0
BBX 4 6 0 -2
BITMAP
0054
0091
12C0
9C90
0080
00D4
ENDCHAR
STARTCHAR uni027D
ENCODING 637
SWIDTH 600 0
DWIDTH 5 0
BBX 5 6 0 -2
BITMAP
086E40
0A8100
0A0000
180000
372000
1EB000
ENDCHAR
STARTCHAR uni027E
ENCODING 638
SWIDTH 600 0
DWIDTH 5 0
BBX 5 4 0 0
BITMAP
03DE40
0A3010
0A0000
280000
ENDCHAR
STARTCHAR uni0280
ENCODING 640
SWIDTH 600 0
DWIDTH 5 0
BBX 4 4 0 0
BITMAP
0BFD
0EF9
2663
5428
ENDCHAR
STARTCHAR uni0281
ENCODING 641
SWIDTH 600 0
DWIDTH 5 0
BBX 4 4 0 0
BITMAP
091A
1CFC
6619
4EF6
ENDCHAR
STARTCHAR uni0282
ENCODING 642
SWIDTH 600 0
DWIDTH 5 0
BBX 4 6 0 -2
BITMAP
0AE7
0A55
4358
ADE7
9000
9700
ENDCHAR
STARTCHAR uni0283
ENCODING 643
SWIDTH 600 0
DWIDTH 5 0
BBX 5 8 0 -2
BITMAP
002DB0
007520
00A100
00B000
01A000
047000
184000
DC0000
ENDCHAR
STARTCHAR uni0284
ENCODING 644
SWIDTH 600 0
DWIDTH 5 0
BBX 5 8 0 -2
BITMAP
002DB0
008420
00A000
4EFF10
018000
046000
183000
DB0000
ENDCHAR
STARTCHAR uni0287
ENCODING 647
SWIDTH 600 0
DWIDTH 5 0
BBX 4 5 0 -1
BITMAP
1CE3
0264
0081
AFFE
0080
ENDCHAR
STARTCHAR uni0288
ENCODING 648
SWIDTH 600 0
DWIDTH 5 0
BBX 5 7 0 -2
BITMAP
018000
5FFF50
063000
080000
080000
0A1100
0BE400
ENDCHAR
STARTCHAR uni0289
ENCODING 649
SWIDTH 600 0
DWIDTH 5 0
BBX 5 4 0 0
BITMAP
090810
CFFF80
465A00
3EA700
ENDCHAR
STARTCHAR uni028A
ENCODING 650
SWIDTH 600 0
DWIDTH 5 0
BBX 5 4 0 0
BITMAP
3F4F70
160800
742B00
4ED500
ENDCHAR
STARTCHAR uni028B
ENCODING 651
SWIDTH 600 0
DWIDTH 5 0
BBX 5 4 0 0
BITMAP
273E10
540730
742B00
4ED300
ENDCHAR
STARTCHAR uni028C
ENCODING 652
SWIDTH 600 0
DWIDTH 5 0
BBX 4 4 0 0
BITMAP
01C3
0746
2709
9009
ENDCHAR
STARTCHAR uni028D
ENCODING 653
SWIDTH 600 0
DWIDTH 5 0
BBX 6 4 -1 0
BITMAP
00D1C3
059593
095953
274554
ENDCHAR
STARTCHAR uni028E
ENCODING 654
SWIDTH 600 0
DWIDTH 5 0
BBX 5 6 0 0
BITMAP
0009E0
005400
01C300
075600
270900
900900
ENDCHAR
STARTCHAR uni028F
ENCODING 655
SWIDTH 600 0
DWIDTH 5 0
BBX 5 4 0 0
BITMAP
1A0830
0A6800
05D000
046000
ENDCHAR
STARTCHAR uni0290
ENCODING 656
SWIDTH 600 0
DWIDTH 5 0
BBX 5 6 0 -2
BITMAP
1FFF40
005500
172000
AFFB00
000A00
000D30
ENDCHAR
STARTCHAR uni0291
ENCODING 657
SWIDTH 600 0
DWIDTH 5 0
BBX 5 5 0 -1
BITMAP
1FFF20
006F50
177560
AFFC10
016000
ENDCHAR
STARTCHAR uni0292
ENCODING 658
SWIDTH 600 0
DWIDTH 5 0
BBX 5 6 0 -2
BITMAP
0DFC10
012000
0DE500
012900
515700
8EA100
ENDCHAR
STARTCHAR uni0294
ENCODING 660
SWIDTH 600 0
DWIDTH 5 0
BBX 4 6 1 0
BITMAP
5EC2
5175
0061
1610
4400
8100
ENDCHAR
STARTCHAR uni0295
ENCODING 661
SWIDTH 600 0
DWIDTH 5 0
BBX 4 6 1 0
BITMAP
4DD1
B224
8000
1800
0900
2700
ENDCHAR
STARTCHAR uni0298
ENCODING 664
SWIDTH 600 0
DWIDTH 5 0
BBX 5 6 0 0
BITMAP
04DC10
0C2650
45A350
620630
653B00
1DD300
ENDCHAR
STARTCHAR uni0299
ENCODING 665
SWIDTH 600 0
DWIDTH 5 0
BBX 4 4 0 0
BITMAP
0CFD
0FFA
361B
6FE6
ENDCHAR
STARTCHAR uni029C
ENCODING 668
SWIDTH 600 0
DWIDTH 5 0
BBX 5 4 0 0
BITMAP
180730
3FFF10
620A00
900900
ENDCHAR
STARTCHAR uni029D
ENCODING 669
SWIDTH 600 0
DWIDTH 5 0
BBX 4 9 0 -3
BITMAP
001A
0000
0EF7
0053
0090
9DA0
96A0
BCA0
0061
ENDCHAR
STARTCHAR uni029E
ENCODING 670
SWIDTH 600 0
DWIDTH 5 0
BBX 5 6 0 -2
BITMAP
370720
095E00
077A00
751900
003600
006300
ENDCHAR
STARTCHAR uni029F
ENCODING 671
SWIDTH 600 0
DWIDTH 5 0
BBX 4 4 0 0
BITMAP
0720
0800
0800
1FFE
ENDCHAR
STARTCHAR uni02A1
ENCODING 673
SWIDTH 600 0
DWIDTH 5 0
BBX 5 6 0 0
BITMAP
05ED20
051640
003500
4FFE00
055000
082000
ENDCHAR
STARTCHAR uni02A2
ENCODING 674
SWIDTH 600 0
DWIDTH 5 0
BBX 5 6 0 0
BITMAP
05DD10
0A2240
063000
3EFF10
009000
027000
ENDCHAR
STARTCHAR uni02A4
ENCODING 676
SWIDTH 600 0
DWIDTH 5 0
BBX 7 8 -1 -2
BITMAP
00054000
00071000
05EDFF30
0A1A4400
1959F600
0DC51900
00124700
001CB100
ENDCHAR
STARTCHAR uni02A6
ENCODING 678
SWIDTH 600 0
DWIDTH 5 0
BBX 5 6 0 0
BITMAP
010000
080000
8FFF50
276710
640920
4EEB10
ENDCHAR
STARTCHAR uni02A7
ENCODING 679
SWIDTH 600 0
DWIDTH 5 0
BBX 6 8 0 -2
BITMAP
0001D5
072660
3FFF20
090900
170A00
2E6800
007500
06D100
ENDCHAR
STARTCHAR h.sups
ENCODING 688
SWIDTH 600 0
DWIDTH 5 0
BBX 4 6 1 2
BITMAP
0100
0700
0AD0
3771
5270
1020
ENDCHAR
STARTCHAR j.sups
ENCODING 690
SWIDTH 600 0
DWIDTH 5 0
BBX 3 5 1 2
BITMAP
0080
2F70
0240
1810
CA00
ENDCHAR
STARTCHAR r.sups
ENCODING 691
SWIDTH 600 0
DWIDTH 5 0
BBX 3 4 2 2
BITMAP
8D30
A200
7000
1000
ENDCHAR
STARTCHAR w.sups
ENCODING 695
SWIDTH 600 0
DWIDTH 5 0
BBX 4 3 1 3
BITMAP
7747
7AB3
93C0
ENDCHAR
STARTCHAR y.sups
ENCODING 696
SWIDTH 600 0
DWIDTH 5 0
BBX 4 4 1 2
BITMAP
2561
0770
1B10
C500
ENDCHAR
STARTCHAR uni02B9
ENCODING 697
SWIDTH 600 0
DWIDTH 5 0
BBX 2 2 2 4
BITMAP
45
70
ENDCHAR
STARTCHAR uni02BB
ENCODING 699
SWIDTH 600 0
DWIDTH 5 0
BBX 2 3 2 3
BITMAP
3A
B3
C3
ENDCHAR
STARTCHAR uni02BC
ENCODING 700
SWIDTH 600 0
DWIDTH 5 0
BBX 3 3 1 2
BITMAP
0860
0760
3A00
ENDCHAR
STARTCHAR uni02BE
ENCODING 702
SWIDTH 600 0
DWIDTH 5 0
BBX 2 3 2 4
BITMAP
84
18
64
ENDCHAR
STARTCHAR uni02BF
ENCODING 703
SWIDTH 600 0
DWIDTH 5 0
BBX 2 3 2 4
BITMAP
46
81
48
ENDCHAR
STARTCHAR uni02C1
ENCODING 705
SWIDTH 600 0
DWIDTH 5 0
BBX 3 4 2 3
BITMAP
7C10
8210
8100
5000
ENDCHAR
STARTCHAR circumflex
ENCODING 710
SWIDTH 600 0
DWIDTH 5 0
BBX 3 1 1 5
BITMAP
2670
ENDCHAR
STARTCHAR caron
ENCODING 711
SWIDTH 600 0
DWIDTH 5 0
BBX 3 1 2 5
BITMAP
8710
ENDCHAR
STARTCHAR uni02C8
ENCODING 712
SWIDTH 600 0
DWIDTH 5 0
BBX 2 3 2 3
BITMAP
65
71
30
ENDCHAR
STARTCHAR uni02C9
ENCODING 713
SWIDTH 600 0
DWIDTH 5 0
BBX 3 1 1 5
BITMAP
2FE0
ENDCHAR
STARTCHAR uni02CA
ENCODING 714
SWIDTH 600 0
DWIDTH 5 0
BBX 2 2 2 4
BITMAP
09
63
ENDCHAR
STARTCHAR uni02CB
ENCODING 715
SWIDTH 600 0
DWIDTH 5 0
BBX 2 2 2 4
BITMAP
80
45
ENDCHAR
STARTCHAR uni02CC
ENCODING 716
SWIDTH 600 0
DWIDTH 5 0
BBX 2 3 1 -2
BITMAP
53
81
B0
ENDCHAR
STARTCHAR uni02D0
ENCODING 720
SWIDTH 600 0
DWIDTH 5 0
BBX 3 4 1 0
BITMAP
0A10
0000
0000
5600
ENDCHAR
STARTCHAR uni02D1
ENCODING 721
SWIDTH 600 0
DWIDTH 5 0
BBX 2 1 2 3
BITMAP
A1
ENDCHAR
STARTCHAR breve
ENCODING 728
SWIDTH 600 0
DWIDTH 5 0
BBX 4 2 1 4
BITMAP
3663
0CA0
ENDCHAR
STARTCHAR dotaccent
ENCODING 729
SWIDTH 600 0
DWIDTH 5 0
BBX 2 1 2 5
BITMAP
65
ENDCHAR
STARTCHAR ring
ENCODING 730
SWIDTH 600 0
DWIDTH 5 0
BBX 2 3 2 4
BITMAP
89
88
B7
ENDCHAR
STARTCHAR ogonek
ENCODING 731
SWIDTH 600 0
DWIDTH 5 0
BBX 2 2 1 -2
BITMAP
51
D4
ENDCHAR
STARTCHAR tilde
ENCODING 732
SWIDTH 600 0
DWIDTH 5 0
BBX 4 2 1 4
BITMAP
1833
52D2
ENDCHAR
STARTCHAR hungarumlaut
ENCODING 733
SWIDTH 600 0
DWIDTH 5 0
BBX 3 2 2 4
BITMAP
3560
7610
ENDCHAR
STARTCHAR uni02DE
ENCODING 734
SWIDTH 600 0
DWIDTH 5 0
BBX 3 2 1 2
BITMAP
2900
0570
ENDCHAR
STARTCHAR uni02E0
ENCODING 736
SWIDTH 600 0
DWIDTH 5 0
BBX 4 4 1 2
BITMAP
2452
0860
0810
1D00
ENDCHAR
STARTCHAR l.sups
ENCODING 737
SWIDTH 600 0
DWIDTH 5 0
BBX 2 4 2 3
BITMAP
96
22
50
79
ENDCHAR
STARTCHAR s.sups
ENCODING 738
SWIDTH 600 0
DWIDTH 5 0
BBX 3 3 1 3
BITMAP
0D90
2020
2E80
ENDCHAR
STARTCHAR x.sups
ENCODING 739
SWIDTH 600 0
DWIDTH 5 0
BBX 3 3 1 3
BITMAP
0770
0A30
3140
ENDCHAR
STARTCHAR uni02E4
ENCODING 740
SWIDTH 600 0
DWIDTH 5 0
BBX 3 5 2 2
BITMAP
7C10
8210
8100
6000
3000
ENDCHAR
STARTCHAR uni0300
ENCODING 768
SWIDTH 600 0
DWIDTH 5 0
BBX 2 2 2 4
BITMAP
80
45
ENDCHAR
STARTCHAR uni0301
ENCODING 769
SWIDTH 600 0
DWIDTH 5 0
BBX 2 2 2 4
BITMAP
09
63
ENDCHAR
STARTCHAR uni0302
ENCODING 770
SWIDTH 600 0
DWIDTH 5 0
BBX 3 1 1 5
BITMAP
2670
ENDCHAR
STARTCHAR uni0303
ENCODING 771
SWIDTH 600 0
DWIDTH 5 0
BBX 4 2 1 4
BITMAP
1833
52D2
ENDCHAR
STARTCHAR uni0304
ENCODING 772
SWIDTH 600 0
DWIDTH 5 0
BBX 3 1 1 5
BITMAP
2FE0
ENDCHAR
STARTCHAR uni0305
ENCODING 773
SWIDTH 600 0
DWIDTH 5 0
BBX 3 1 1 5
BITMAP
2FE0
ENDCHAR
STARTCHAR uni0306
ENCODING 774
SWIDTH 600 0
DWIDTH 5 0
BBX 4 2 1 4
BITMAP
3663
0CA0
ENDCHAR
STARTCHAR uni0307
ENCODING 775
SWIDTH 600 0
DWIDTH 5 0
BBX 2 1 2 5
BITMAP
65
ENDCHAR
STARTCHAR uni0308
ENCODING 776
SWIDTH 600 0
DWIDTH 5 0
BBX 3 1 1 5
BITMAP
2780
ENDCHAR
STARTCHAR uni0309
ENCODING 777
SWIDTH 600 0
DWIDTH 5 0
BBX 2 3 2 4
BITMAP
76
28
63
ENDCHAR
STARTCHAR uni030A
ENCODING 778
SWIDTH 600 0
DWIDTH 5 0
BBX 2 3 2 4
BITMAP
89
88
B7
ENDCHAR
STARTCHAR uni030B
ENCODING 779
SWIDTH 600 0
DWIDTH 5 0
BBX 3 2 2 4
BITMAP
3560
7610
ENDCHAR
STARTCHAR uni030C
ENCODING 780
SWIDTH 600 0
DWIDTH 5 0
BBX 3 1 2 5
BITMAP
8710
ENDCHAR
STARTCHAR uni030F
ENCODING 783
SWIDTH 600 0
DWIDTH 5 0
BBX 3 2 1 4
BITMAP
7430
3460
ENDCHAR
STARTCHAR uni0310
ENCODING 784
SWIDTH 600 0
DWIDTH 5 0
BBX 4 3 1 4
BITMAP
0360
3564
1DA0
ENDCHAR
STARTCHAR uni0311
ENCODING 785
SWIDTH 600 0
DWIDTH 5 0
BBX 4 2 1 4
BITMAP
0BB0
4481
ENDCHAR
STARTCHAR uni0312
ENCODING 786
SWIDTH 600 0
DWIDTH 5 0
BBX 2 2 2 4
BITMAP
32
82
ENDCHAR
STARTCHAR uni0313
ENCODING 787
SWIDTH 600 0
DWIDTH 5 0
BBX 2 2 2 4
BITMAP
55
42
ENDCHAR
STARTCHAR uni0318
ENCODING 792
SWIDTH 600 0
DWIDTH 5 0
BBX 2 3 1 -3
BITMAP
04
E5
12
ENDCHAR
STARTCHAR uni0319
ENCODING 793
SWIDTH 600 0
DWIDTH 5 0
BBX 3 3 0 -3
BITMAP
0300
0F40
1200
ENDCHAR
STARTCHAR uni031A
ENCODING 794
SWIDTH 600 0
DWIDTH 5 0
BBX 2 2 2 4
BITMAP
4F
04
ENDCHAR
STARTCHAR uni031B
ENCODING 795
SWIDTH 600 0
DWIDTH 5 0
BBX 2 2 2 3
BITMAP
09
69
ENDCHAR
STARTCHAR uni031C
ENCODING 796
SWIDTH 600 0
DWIDTH 5 0
BBX 2 2 1 -2
BITMAP
A2
A0
ENDCHAR
STARTCHAR uni031D
ENCODING 797
SWIDTH 600 0
DWIDTH 5 0
BBX 3 1 0 -2
BITMAP
2F50
ENDCHAR
STARTCHAR uni031E
ENCODING 798
SWIDTH 600 0
DWIDTH 5 0
BBX 3 1 0 -2
BITMAP
1F70
ENDCHAR
STARTCHAR uni031F
ENCODING 799
SWIDTH 600 0
DWIDTH 5 0
BBX 3 3 0 -3
BITMAP
0300
1F60
0300
ENDCHAR
STARTCHAR uni0320
ENCODING 800
SWIDTH 600 0
DWIDTH 5 0
BBX 3 1 0 -2
BITMAP
1F60
ENDCHAR
STARTCHAR uni0323
ENCODING 803
SWIDTH 600 0
DWIDTH 5 0
BBX 2 1 1 -2
BITMAP
A1
ENDCHAR
STARTCHAR uni0324
ENCODING 804
SWIDTH 600 0
DWIDTH 5 0
BBX 3 1 0 -1
BITMAP
5380
ENDCHAR
STARTCHAR uni0325
ENCODING 805
SWIDTH 600 0
DWIDTH 5 0
BBX 3 3 0 -3
BITMAP
0C50
3670
1D30
ENDCHAR
STARTCHAR uni0326
ENCODING 806
SWIDTH 600 0
DWIDTH 5 0
BBX 3 2 0 -2
BITMAP
0930
2D10
ENDCHAR
STARTCHAR uni0327
ENCODING 807
SWIDTH 600 0
DWIDTH 5 0
BBX 3 4 0 -4
BITMAP
0510
0920
0630
2B00
ENDCHAR
STARTCHAR uni0328
ENCODING 808
SWIDTH 600 0
DWIDTH 5 0
BBX 2 2 1 -2
BITMAP
51
D4
ENDCHAR
STARTCHAR uni0329
ENCODING 809
SWIDTH 600 0
DWIDTH 5 0
BBX 1 2 1 -2
BITMAP
70
80
ENDCHAR
STARTCHAR uni032A
ENCODING 810
SWIDTH 600 0
DWIDTH 5 0
BBX 3 2 0 -2
BITMAP
4FA0
4140
ENDCHAR
STARTCHAR uni032C
ENCODING 812
SWIDTH 600 0
DWIDTH 5 0
BBX 3 1 0 -1
BITMAP
2760
ENDCHAR
STARTCHAR uni032E
ENCODING 814
SWIDTH 600 0
DWIDTH 5 0
BBX 3 2 0 -2
BITMAP
6280
2E60
ENDCHAR
STARTCHAR uni032F
ENCODING 815
SWIDTH 600 0
DWIDTH 5 0
BBX 3 2 0 -2
BITMAP
2D70
7280
ENDCHAR
STARTCHAR uni0330
ENCODING 816
SWIDTH 600 0
DWIDTH 5 0
BBX 4 2 0 -2
BITMAP
3741
64C0
ENDCHAR
STARTCHAR uni0331
ENCODING 817
SWIDTH 600 0
DWIDTH 5 0
BBX 3 1 0 -1
BITMAP
6FA0
ENDCHAR
STARTCHAR uni0334
ENCODING 820
SWIDTH 600 0
DWIDTH 5 0
BBX 4 3 0 1
BITMAP
0101
0D78
24A6
ENDCHAR
STARTCHAR uni0339
ENCODING 825
SWIDTH 600 0
DWIDTH 5 0
BBX 2 2 1 -2
BITMAP
81
B1
ENDCHAR
STARTCHAR uni033A
ENCODING 826
SWIDTH 600 0
DWIDTH 5 0
BBX 3 2 0 -2
BITMAP
3140
5F90
ENDCHAR
STARTCHAR uni033B
ENCODING 827
SWIDTH 600 0
DWIDTH 5 0
BBX 3 2 0 -2
BITMAP
4FA0
5F80
ENDCHAR
STARTCHAR uni033C
ENCODING 828
SWIDTH 600 0
DWIDTH 5 0
BBX 3 2 0 -2
BITMAP
6BB0
6870
ENDCHAR
STARTCHAR uni033D
ENCODING 829
SWIDTH 600 0
DWIDTH 5 0
BBX 2 2 2 4
BITMAP
65
22
ENDCHAR
STARTCHAR uni0342
ENCODING 834
SWIDTH 600 0
DWIDTH 5 0
BBX 4 2 1 4
BITMAP
1833
52D2
ENDCHAR
STARTCHAR uni0345
ENCODING 837
SWIDTH 600 0
DWIDTH 5 0
BBX 2 1 1 -2
BITMAP
74
ENDCHAR
STARTCHAR uni035F
ENCODING 863
SWIDTH 600 0
DWIDTH 5 0
BBX 9 1 -3 -2
BITMAP
3FFFFFFF90
ENDCHAR
STARTCHAR uni0361
ENCODING 865
SWIDTH 600 0
DWIDTH 5 0
BBX 8 2 -1 4
BITMAP
04BEEB40
68311384
ENDCHAR
STARTCHAR pi
ENCODING 960
SWIDTH 600 0
DWIDTH 5 0
BBX 5 4 0 0
BITMAP
6FFFB0
080800
171700
632D00
ENDCHAR
STARTCHAR a.sups
ENCODING 7491
SWIDTH 600 0
DWIDTH 5 0
BBX 3 3 1 3
BITMAP
2DB0
7270
6D30
ENDCHAR
STARTCHAR b.sups
ENCODING 7495
SWIDTH 600 0
DWIDTH 5 0
BBX 4 4 1 3
BITMAP
0400
1CD0
5491
3D90
ENDCHAR
STARTCHAR d.sups
ENCODING 7496
SWIDTH 600 0
DWIDTH 5 0
BBX 4 4 1 3
BITMAP
0022
2DB1
8280
6D30
ENDCHAR
STARTCHAR e.sups
ENCODING 7497
SWIDTH 600 0
DWIDTH 5 0
BBX 3 3 1 3
BITMAP
1CB0
6FF0
4E60
ENDCHAR
STARTCHAR g.sups
ENCODING 7501
SWIDTH 600 0
DWIDTH 5 0
BBX 3 4 1 2
BITMAP
2DB0
7380
7E90
7E40
ENDCHAR
STARTCHAR k.sups
ENCODING 7503
SWIDTH 600 0
DWIDTH 5 0
BBX 4 5 1 3
BITMAP
0100
0700
0761
3970
3150
ENDCHAR
STARTCHAR m.sups
ENCODING 7504
SWIDTH 600 0
DWIDTH 5 0
BBX 5 4 0 2
BITMAP
08DC70
096370
257160
111110
ENDCHAR
STARTCHAR o.sups
ENCODING 7506
SWIDTH 600 0
DWIDTH 5 0
BBX 3 3 1 3
BITMAP
2DC0
7390
5E80
ENDCHAR
STARTCHAR p.sups
ENCODING 7510
SWIDTH 600 0
DWIDTH 5 0
BBX 4 4 1 2
BITMAP
2BE1
5582
7C90
4000
ENDCHAR
STARTCHAR t.sups
ENCODING 7511
SWIDTH 600 0
DWIDTH 5 0
BBX 4 4 1 3
BITMAP
0410
3FF2
0710
0B90
ENDCHAR
STARTCHAR u.sups
ENCODING 7512
SWIDTH 600 0
DWIDTH 5 0
BBX 4 3 1 3
BITMAP
3471
6290
6E80
ENDCHAR
STARTCHAR v.sups
ENCODING 7515
SWIDTH 600 0
DWIDTH 5 0
BBX 4 3 1 3
BITMAP
3581
0A70
0C10
ENDCHAR
STARTCHAR c.sups
ENCODING 7580
SWIDTH 600 0
DWIDTH 5 0
BBX 3 3 1 3
BITMAP
1BB0
5530
3E60
ENDCHAR
STARTCHAR f.sups
ENCODING 7584
SWIDTH 600 0
DWIDTH 5 0
BBX 3 5 2 2
BITMAP
2D70
FF30
7000
7000
1000
ENDCHAR
STARTCHAR z.sups
ENCODING 7611
SWIDTH 600 0
DWIDTH 5 0
BBX 3 3 1 3
BITMAP
2FB0
0210
4EB0
ENDCHAR
STARTCHAR uni1E06
ENCODING 7686
SWIDTH 600 0
DWIDTH 5 0
BBX 5 6 0 -1
BITMAP
0BFD30
0B6920
2CAA00
531A10
9FE800
4FC000
ENDCHAR
STARTCHAR uni1E07
ENCODING 7687
SWIDTH 600 0
DWIDTH 5 0
BBX 5 7 0 -1
BITMAP
090000
0A0000
1CDD10
4A1840
751A10
8CE600
3FD000
ENDCHAR
STARTCHAR uni1E0C
ENCODING 7692
SWIDTH 600 0
DWIDTH 5 0
BBX 5 7 0 -2
BITMAP
0DEA10
190760
550450
713B20
BFC400
000000
0B0000
ENDCHAR
STARTCHAR uni1E0D
ENCODING 7693
SWIDTH 600 0
DWIDTH 5 0
BBX 5 8 0 -2
BITMAP
000090
000180
09EC50
571920
833C00
4EB900
000000
092000
ENDCHAR
STARTCHAR uni1E0E
ENCODING 7694
SWIDTH 600 0
DWIDTH 5 0
BBX 5 6 0 -1
BITMAP
0DEA10
190760
550450
713B20
BFC400
7F9000
ENDCHAR
STARTCHAR uni1E0F
ENCODING 7695
SWIDTH 600 0
DWIDTH 5 0
BBX 5 7 0 -1
BITMAP
000090
000180
09EC50
571920
833C00
4EB900
4FC000
ENDCHAR
STARTCHAR uni1E10
ENCODING 7696
SWIDTH 600 0
DWIDTH 5 0
BBX 5 9 0 -4
BITMAP
0DEA10
190760
550450
713B20
BFC400
060000
0B1000
081000
4A0000
ENDCHAR
STARTCHAR uni1E11
ENCODING 7697
SWIDTH 600 0
DWIDTH 5 0
BBX 5 10 0 -4
BITMAP
000090
000180
09EC50
571920
833C00
4EB900
050000
0A2000
073000
3B0000
ENDCHAR
STARTCHAR uni1E16
ENCODING 7702
SWIDTH 600 0
DWIDTH 5 0
BBX 5 9 0 0
BITMAP
000430
000000
00AF60
000000
09FFB0
0A0000
0FFD00
360000
6FFD00
ENDCHAR
STARTCHAR uni1E17
ENCODING 7703
SWIDTH 600 0
DWIDTH 5 0
BBX 5 8 0 0
BITMAP
000600
000000
01FF00
000000
08EB00
5FFF20
751400
2DE400
ENDCHAR
STARTCHAR uni1E20
ENCODING 7712
SWIDTH 600 0
DWIDTH 5 0
BBX 5 7 0 0
BITMAP
00BF50
000000
04DD20
2B2230
635F40
760810
1CE900
ENDCHAR
STARTCHAR uni1E21
ENCODING 7713
SWIDTH 600 0
DWIDTH 5 0
BBX 5 8 0 -2
BITMAP
00FF10
000000
09EB50
581920
831B00
5EDB00
324800
7EC200
ENDCHAR
STARTCHAR uni1E24
ENCODING 7716
SWIDTH 600 0
DWIDTH 5 0
BBX 5 7 0 -2
BITMAP
090190
270460
5FFF30
820800
A00900
000000
0A1000
ENDCHAR
STARTCHAR uni1E25
ENCODING 7717
SWIDTH 600 0
DWIDTH 5 0
BBX 5 8 0 -2
BITMAP
090000
090000
1BCE10
4C2730
740800
910900
000000
083000
ENDCHAR
STARTCHAR uni1E26
ENCODING 7718
SWIDTH 600 0
DWIDTH 5 0
BBX 5 7 0 0
BITMAP
008620
000000
090190
270460
5FFF30
820800
A00900
ENDCHAR
STARTCHAR uni1E27
ENCODING 7719
SWIDTH 600 0
DWIDTH 5 0
BBX 5 7 0 0
BITMAP
268000
090000
090000
1BCE10
4C2730
740800
910900
ENDCHAR
STARTCHAR uni1E28
ENCODING 7720
SWIDTH 600 0
DWIDTH 5 0
BBX 6 9 -1 -4
BITMAP
009019
027046
05FFF3
082080
0A0090
060000
1A0000
090000
850000
ENDCHAR
STARTCHAR uni1E29
ENCODING 7721
SWIDTH 600 0
DWIDTH 5 0
BBX 6 10 -1 -4
BITMAP
009000
009000
01BCE1
04C273
074080
091090
060000
0B0000
090000
770000
ENDCHAR
STARTCHAR uni1E2A
ENCODING 7722
SWIDTH 600 0
DWIDTH 5 0
BBX 5 7 0 -2
BITMAP
090190
270460
5FFF30
820800
A00900
628000
2E6000
ENDCHAR
STARTCHAR uni1E2B
ENCODING 7723
SWIDTH 600 0
DWIDTH 5 0
BBX 5 8 0 -2
BITMAP
090000
090000
1BCE10
4C2730
740800
910900
447100
1D8000
ENDCHAR
STARTCHAR uni1E32
ENCODING 7730
SWIDTH 600 0
DWIDTH 5 0
BBX 5 7 0 -2
BITMAP
090560
095500
2CB100
553700
810A00
000000
047000
ENDCHAR
STARTCHAR uni1E33
ENCODING 7731
SWIDTH 600 0
DWIDTH 5 0
BBX 5 8 0 -2
BITMAP
081000
090000
090830
29B200
5A5500
820900
000000
056000
ENDCHAR
STARTCHAR uni1E34
ENCODING 7732
SWIDTH 600 0
DWIDTH 5 0
BBX 5 6 0 -1
BITMAP
090560
095500
2CB100
553700
810A00
0EF200
ENDCHAR
STARTCHAR uni1E35
ENCODING 7733
SWIDTH 600 0
DWIDTH 5 0
BBX 5 7 0 -1
BITMAP
081000
090000
090830
29B200
5A5500
820900
0FF100
ENDCHAR
STARTCHAR uni1E36
ENCODING 7734
SWIDTH 600 0
DWIDTH 5 0
BBX 5 7 0 -2
BITMAP
045000
072000
080000
080000
1FFF10
000000
028000
ENDCHAR
STARTCHAR uni1E37
ENCODING 7735
SWIDTH 600 0
DWIDTH 5 0
BBX 3 8 1 -2
BITMAP
CF10
0700
0700
2500
5410
4E70
0000
1A00
ENDCHAR
STARTCHAR uni1E38
ENCODING 7736
SWIDTH 600 0
DWIDTH 5 0
BBX 5 9 0 -2
BITMAP
0AF500
000000
045000
072000
080000
080000
1FFF10
000000
028000
ENDCHAR
STARTCHAR uni1E39
ENCODING 7737
SWIDTH 600 0
DWIDTH 5 0
BBX 3 9 1 -2
BITMAP
1FF0
CF10
0700
0700
2500
5410
4E70
0000
1A00
ENDCHAR
STARTCHAR uni1E3A
ENCODING 7738
SWIDTH 600 0
DWIDTH 5 0
BBX 5 6 0 -1
BITMAP
045000
072000
080000
080000
1FFF10
0CF400
ENDCHAR
STARTCHAR uni1E3B
ENCODING 7739
SWIDTH 600 0
DWIDTH 5 0
BBX 3 7 1 -1
BITMAP
CF10
0700
0700
2500
5410
4E70
AF60
ENDCHAR
STARTCHAR uni1E3E
ENCODING 7742
SWIDTH 600 0
DWIDTH 5 0
BBX 5 7 0 0
BITMAP
002710
000000
0D0590
2C2960
57A730
826800
800900
ENDCHAR
STARTCHAR uni1E3F
ENCODING 7743
SWIDTH 600 0
DWIDTH 5 0
BBX 5 6 0 0
BITMAP
000900
005400
5CCC60
85B460
A09530
936810
ENDCHAR
STARTCHAR uni1E40
ENCODING 7744
SWIDTH 600 0
DWIDTH 5 0
BBX 5 7 0 0
BITMAP
003600
000000
0D0590
2C2960
57A730
826800
800900
ENDCHAR
STARTCHAR uni1E41
ENCODING 7745
SWIDTH 600 0
DWIDTH 5 0
BBX 5 6 0 0
BITMAP
005600
000000
5CCC60
85B460
A09530
936810
ENDCHAR
STARTCHAR uni1E42
ENCODING 7746
SWIDTH 600 0
DWIDTH 5 0
BBX 5 7 0 -2
BITMAP
0D0590
2C2960
57A730
826800
800900
000000
0A1000
ENDCHAR
STARTCHAR uni1E43
ENCODING 7747
SWIDTH 600 0
DWIDTH 5 0
BBX 5 6 0 -2
BITMAP
5CCC60
85B460
A09530
936810
000000
092000
ENDCHAR
STARTCHAR uni1E44
ENCODING 7748
SWIDTH 600 0
DWIDTH 5 0
BBX 5 7 0 0
BITMAP
003600
000000
0C1180
196450
458720
727900
903B00
ENDCHAR
STARTCHAR uni1E45
ENCODING 7749
SWIDTH 600 0
DWIDTH 5 0
BBX 5 6 0 0
BITMAP
005600
000000
1ACE10
3C2730
640800
910900
ENDCHAR
STARTCHAR uni1E46
ENCODING 7750
SWIDTH 600 0
DWIDTH 5 0
BBX 5 7 0 -2
BITMAP
0C1180
196450
458720
727900
903B00
000000
092000
ENDCHAR
STARTCHAR uni1E47
ENCODING 7751
SWIDTH 600 0
DWIDTH 5 0
BBX 5 6 0 -2
BITMAP
1ACE10
3C2730
640800
910900
000000
083000
ENDCHAR
STARTCHAR uni1E48
ENCODING 7752
SWIDTH 600 0
DWIDTH 5 0
BBX 5 6 0 -1
BITMAP
0C1180
196450
458720
727900
903B00
4FC000
ENDCHAR
STARTCHAR uni1E49
ENCODING 7753
SWIDTH 600 0
DWIDTH 5 0
BBX 5 5 0 -1
BITMAP
1ACE10
3C2730
640800
910900
3FD000
ENDCHAR
STARTCHAR uni1E52
ENCODING 7762
SWIDTH 600 0
DWIDTH 5 0
BBX 5 9 0 0
BITMAP
000610
000000
00EF20
000000
07EC20
4A1570
910370
931B20
3DE500
ENDCHAR
STARTCHAR uni1E53
ENCODING 7763
SWIDTH 600 0
DWIDTH 5 0
BBX 5 8 0 0
BITMAP
000600
000000
02FE00
000000
09EA00
661930
931B10
3DD500
ENDCHAR
STARTCHAR uni1E58
ENCODING 7768
SWIDTH 600 0
DWIDTH 5 0
BBX 5 7 0 0
BITMAP
003600
000000
0CFD20
090750
3FF900
638200
902800
ENDCHAR
STARTCHAR uni1E59
ENCODING 7769
SWIDTH 600 0
DWIDTH 5 0
BBX 5 6 0 0
BITMAP
002900
000000
087E40
0B8100
0A0000
280000
ENDCHAR
STARTCHAR uni1E5A
ENCODING 7770
SWIDTH 600 0
DWIDTH 5 0
BBX 5 7 0 -2
BITMAP
0CFD20
090750
3FF900
638200
902800
000000
074000
ENDCHAR
STARTCHAR uni1E5B
ENCODING 7771
SWIDTH 600 0
DWIDTH 5 0
BBX 5 6 0 -2
BITMAP
087E40
0B8100
0A0000
280000
000000
740000
ENDCHAR
STARTCHAR uni1E5C
ENCODING 7772
SWIDTH 600 0
DWIDTH 5 0
BBX 5 9 0 -2
BITMAP
00EF20
000000
0CFD20
090750
3FF900
638200
902800
000000
074000
ENDCHAR
STARTCHAR uni1E5D
ENCODING 7773
SWIDTH 600 0
DWIDTH 5 0
BBX 5 8 0 -2
BITMAP
00CF30
000000
087E40
0B8100
0A0000
280000
000000
740000
ENDCHAR
STARTCHAR uni1E5E
ENCODING 7774
SWIDTH 600 0
DWIDTH 5 0
BBX 5 6 0 -1
BITMAP
0CFD20
090750
3FF900
638200
902800
2FD000
ENDCHAR
STARTCHAR uni1E5F
ENCODING 7775
SWIDTH 600 0
DWIDTH 5 0
BBX 6 5 -1 -1
BITMAP
0087E4
00B810
00A000
028000
2FE000
ENDCHAR
STARTCHAR uni1E60
ENCODING 7776
SWIDTH 600 0
DWIDTH 5 0
BBX 5 7 0 0
BITMAP
004500
000000
07EA00
0A1510
02A400
521B00
2CE600
ENDCHAR
STARTCHAR uni1E61
ENCODING 7777
SWIDTH 600 0
DWIDTH 5 0
BBX 4 6 0 0
BITMAP
0065
0000
0AE7
0A55
4358
1CE7
ENDCHAR
STARTCHAR uni1E62
ENCODING 7778
SWIDTH 600 0
DWIDTH 5 0
BBX 5 7 0 -2
BITMAP
07EA00
0A1510
02A400
521B00
2CE600
000000
074000
ENDCHAR
STARTCHAR uni1E63
ENCODING 7779
SWIDTH 600 0
DWIDTH 5 0
BBX 4 6 0 -2
BITMAP
0AE7
0A55
4358
1CE7
0000
0740
ENDCHAR
STARTCHAR uni1E6C
ENCODING 7788
SWIDTH 600 0
DWIDTH 5 0
BBX 5 7 0 -2
BITMAP
2FFFE0
009100
009000
018000
055000
000000
0A1000
ENDCHAR
STARTCHAR uni1E6D
ENCODING 7789
SWIDTH 600 0
DWIDTH 5 0
BBX 5 7 0 -2
BITMAP
018000
5FFF50
063000
091200
08E800
000000
029000
ENDCHAR
STARTCHAR uni1E6E
ENCODING 7790
SWIDTH 600 0
DWIDTH 5 0
BBX 5 6 0 -1
BITMAP
2FFFE0
009100
009000
018000
055000
5FA000
ENDCHAR
STARTCHAR uni1E6F
ENCODING 7791
SWIDTH 600 0
DWIDTH 5 0
BBX 5 6 0 -1
BITMAP
018000
5FFF50
063000
091200
08E800
0CF400
ENDCHAR
STARTCHAR uni1E7E
ENCODING 7806
SWIDTH 600 0
DWIDTH 5 0
BBX 4 7 1 -2
BITMAP
900A
9063
9190
9720
8700
0000
A100
ENDCHAR
STARTCHAR uni1E7F
ENCODING 7807
SWIDTH 600 0
DWIDTH 5 0
BBX 5 6 0 -2
BITMAP
360450
090900
096300
088000
000000
092000
ENDCHAR
STARTCHAR Wgrave
ENCODING 7808
SWIDTH 600 0
DWIDTH 5 0
BBX 5 7 0 0
BITMAP
006300
000000
450080
536090
64B450
786910
865900
ENDCHAR
STARTCHAR wgrave
ENCODING 7809
SWIDTH 600 0
DWIDTH 5 0
BBX 5 6 0 0
BITMAP
009000
004400
909090
93B350
887800
867800
ENDCHAR
STARTCHAR Wacute
ENCODING 7810
SWIDTH 600 0
DWIDTH 5 0
BBX 5 7 0 0
BITMAP
002710
000000
450080
536090
64B450
786910
865900
ENDCHAR
STARTCHAR wacute
ENCODING 7811
SWIDTH 600 0
DWIDTH 5 0
BBX 5 6 0 0
BITMAP
000900
006300
909090
93B350
887800
867800
ENDCHAR
STARTCHAR Wdieresis
ENCODING 7812
SWIDTH 600 0
DWIDTH 5 0
BBX 5 7 0 0
BITMAP
008620
000000
450080
536090
64B450
786910
865900
ENDCHAR
STARTCHAR wdieresis
ENCODING 7813
SWIDTH 600 0
DWIDTH 5 0
BBX 5 6 0 0
BITMAP
026800
000000
909090
93B350
887800
867800
ENDCHAR
STARTCHAR uni1E8E
ENCODING 7822
SWIDTH 600 0
DWIDTH 5 0
BBX 4 7 1 0
BITMAP
0450
0000
9019
A1A2
6A60
2C00
4500
ENDCHAR
STARTCHAR uni1E8F
ENCODING 7823
SWIDTH 600 0
DWIDTH 5 0
BBX 6 8 -1 -2
BITMAP
000740
000000
036046
009090
009530
008800
007200
4E6000
ENDCHAR
STARTCHAR uni1E90
ENCODING 7824
SWIDTH 600 0
DWIDTH 5 0
BBX 5 7 0 0
BITMAP
017800
000000
0EFF90
001810
028100
380000
CFFE00
ENDCHAR
STARTCHAR uni1E91
ENCODING 7825
SWIDTH 600 0
DWIDTH 5 0
BBX 5 6 0 0
BITMAP
026700
000000
1FFF40
005500
172000
AFFB00
ENDCHAR
STARTCHAR uni1E92
ENCODING 7826
SWIDTH 600 0
DWIDTH 5 0
BBX 5 7 0 -2
BITMAP
0EFF90
001810
028100
380000
CFFE00
000000
074000
ENDCHAR
STARTCHAR uni1E93
ENCODING 7827
SWIDTH 600 0
DWIDTH 5 0
BBX 5 6 0 -2
BITMAP
1FFF40
005500
172000
AFFB00
000000
074000
ENDCHAR
STARTCHAR uni1E94
ENCODING 7828
SWIDTH 600 0
DWIDTH 5 0
BBX 5 6 0 -1
BITMAP
0EFF90
001810
028100
380000
CFFE00
2FE000
ENDCHAR
STARTCHAR uni1E95
ENCODING 7829
SWIDTH 600 0
DWIDTH 5 0
BBX 5 5 0 -1
BITMAP
1FFF40
005500
172000
AFFB00
2FD000
ENDCHAR
STARTCHAR uni1E96
ENCODING 7830
SWIDTH 600 0
DWIDTH 5 0
BBX 5 7 0 -1
BITMAP
090000
090000
1BCE10
4C2730
740800
910900
3FD000
ENDCHAR
STARTCHAR uni1E97
ENCODING 7831
SWIDTH 600 0
DWIDTH 5 0
BBX 5 7 0 0
BITMAP
062800
000000
018000
5FFF50
063000
091200
08E800
ENDCHAR
STARTCHAR uni1E9E
ENCODING 7838
SWIDTH 600 0
DWIDTH 5 0
BBX 5 5 0 0
BITMAP
06ED20
1C2720
567A00
841840
A3EC10
ENDCHAR
STARTCHAR uni1EA0
ENCODING 7840
SWIDTH 600 0
DWIDTH 5 0
BBX 4 7 0 -2
BITMAP
0087
0368
0909
5FFD
B10A
0000
0820
ENDCHAR
STARTCHAR uni1EA1
ENCODING 7841
SWIDTH 600 0
DWIDTH 5 0
BBX 5 6 0 -2
BITMAP
09EB50
571920
833C00
4EBA00
000000
092000
ENDCHAR
STARTCHAR uni1EA2
ENCODING 7842
SWIDTH 600 0
DWIDTH 5 0
BBX 4 8 0 0
BITMAP
0066
0019
0054
0087
0368
0909
5FFD
B10A
ENDCHAR
STARTCHAR uni1EA3
ENCODING 7843
SWIDTH 600 0
DWIDTH 5 0
BBX 5 7 0 0
BITMAP
005700
001900
004500
09EB50
571920
833C00
4EBA00
ENDCHAR
STARTCHAR uni1EA4
ENCODING 7844
SWIDTH 600 0
DWIDTH 5 0
BBX 5 7 0 0
BITMAP
006860
000000
008700
036800
090900
5FFD00
B10A00
ENDCHAR
STARTCHAR uni1EA5
ENCODING 7845
SWIDTH 600 0
DWIDTH 5 0
BBX 5 6 0 0
BITMAP
007860
000000
09EB50
571920
833C00
4EBA00
ENDCHAR
STARTCHAR uni1EA6
ENCODING 7846
SWIDTH 600 0
DWIDTH 5 0
BBX 4 7 0 0
BITMAP
0398
0000
0087
0368
0909
5FFD
B10A
ENDCHAR
STARTCHAR uni1EA7
ENCODING 7847
SWIDTH 600 0
DWIDTH 5 0
BBX 5 6 0 0
BITMAP
068800
000000
09EB50
571920
833C00
4EBA00
ENDCHAR
STARTCHAR uni1EA8
ENCODING 7848
SWIDTH 600 0
DWIDTH 5 0
BBX 5 9 0 0
BITMAP
0001A0
000090
006880
000000
008700
036800
090900
5FFD00
B10A00
ENDCHAR
STARTCHAR uni1EA9
ENCODING 7849
SWIDTH 600 0
DWIDTH 5 0
BBX 5 8 0 0
BITMAP
000190
000090
007870
000000
09EB50
571920
833C00
4EBA00
ENDCHAR
STARTCHAR uni1EAA
ENCODING 7850
SWIDTH 600 0
DWIDTH 5 0
BBX 5 8 0 0
BITMAP
009650
00CF30
000000
008700
036800
090900
5FFD00
B10A00
ENDCHAR
STARTCHAR uni1EAB
ENCODING 7851
SWIDTH 600 0
DWIDTH 5 0
BBX 5 7 0 0
BITMAP
008540
00DF20
000000
09EB50
571920
833C00
4EBA00
ENDCHAR
STARTCHAR uni1EAC
ENCODING 7852
SWIDTH 600 0
DWIDTH 5 0
BBX 5 9 0 -2
BITMAP
007810
000000
008700
036800
090900
5FFD00
B10A00
000000
082000
ENDCHAR
STARTCHAR uni1EAD
ENCODING 7853
SWIDTH 600 0
DWIDTH 5 0
BBX 5 8 0 -2
BITMAP
017810
000000
09EB50
571920
833C00
4EBA00
000000
092000
ENDCHAR
STARTCHAR uni1EAE
ENCODING 7854
SWIDTH 600 0
DWIDTH 5 0
BBX 5 8 0 0
BITMAP
000700
008440
009B00
008700
036800
090900
5FFD00
B10A00
ENDCHAR
STARTCHAR uni1EAF
ENCODING 7855
SWIDTH 600 0
DWIDTH 5 0
BBX 5 7 0 0
BITMAP
000700
017440
00BB00
09EB50
571920
833C00
4EBA00
ENDCHAR
STARTCHAR uni1EB0
ENCODING 7856
SWIDTH 600 0
DWIDTH 5 0
BBX 5 8 0 0
BITMAP
003400
008440
009B00
008700
036800
090900
5FFD00
B10A00
ENDCHAR
STARTCHAR uni1EB1
ENCODING 7857
SWIDTH 600 0
DWIDTH 5 0
BBX 5 7 0 0
BITMAP
003300
017440
00BB00
09EB50
571920
833C00
4EBA00
ENDCHAR
STARTCHAR uni1EB2
ENCODING 7858
SWIDTH 600 0
DWIDTH 5 0
BBX 5 10 0 0
BITMAP
001A00
000900
001700
008440
009B00
008700
036800
090900
5FFD00
B10A00
ENDCHAR
STARTCHAR uni1EB3
ENCODING 7859
SWIDTH 600 0
DWIDTH 5 0
BBX 5 9 0 0
BITMAP
002900
000900
002700
017440
00BB00
09EB50
571920
833C00
4EBA00
ENDCHAR
STARTCHAR uni1EB4
ENCODING 7860
SWIDTH 600 0
DWIDTH 5 0
BBX 5 8 0 0
BITMAP
009650
00EF60
009B00
008700
036800
090900
5FFD00
B10A00
ENDCHAR
STARTCHAR uni1EB5
ENCODING 7861
SWIDTH 600 0
DWIDTH 5 0
BBX 5 7 0 0
BITMAP
009550
00EF40
00BA00
09EB50
571920
833C00
4EBA00
ENDCHAR
STARTCHAR uni1EB6
ENCODING 7862
SWIDTH 600 0
DWIDTH 5 0
BBX 5 9 0 -2
BITMAP
008440
00AC00
008700
036800
090900
5FFD00
B10A00
000000
082000
ENDCHAR
STARTCHAR uni1EB7
ENCODING 7863
SWIDTH 600 0
DWIDTH 5 0
BBX 5 8 0 -2
BITMAP
017440
00BB00
09EB50
571920
833C00
4EBA00
000000
092000
ENDCHAR
STARTCHAR uni1EB8
ENCODING 7864
SWIDTH 600 0
DWIDTH 5 0
BBX 5 7 0 -2
BITMAP
09FFB0
0A0000
0FFD00
360000
6FFD00
000000
056000
ENDCHAR
STARTCHAR uni1EB9
ENCODING 7865
SWIDTH 600 0
DWIDTH 5 0
BBX 5 6 0 -2
BITMAP
08EB00
5FFF20
751400
2DE400
000000
074000
ENDCHAR
STARTCHAR uni1EBA
ENCODING 7866
SWIDTH 600 0
DWIDTH 5 0
BBX 5 8 0 0
BITMAP
002A00
000A00
001700
09FFB0
0A0000
0FFD00
360000
6FFD00
ENDCHAR
STARTCHAR uni1EBB
ENCODING 7867
SWIDTH 600 0
DWIDTH 5 0
BBX 5 7 0 0
BITMAP
006700
001900
005400
08EB00
5FFF20
751400
2DE400
ENDCHAR
STARTCHAR uni1EBC
ENCODING 7868
SWIDTH 600 0
DWIDTH 5 0
BBX 5 7 0 0
BITMAP
00A870
007A70
09FFB0
0A0000
0FFD00
360000
6FFD00
ENDCHAR
STARTCHAR uni1EBD
ENCODING 7869
SWIDTH 600 0
DWIDTH 5 0
BBX 5 6 0 0
BITMAP
008340
043D20
08EB00
5FFF20
751400
2DE400
ENDCHAR
STARTCHAR uni1EBE
ENCODING 7870
SWIDTH 600 0
DWIDTH 5 0
BBX 6 7 0 0
BITMAP
004871
000000
09FFB0
0A0000
0FFD00
360000
6FFD00
ENDCHAR
STARTCHAR uni1EBF
ENCODING 7871
SWIDTH 600 0
DWIDTH 5 0
BBX 5 6 0 0
BITMAP
007860
000000
08EB00
5FFF20
751400
2DE400
ENDCHAR
STARTCHAR uni1EC0
ENCODING 7872
SWIDTH 600 0
DWIDTH 5 0
BBX 5 7 0 0
BITMAP
019820
000000
09FFB0
0A0000
0FFD00
360000
6FFD00
ENDCHAR
STARTCHAR uni1EC1
ENCODING 7873
SWIDTH 600 0
DWIDTH 5 0
BBX 5 6 0 0
BITMAP
068700
000000
08EB00
5FFF20
751400
2DE400
ENDCHAR
STARTCHAR uni1EC2
ENCODING 7874
SWIDTH 600 0
DWIDTH 5 0
BBX 6 9 0 0
BITMAP
0000A0
000071
0048A0
000000
09FFB0
0A0000
0FFD00
360000
6FFD00
ENDCHAR
STARTCHAR uni1EC3
ENCODING 7875
SWIDTH 600 0
DWIDTH 5 0
BBX 5 8 0 0
BITMAP
000280
000090
007960
000000
08EB00
5FFF20
751400
2DE400
ENDCHAR
STARTCHAR uni1EC4
ENCODING 7876
SWIDTH 600 0
DWIDTH 5 0
BBX 5 8 0 0
BITMAP
005960
00AF90
000000
09FFB0
0A0000
0FFD00
360000
6FFD00
ENDCHAR
STARTCHAR uni1EC5
ENCODING 7877
SWIDTH 600 0
DWIDTH 5 0
BBX 5 7 0 0
BITMAP
009530
00EF10
000000
08EB00
5FFF20
751400
2DE400
ENDCHAR
STARTCHAR uni1EC6
ENCODING 7878
SWIDTH 600 0
DWIDTH 5 0
BBX 5 9 0 -2
BITMAP
005730
000000
09FFB0
0A0000
0FFD00
360000
6FFD00
000000
056000
ENDCHAR
STARTCHAR uni1EC7
ENCODING 7879
SWIDTH 600 0
DWIDTH 5 0
BBX 5 8 0 -2
BITMAP
017700
000000
08EB00
5FFF20
751400
2DE400
000000
074000
ENDCHAR
STARTCHAR uni1EC8
ENCODING 7880
SWIDTH 600 0
DWIDTH 5 0
BBX 5 8 0 0
BITMAP
006600
001900
005400
0BFF80
009100
009000
037000
AFF900
ENDCHAR
STARTCHAR uni1EC9
ENCODING 7881
SWIDTH 600 0
DWIDTH 5 0
BBX 4 7 0 0
BITMAP
0084
0037
0072
2FD0
0070
0271
02E9
ENDCHAR
STARTCHAR uni1ECA
ENCODING 7882
SWIDTH 600 0
DWIDTH 5 0
BBX 5 7 0 -2
BITMAP
0BFF80
009100
009000
037000
AFF900
000000
0A1000
ENDCHAR
STARTCHAR uni1ECB
ENCODING 7883
SWIDTH 600 0
DWIDTH 5 0
BBX 4 8 0 -2
BITMAP
0083
0000
2FD0
0070
0271
02E9
0000
00B0
ENDCHAR
STARTCHAR uni1ECC
ENCODING 7884
SWIDTH 600 0
DWIDTH 5 0
BBX 5 7 0 -2
BITMAP
07EC20
4A1570
910370
931B20
3DE500
000000
0A1000
ENDCHAR
STARTCHAR uni1ECD
ENCODING 7885
SWIDTH 600 0
DWIDTH 5 0
BBX 5 6 0 -2
BITMAP
09EA00
661930
931B10
3DD500
000000
0A1000
ENDCHAR
STARTCHAR uni1ECE
ENCODING 7886
SWIDTH 600 0
DWIDTH 5 0
BBX 5 8 0 0
BITMAP
006600
001900
005400
07EC20
4A1570
910370
931B20
3DE500
ENDCHAR
STARTCHAR uni1ECF
ENCODING 7887
SWIDTH 600 0
DWIDTH 5 0
BBX 5 7 0 0
BITMAP
007600
002800
006300
09EA00
661930
931B10
3DD500
ENDCHAR
STARTCHAR uni1ED0
ENCODING 7888
SWIDTH 600 0
DWIDTH 5 0
BBX 5 7 0 0
BITMAP
006860
000000
07EC20
4A1570
910370
931B20
3DE500
ENDCHAR
STARTCHAR uni1ED1
ENCODING 7889
SWIDTH 600 0
DWIDTH 5 0
BBX 5 6 0 0
BITMAP
017850
000000
09EA00
661930
931B10
3DD500
ENDCHAR
STARTCHAR uni1ED2
ENCODING 7890
SWIDTH 600 0
DWIDTH 5 0
BBX 5 7 0 0
BITMAP
039800
000000
07EC20
4A1570
910370
931B20
3DE500
ENDCHAR
STARTCHAR uni1ED3
ENCODING 7891
SWIDTH 600 0
DWIDTH 5 0
BBX 5 6 0 0
BITMAP
077700
000000
09EA00
661930
931B10
3DD500
ENDCHAR
STARTCHAR uni1ED4
ENCODING 7892
SWIDTH 600 0
DWIDTH 5 0
BBX 5 9 0 0
BITMAP
0001A0
000090
006880
000000
07EC20
4A1570
910370
931B20
3DE500
ENDCHAR
STARTCHAR uni1ED5
ENCODING 7893
SWIDTH 600 0
DWIDTH 5 0
BBX 5 8 0 0
BITMAP
000370
000080
017950
000000
09EA00
661930
931B10
3DD500
ENDCHAR
STARTCHAR uni1ED6
ENCODING 7894
SWIDTH 600 0
DWIDTH 5 0
BBX 5 8 0 0
BITMAP
009650
00CF30
000000
07EC20
4A1570
910370
931B20
3DE500
ENDCHAR
STARTCHAR uni1ED7
ENCODING 7895
SWIDTH 600 0
DWIDTH 5 0
BBX 5 7 0 0
BITMAP
00A530
01EF00
000000
09EA00
661930
931B10
3DD500
ENDCHAR
STARTCHAR uni1ED8
ENCODING 7896
SWIDTH 600 0
DWIDTH 5 0
BBX 5 9 0 -2
BITMAP
007810
000000
07EC20
4A1570
910370
931B20
3DE500
000000
0A1000
ENDCHAR
STARTCHAR uni1ED9
ENCODING 7897
SWIDTH 600 0
DWIDTH 5 0
BBX 5 8 0 -2
BITMAP
026700
000000
09EA00
661930
931B10
3DD500
000000
0A1000
ENDCHAR
STARTCHAR uni1EDA
ENCODING 7898
SWIDTH 600 0
DWIDTH 5 0
BBX 6 7 0 0
BITMAP
002710
000071
07ED90
4A1550
910370
931B30
3DD600
ENDCHAR
STARTCHAR uni1EDB
ENCODING 7899
SWIDTH 600 0
DWIDTH 5 0
BBX 5 6 0 0
BITMAP
000900
006380
09ED50
661820
931B20
3DE600
ENDCHAR
STARTCHAR uni1EDC
ENCODING 7900
SWIDTH 600 0
DWIDTH 5 0
BBX 6 7 0 0
BITMAP
005300
000071
07ED90
4A1550
910370
931B30
3DD600
ENDCHAR
STARTCHAR uni1EDD
ENCODING 7901
SWIDTH 600 0
DWIDTH 5 0
BBX 5 6 0 0
BITMAP
008000
004580
09ED50
661820
931B20
3DE600
ENDCHAR
STARTCHAR uni1EDE
ENCODING 7902
SWIDTH 600 0
DWIDTH 5 0
BBX 6 8 0 0
BITMAP
006600
001900
005471
07ED90
4A1550
910370
931B30
3DD600
ENDCHAR
STARTCHAR uni1EDF
ENCODING 7903
SWIDTH 600 0
DWIDTH 5 0
BBX 5 7 0 0
BITMAP
007600
002800
006380
09ED50
661820
931B20
3DE600
ENDCHAR
STARTCHAR uni1EE0
ENCODING 7904
SWIDTH 600 0
DWIDTH 5 0
BBX 6 7 0 0
BITMAP
03D540
063D81
07ED90
4A1550
910370
931B30
3DD600
ENDCHAR
STARTCHAR uni1EE1
ENCODING 7905
SWIDTH 600 0
DWIDTH 5 0
BBX 5 6 0 0
BITMAP
037410
064C80
09ED50
661820
931B20
3DE600
ENDCHAR
STARTCHAR uni1EE2
ENCODING 7906
SWIDTH 600 0
DWIDTH 5 0
BBX 6 8 0 -2
BITMAP
000071
07ED90
4A1550
910370
931B30
3DD600
000000
0A1000
ENDCHAR
STARTCHAR uni1EE3
ENCODING 7907
SWIDTH 600 0
DWIDTH 5 0
BBX 5 7 0 -2
BITMAP
000080
09ED50
661820
931B20
3DE600
000000
0A1000
ENDCHAR
STARTCHAR uni1EE4
ENCODING 7908
SWIDTH 600 0
DWIDTH 5 0
BBX 5 7 0 -2
BITMAP
090190
270460
530830
752C00
3DE500
000000
0A1000
ENDCHAR
STARTCHAR uni1EE5
ENCODING 7909
SWIDTH 600 0
DWIDTH 5 0
BBX 5 6 0 -2
BITMAP
270540
540910
735D00
5E9900
000000
092000
ENDCHAR
STARTCHAR uni1EE6
ENCODING 7910
SWIDTH 600 0
DWIDTH 5 0
BBX 5 8 0 0
BITMAP
006600
001900
005400
090190
270460
530830
752C00
3DE500
ENDCHAR
STARTCHAR uni1EE7
ENCODING 7911
SWIDTH 600 0
DWIDTH 5 0
BBX 5 7 0 0
BITMAP
007500
002800
006300
270540
540910
735D00
5E9900
ENDCHAR
STARTCHAR uni1EE8
ENCODING 7912
SWIDTH 600 0
DWIDTH 5 0
BBX 6 7 0 0
BITMAP
002710
000018
0901A1
270460
530820
752B00
3DE400
ENDCHAR
STARTCHAR uni1EE9
ENCODING 7913
SWIDTH 600 0
DWIDTH 5 0
BBX 6 6 0 0
BITMAP
000900
006363
2705D1
540930
735D00
5E9900
ENDCHAR
STARTCHAR uni1EEA
ENCODING 7914
SWIDTH 600 0
DWIDTH 5 0
BBX 6 7 0 0
BITMAP
005300
000018
0901A1
270460
530820
752B00
3DE400
ENDCHAR
STARTCHAR uni1EEB
ENCODING 7915
SWIDTH 600 0
DWIDTH 5 0
BBX 6 6 0 0
BITMAP
008000
004463
2705D1
540930
735D00
5E9900
ENDCHAR
STARTCHAR uni1EEC
ENCODING 7916
SWIDTH 600 0
DWIDTH 5 0
BBX 6 8 0 0
BITMAP
006600
001900
005418
0901A1
270460
530820
752B00
3DE400
ENDCHAR
STARTCHAR uni1EED
ENCODING 7917
SWIDTH 600 0
DWIDTH 5 0
BBX 6 7 0 0
BITMAP
007500
002800
006363
2705D1
540930
735D00
5E9900
ENDCHAR
STARTCHAR uni1EEE
ENCODING 7918
SWIDTH 600 0
DWIDTH 5 0
BBX 6 7 0 0
BITMAP
01D470
044D48
0901A1
270460
530820
752B00
3DE400
ENDCHAR
STARTCHAR uni1EEF
ENCODING 7919
SWIDTH 600 0
DWIDTH 5 0
BBX 6 6 0 0
BITMAP
018320
062D73
2705D1
540930
735D00
5E9900
ENDCHAR
STARTCHAR uni1EF0
ENCODING 7920
SWIDTH 600 0
DWIDTH 5 0
BBX 6 8 0 -2
BITMAP
000018
0901A1
270460
530820
752B00
3DE400
000000
0A1000
ENDCHAR
STARTCHAR uni1EF1
ENCODING 7921
SWIDTH 600 0
DWIDTH 5 0
BBX 6 7 0 -2
BITMAP
000063
2705D1
540930
735D00
5E9900
000000
092000
ENDCHAR
STARTCHAR Ygrave
ENCODING 7922
SWIDTH 600 0
DWIDTH 5 0
BBX 4 7 1 0
BITMAP
0620
0000
9019
A1A2
6A60
2C00
4500
ENDCHAR
STARTCHAR ygrave
ENCODING 7923
SWIDTH 600 0
DWIDTH 5 0
BBX 6 8 -1 -2
BITMAP
000900
000440
036046
009090
009530
008800
007200
4E6000
ENDCHAR
STARTCHAR uni1EF4
ENCODING 7924
SWIDTH 600 0
DWIDTH 5 0
BBX 4 7 1 -2
BITMAP
9019
A1A2
6A60
2C00
4500
0000
A100
ENDCHAR
STARTCHAR uni1EF5
ENCODING 7925
SWIDTH 600 0
DWIDTH 5 0
BBX 6 6 -1 -2
BITMAP
036046
009090
009530
008800
007200
4E6560
ENDCHAR
STARTCHAR uni1EF6
ENCODING 7926
SWIDTH 600 0
DWIDTH 5 0
BBX 4 8 1 0
BITMAP
0750
0280
0630
9019
A1A2
6A60
2C00
4500
ENDCHAR
STARTCHAR uni1EF7
ENCODING 7927
SWIDTH 600 0
DWIDTH 5 0
BBX 6 9 -1 -2
BITMAP
000750
000280
000730
036046
009090
009530
008800
007200
4E6000
ENDCHAR
STARTCHAR uni1EF8
ENCODING 7928
SWIDTH 600 0
DWIDTH 5 0
BBX 4 7 1 0
BITMAP
1E46
53D2
9019
A1A2
6A60
2C00
4500
ENDCHAR
STARTCHAR uni1EF9
ENCODING 7929
SWIDTH 600 0
DWIDTH 5 0
BBX 6 8 -1 -2
BITMAP
001833
0062D1
036046
009090
009530
008800
007200
4E6000
ENDCHAR
STARTCHAR uni2007
ENCODING 8199
SWIDTH 600 0
DWIDTH 5 0
BBX 1 1 0 0
BITMAP
00
ENDCHAR
STARTCHAR uni2010
ENCODING 8208
SWIDTH 600 0
DWIDTH 5 0
BBX 5 1 0 2
BITMAP
4FFF20
ENDCHAR
STARTCHAR figuredash
ENCODING 8210
SWIDTH 600 0
DWIDTH 5 0
BBX 5 1 0 2
BITMAP
7FFF10
ENDCHAR
STARTCHAR endash
ENCODING 8211
SWIDTH 600 0
DWIDTH 5 0
BBX 5 1 0 2
BITMAP
7FFF10
ENDCHAR
STARTCHAR emdash
ENCODING 8212
SWIDTH 600 0
DWIDTH 5 0
BBX 6 1 -1 2
BITMAP
1FFFFB
ENDCHAR
STARTCHAR uni2015
ENCODING 8213
SWIDTH 600 0
DWIDTH 5 0
BBX 6 1 -1 2
BITMAP
1FFFFB
ENDCHAR
STARTCHAR uni2016
ENCODING 8214
SWIDTH 600 0
DWIDTH 5 0
BBX 3 8 1 -2
BITMAP
8080
8080
8080
8080
8080
8080
8080
8080
ENDCHAR
STARTCHAR underscoredbl
ENCODING 8215
SWIDTH 600 0
DWIDTH 5 0
BBX 5 2 -1 -2
BITMAP
3FFFA0
6FFF70
ENDCHAR
STARTCHAR quoteleft
ENCODING 8216
SWIDTH 600 0
DWIDTH 5 0
BBX 2 3 2 3
BITMAP
3A
B3
C3
ENDCHAR
STARTCHAR quoteright
ENCODING 8217
SWIDTH 600 0
DWIDTH 5 0
BBX 3 3 1 2
BITMAP
0860
0760
3A00
ENDCHAR
STARTCHAR quotesinglbase
ENCODING 8218
SWIDTH 600 0
DWIDTH 5 0
BBX 2 3 1 -3
BITMAP
2D
2B
94
ENDCHAR
STARTCHAR quotereversed
ENCODING 8219
SWIDTH 600 0
DWIDTH 5 0
BBX 3 3 1 2
BITMAP
0C20
2A00
0810
ENDCHAR
STARTCHAR quotedblleft
ENCODING 8220
SWIDTH 600 0
DWIDTH 5 0
BBX 4 3 1 3
BITMAP
2B49
A4C2
B4D2
ENDCHAR
STARTCHAR quotedblright
ENCODING 8221
SWIDTH 600 0
DWIDTH 5 0
BBX 5 3 0 2
BITMAP
078950
068850
1B5900
ENDCHAR
STARTCHAR quotedblbase
ENCODING 8222
SWIDTH 600 0
DWIDTH 5 0
BBX 5 3 0 -3
BITMAP
078950
068850
1B5900
ENDCHAR
STARTCHAR dagger
ENCODING 8224
SWIDTH 600 0
DWIDTH 5 0
BBX 4 7 1 -1
BITMAP
0530
9FF1
0700
0700
1600
4400
4100
ENDCHAR
STARTCHAR daggerdbl
ENCODING 8225
SWIDTH 600 0
DWIDTH 5 0
BBX 5 7 0 -1
BITMAP
005300
08FF10
007000
008000
017000
3FF600
053000
ENDCHAR
STARTCHAR bullet
ENCODING 8226
SWIDTH 600 0
DWIDTH 5 0
BBX 3 2 1 1
BITMAP
8E50
AE30
ENDCHAR
STARTCHAR ellipsis
ENCODING 8230
SWIDTH 600 0
DWIDTH 5 0
BBX 6 1 -1 0
BITMAP
1B66B1
ENDCHAR
STARTCHAR uni202F
ENCODING 8239
SWIDTH 600 0
DWIDTH 5 0
BBX 1 1 0 0
BITMAP
00
ENDCHAR
STARTCHAR perthousand
ENCODING 8240
SWIDTH 600 0
DWIDTH 5 0
BBX 5 5 0 0
BITMAP
2D7000
3E6650
154000
AC7E10
CAAC00
ENDCHAR
STARTCHAR uni2032
ENCODING 8242
SWIDTH 600 0
DWIDTH 5 0
BBX 2 2 2 4
BITMAP
45
70
ENDCHAR
STARTCHAR uni2033
ENCODING 8243
SWIDTH 600 0
DWIDTH 5 0
BBX 4 2 1 4
BITMAP
0881
4370
ENDCHAR
STARTCHAR uni2035
ENCODING 8245
SWIDTH 600 0
DWIDTH 5 0
BBX 2 2 2 4
BITMAP
81
24
ENDCHAR
STARTCHAR guilsinglleft
ENCODING 8249
SWIDTH 600 0
DWIDTH 5 0
BBX 3 3 1 1
BITMAP
0710
6400
1700
ENDCHAR
STARTCHAR guilsinglright
ENCODING 8250
SWIDTH 600 0
DWIDTH 5 0
BBX 2 3 1 1
BITMAP
16
0A
53
ENDCHAR
STARTCHAR exclamdbl
ENCODING 8252
SWIDTH 600 0
DWIDTH 5 0
BBX 5 5 0 0
BITMAP
073630
080800
070700
000000
665700
ENDCHAR
STARTCHAR uni203D
ENCODING 8253
SWIDTH 600 0
DWIDTH 5 0
BBX 4 5 1 0
BITMAP
3DD1
4170
0810
0000
7500
ENDCHAR
STARTCHAR uni203E
ENCODING 8254
SWIDTH 600 0
DWIDTH 5 0
BBX 4 1 1 4
BITMAP
FFFB
ENDCHAR
STARTCHAR uni203F
ENCODING 8255
SWIDTH 600 0
DWIDTH 5 0
BBX 8 2 -2 -2
BITMAP
56202471
04CEC600
ENDCHAR
STARTCHAR fraction
ENCODING 8260
SWIDTH 600 0
DWIDTH 5 0
BBX 6 5 -1 0
BITMAP
000016
000050
000000
014000
170000
ENDCHAR
STARTCHAR uni2047
ENCODING 8263
SWIDTH 600 0
DWIDTH 5 0
BBX 5 5 0 0
BITMAP
2E8CB0
125260
250700
000000
936600
ENDCHAR
STARTCHAR uni2048
ENCODING 8264
SWIDTH 600 0
DWIDTH 5 0
BBX 5 5 0 0
BITMAP
2E8540
125810
250700
000000
934800
ENDCHAR
STARTCHAR uni2049
ENCODING 8265
SWIDTH 600 0
DWIDTH 5 0
BBX 5 5 0 0
BITMAP
082CB0
080260
070700
000000
756600
ENDCHAR
STARTCHAR zero.sups
ENCODING 8304
SWIDTH 600 0
DWIDTH 5 0
BBX 3 4 1 3
BITMAP
1CA0
5480
7280
3E50
ENDCHAR
STARTCHAR i.sups
ENCODING 8305
SWIDTH 600 0
DWIDTH 5 0
BBX 3 4 1 3
BITMAP
0440
4F10
0500
0990
ENDCHAR
STARTCHAR four.sups
ENCODING 8308
SWIDTH 600 0
DWIDTH 5 0
BBX 3 3 1 4
BITMAP
0420
2550
7FD0
ENDCHAR
STARTCHAR five.sups
ENCODING 8309
SWIDTH 600 0
DWIDTH 5 0
BBX 3 4 1 3
BITMAP
0BE0
0E70
3280
2E50
ENDCHAR
STARTCHAR six.sups
ENCODING 8310
SWIDTH 600 0
DWIDTH 5 0
BBX 3 4 1 3
BITMAP
0AC0
3E90
5580
2E50
ENDCHAR
STARTCHAR seven.sups
ENCODING 8311
SWIDTH 600 0
DWIDTH 5 0
BBX 3 3 2 4
BITMAP
FF20
2400
7000
ENDCHAR
STARTCHAR eight.sups
ENCODING 8312
SWIDTH 600 0
DWIDTH 5 0
BBX 3 4 1 3
BITMAP
0CA0
1E90
6480
3E60
ENDCHAR
STARTCHAR nine.sups
ENCODING 8313
SWIDTH 600 0
DWIDTH 5 0
BBX 3 4 1 3
BITMAP
0C80
3690
2EA0
4E40
ENDCHAR
STARTCHAR parenleft.sups
ENCODING 8317
SWIDTH 600 0
DWIDTH 5 0
BBX 2 4 2 3
BITMAP
15
70
70
60
ENDCHAR
STARTCHAR parenright.sups
ENCODING 8318
SWIDTH 600 0
DWIDTH 5 0
BBX 3 4 1 3
BITMAP
0420
0340
0610
1600
ENDCHAR
STARTCHAR n.sups
ENCODING 8319
SWIDTH 600 0
DWIDTH 5 0
BBX 4 4 1 2
BITMAP
1DD0
4771
6270
2020
ENDCHAR
STARTCHAR zero.subs
ENCODING 8320
SWIDTH 600 0
DWIDTH 5 0
BBX 4 4 0 -2
BITMAP
07D1
0844
1672
0C90
ENDCHAR
STARTCHAR one.subs
ENCODING 8321
SWIDTH 600 0
DWIDTH 5 0
BBX 4 4 0 -2
BITMAP
05A0
0070
0160
3FF3
ENDCHAR
STARTCHAR two.subs
ENCODING 8322
SWIDTH 600 0
DWIDTH 5 0
BBX 4 4 0 -2
BITMAP
05D1
0251
0330
2FE0
ENDCHAR
STARTCHAR three.subs
ENCODING 8323
SWIDTH 600 0
DWIDTH 5 0
BBX 4 4 0 -2
BITMAP
06E1
05C0
1390
0BA0
ENDCHAR
STARTCHAR four.subs
ENCODING 8324
SWIDTH 600 0
DWIDTH 5 0
BBX 4 3 0 -1
BITMAP
0150
0760
2FF3
ENDCHAR
STARTCHAR five.subs
ENCODING 8325
SWIDTH 600 0
DWIDTH 5 0
BBX 4 4 0 -2
BITMAP
06F5
09D0
1481
0BA0
ENDCHAR
STARTCHAR six.subs
ENCODING 8326
SWIDTH 600 0
DWIDTH 5 0
BBX 3 4 1 -2
BITMAP
5E30
CD10
9710
AB00
ENDCHAR
STARTCHAR seven.subs
ENCODING 8327
SWIDTH 600 0
DWIDTH 5 0
BBX 3 3 1 -1
BITMAP
9F70
0510
5200
ENDCHAR
STARTCHAR eight.subs
ENCODING 8328
SWIDTH 600 0
DWIDTH 5 0
BBX 4 4 0 -2
BITMAP
07E2
09D1
1880
0CB0
ENDCHAR
STARTCHAR nine.subs
ENCODING 8329
SWIDTH 600 0
DWIDTH 5 0
BBX 3 4 1 -2
BITMAP
7D10
8630
BE10
D800
ENDCHAR
STARTCHAR parenleft.subs
ENCODING 8333
SWIDTH 600 0
DWIDTH 5 0
BBX 2 4 1 -2
BITMAP
06
35
52
33
ENDCHAR
STARTCHAR parenright.subs
ENCODING 8334
SWIDTH 600 0
DWIDTH 5 0
BBX 2 4 1 -2
BITMAP
06
07
16
60
ENDCHAR
STARTCHAR uni0259.sups
ENCODING 8340
SWIDTH 600 0
DWIDTH 5 0
BBX 3 3 1 3
BITMAP
1CA0
7FE0
3E70
ENDCHAR
STARTCHAR colonmonetary
ENCODING 8353
SWIDTH 600 0
DWIDTH 5 0
BBX 5 7 0 -1
BITMAP
000420
03CF40
0C7540
374300
476600
0CE500
043000
ENDCHAR
STARTCHAR franc
ENCODING 8355
SWIDTH 600 0
DWIDTH 5 0
BBX 5 5 0 0
BITMAP
06FFA0
081000
0CFD00
090000
BFC000
ENDCHAR
STARTCHAR lira
ENCODING 8356
SWIDTH 600 0
DWIDTH 5 0
BBX 5 5 0 0
BITMAP
04ED10
3FFD30
062000
5FF800
AEFB00
ENDCHAR
STARTCHAR uni20A6
ENCODING 8358
SWIDTH 600 0
DWIDTH 5 0
BBX 5 5 0 0
BITMAP
085520
7FFF80
076700
9FFF50
437600
ENDCHAR
STARTCHAR peseta
ENCODING 8359
SWIDTH 600 0
DWIDTH 5 0
BBX 5 5 0 0
BITMAP
08FD20
4FFFB0
0DFA10
170000
540000
ENDCHAR
STARTCHAR uni20A9
ENCODING 8361
SWIDTH 600 0
DWIDTH 5 0
BBX 5 5 0 0
BITMAP
095280
089540
9FFF80
2A6700
396500
ENDCHAR
STARTCHAR dong
ENCODING 8363
SWIDTH 600 0
DWIDTH 5 0
BBX 5 7 0 0
BITMAP
000530
00AFA0
000700
1BE900
2ED700
000000
8FF700
ENDCHAR
STARTCHAR Euro
ENCODING 8364
SWIDTH 600 0
DWIDTH 5 0
BBX 5 5 0 0
BITMAP
06DF40
7FFE40
180000
AFFB00
0CE700
ENDCHAR
STARTCHAR uni20AE
ENCODING 8366
SWIDTH 600 0
DWIDTH 5 0
BBX 5 5 0 0
BITMAP
0DFFA0
009600
05C500
179000
045000
ENDCHAR
STARTCHAR uni20B1
ENCODING 8369
SWIDTH 600 0
DWIDTH 5 0
BBX 5 7 0 -2
BITMAP
07FA00
081920
4FFFC0
3C8A60
5D8D50
089900
046000
ENDCHAR
STARTCHAR uni20B2
ENCODING 8370
SWIDTH 600 0
DWIDTH 5 0
BBX 5 7 0 -1
BITMAP
000700
04DE20
1C3230
546F10
660900
1CE800
025000
ENDCHAR
STARTCHAR uni20B4
ENCODING 8372
SWIDTH 600 0
DWIDTH 5 0
BBX 5 5 0 0
BITMAP
02DD10
3FFF60
04B100
6FFF30
1ED300
ENDCHAR
STARTCHAR uni20B5
ENCODING 8373
SWIDTH 600 0
DWIDTH 5 0
BBX 5 7 0 -1
BITMAP
000500
03CE30
0B5540
375100
497500
0BE500
005000
ENDCHAR
STARTCHAR uni20B8
ENCODING 8376
SWIDTH 600 0
DWIDTH 5 0
BBX 5 5 0 0
BITMAP
0DFFA0
000000
1FFF70
009000
036000
ENDCHAR
STARTCHAR uni20B9
ENCODING 8377
SWIDTH 600 0
DWIDTH 5 0
BBX 5 5 0 0
BITMAP
0AFFA0
0DFF60
3FD600
037000
009200
ENDCHAR
STARTCHAR uni20BA
ENCODING 8378
SWIDTH 600 0
DWIDTH 5 0
BBX 5 5 0 0
BITMAP
046300
2A7400
3B5520
093A00
1EA200
ENDCHAR
STARTCHAR uni20BD
ENCODING 8381
SWIDTH 600 0
DWIDTH 5 0
BBX 5 5 0 0
BITMAP
02FF80
0652A0
9FFD40
090000
BFFE00
ENDCHAR
STARTCHAR uni2105
ENCODING 8453
SWIDTH 600 0
DWIDTH 5 0
BBX 6 5 -1 0
BITMAP
09D016
0D9050
0006E3
034945
150AC1
ENDCHAR
STARTCHAR uni2113
ENCODING 8467
SWIDTH 600 0
DWIDTH 5 0
BBX 5 6 0 0
BITMAP
007E10
00B620
037800
06C200
1D3200
07E400
ENDCHAR
STARTCHAR uni2116
ENCODING 8470
SWIDTH 600 0
DWIDTH 5 0
BBX 6 5 -1 0
BITMAP
0576CE
0779AB
097900
1877E7
649400
ENDCHAR
STARTCHAR uni2117
ENCODING 8471
SWIDTH 600 0
DWIDTH 5 0
BBX 5 5 0 0
BITMAP
07DD30
561270
53F950
871830
4ED600
ENDCHAR
STARTCHAR uni2120
ENCODING 8480
SWIDTH 600 0
DWIDTH 5 0
BBX 5 3 0 3
BITMAP
2D56A0
3878B0
5D6960
ENDCHAR
STARTCHAR trademark
ENCODING 8482
SWIDTH 600 0
DWIDTH 5 0
BBX 6 3 0 3
BITMAP
6FA892
0649C0
066870
ENDCHAR
STARTCHAR uni2126
ENCODING 8486
SWIDTH 600 0
DWIDTH 5 0
BBX 6 5 -1 0
BITMAP
008ED3
069148
091026
062160
3F78F2
ENDCHAR
STARTCHAR estimated
ENCODING 8494
SWIDTH 600 0
DWIDTH 5 0
BBX 5 5 0 0
BITMAP
1BE800
850840
BFFF80
851600
1BE300
ENDCHAR
STARTCHAR uni2150
ENCODING 8528
SWIDTH 600 0
DWIDTH 5 0
BBX 6 6 -1 0
BITMAP
058000
016016
034050
0006F7
014061
170250
ENDCHAR
STARTCHAR uni2151
ENCODING 8529
SWIDTH 600 0
DWIDTH 5 0
BBX 6 6 -1 0
BITMAP
058000
016016
034050
0006E2
0149E4
170AB0
ENDCHAR
STARTCHAR uni2152
ENCODING 8530
SWIDTH 600 0
DWIDTH 5 0
BBX 5 5 0 0
BITMAP
0D3000
063650
179D00
898710
159A00
ENDCHAR
STARTCHAR onethird
ENCODING 8531
SWIDTH 600 0
DWIDTH 5 0
BBX 6 6 -1 0
BITMAP
058000
016016
034050
0002E2
0143E1
1707D1
ENDCHAR
STARTCHAR twothirds
ENCODING 8532
SWIDTH 600 0
DWIDTH 5 0
BBX 6 6 -1 0
BITMAP
07C000
043016
1FD050
0002E2
0143E1
1707D1
ENDCHAR
STARTCHAR uni2155
ENCODING 8533
SWIDTH 600 0
DWIDTH 5 0
BBX 6 6 -1 0
BITMAP
058000
016016
034050
0004F5
0149E1
1709D1
ENDCHAR
STARTCHAR uni2156
ENCODING 8534
SWIDTH 600 0
DWIDTH 5 0
BBX 6 6 -1 0
BITMAP
07C000
043016
1FD050
0004F5
0149E1
1709D1
ENDCHAR
STARTCHAR uni2157
ENCODING 8535
SWIDTH 600 0
DWIDTH 5 0
BBX 6 6 -1 0
BITMAP
05D000
07B016
0BA050
0004F5
0149E1
1709D1
ENDCHAR
STARTCHAR uni2158
ENCODING 8536
SWIDTH 600 0
DWIDTH 5 0
BBX 6 6 -1 0
BITMAP
024000
064016
2FF050
0004F5
0149E1
1709D1
ENDCHAR
STARTCHAR uni2159
ENCODING 8537
SWIDTH 600 0
DWIDTH 5 0
BBX 6 6 -1 0
BITMAP
058000
016016
034050
0004E4
014AE3
1708D1
ENDCHAR
STARTCHAR uni215A
ENCODING 8538
SWIDTH 600 0
DWIDTH 5 0
BBX 6 6 -1 0
BITMAP
08F100
0CC016
0DA050
0004E4
014AE3
1708D1
ENDCHAR
STARTCHAR oneeighth
ENCODING 8539
SWIDTH 600 0
DWIDTH 5 0
BBX 6 6 -1 0
BITMAP
058000
016016
034050
0004E3
0146E1
1709D1
ENDCHAR
STARTCHAR threeeighths
ENCODING 8540
SWIDTH 600 0
DWIDTH 5 0
BBX 6 6 -1 0
BITMAP
05D000
07B016
0BA050
0004E3
0146E1
1709D1
ENDCHAR
STARTCHAR fiveeighths
ENCODING 8541
SWIDTH 600 0
DWIDTH 5 0
BBX 6 6 -1 0
BITMAP
08F100
0CC016
0DA050
0004E3
0146E1
1709D1
ENDCHAR
STARTCHAR seveneighths
ENCODING 8542
SWIDTH 600 0
DWIDTH 5 0
BBX 6 6 -1 0
BITMAP
0AF400
006016
062050
0004E3
0146E1
1709D1
ENDCHAR
STARTCHAR uni2189
ENCODING 8585
SWIDTH 600 0
DWIDTH 5 0
BBX 6 6 -1 0
BITMAP
08E200
086316
0CB050
0002E2
0143E1
1707D1
ENDCHAR
STARTCHAR uni2190
ENCODING 8592
SWIDTH 600 0
DWIDTH 5 0
BBX 5 5 0 0
BITMAP
024000
160000
AFFF80
160000
024000
ENDCHAR
STARTCHAR arrowup
ENCODING 8593
SWIDTH 600 0
DWIDTH 5 0
BBX 5 4 0 0
BITMAP
03B100
458810
108020
008000
ENDCHAR
STARTCHAR uni2192
ENCODING 8594
SWIDTH 600 0
DWIDTH 5 0
BBX 5 5 0 0
BITMAP
006100
001600
CFFF70
001600
006100
ENDCHAR
STARTCHAR arrowdown
ENCODING 8595
SWIDTH 600 0
DWIDTH 5 0
BBX 5 4 0 0
BITMAP
008000
108020
458710
03B100
ENDCHAR
STARTCHAR arrowboth
ENCODING 8596
SWIDTH 600 0
DWIDTH 5 0
BBX 5 5 0 0
BITMAP
030300
520430
EFFFB0
520430
030300
ENDCHAR
STARTCHAR arrowupdn
ENCODING 8597
SWIDTH 600 0
DWIDTH 5 0
BBX 4 5 0 0
BITMAP
04B2
1586
0080
1586
04B2
ENDCHAR
STARTCHAR uni2196
ENCODING 8598
SWIDTH 600 0
DWIDTH 5 0
BBX 4 4 0 0
BITMAP
2876
3A40
3474
1206
ENDCHAR
STARTCHAR uni2197
ENCODING 8599
SWIDTH 600 0
DWIDTH 5 0
BBX 4 4 0 0
BITMAP
1778
006A
0747
2403
ENDCHAR
STARTCHAR uni2198
ENCODING 8600
SWIDTH 600 0
DWIDTH 5 0
BBX 4 4 0 0
BITMAP
1503
0657
006B
0778
ENDCHAR
STARTCHAR uni2199
ENCODING 8601
SWIDTH 600 0
DWIDTH 5 0
BBX 4 4 0 0
BITMAP
1206
2474
2A40
1876
ENDCHAR
STARTCHAR arrowupdnbse
ENCODING 8616
SWIDTH 600 0
DWIDTH 5 0
BBX 5 6 0 -1
BITMAP
004000
18B700
118100
118100
17B700
8FFF50
ENDCHAR
STARTCHAR uni21D0
ENCODING 8656
SWIDTH 600 0
DWIDTH 5 0
BBX 5 6 0 -1
BITMAP
001000
054000
6FFF80
6FFF80
054000
001000
ENDCHAR
STARTCHAR uni21D1
ENCODING 8657
SWIDTH 600 0
DWIDTH 5 0
BBX 5 4 0 0
BITMAP
023200
4A1B20
261520
061500
ENDCHAR
STARTCHAR uni21D2
ENCODING 8658
SWIDTH 600 0
DWIDTH 5 0
BBX 5 6 0 -1
BITMAP
001000
006300
CFFE30
CFFE30
006300
001000
ENDCHAR
STARTCHAR uni21D3
ENCODING 8659
SWIDTH 600 0
DWIDTH 5 0
BBX 5 4 0 0
BITMAP
061500
261520
4A1B20
023200
ENDCHAR
STARTCHAR uni2200
ENCODING 8704
SWIDTH 600 0
DWIDTH 5 0
BBX 5 5 0 0
BITMAP
2702A0
0FFF20
092800
087100
096000
ENDCHAR
STARTCHAR partialdiff
ENCODING 8706
SWIDTH 600 0
DWIDTH 5 0
BBX 5 5 0 0
BITMAP
01BD10
002650
2CEB30
842A00
5EC200
ENDCHAR
STARTCHAR uni2203
ENCODING 8707
SWIDTH 600 0
DWIDTH 5 0
BBX 5 5 0 0
BITMAP
0EFF30
000800
0FFC00
001800
FFF600
ENDCHAR
STARTCHAR uni2206
ENCODING 8710
SWIDTH 600 0
DWIDTH 5 0
BBX 6 5 -1 0
BITMAP
000960
005480
018090
081090
2FFFF1
ENDCHAR
STARTCHAR product
ENCODING 8719
SWIDTH 600 0
DWIDTH 5 0
BBX 5 5 0 0
BITMAP
9FFF50
910450
910450
910450
910450
ENDCHAR
STARTCHAR summation
ENCODING 8721
SWIDTH 600 0
DWIDTH 5 0
BBX 5 6 0 -1
BITMAP
6FFF10
180000
028000
027000
180000
7FFF50
ENDCHAR
STARTCHAR minus
ENCODING 8722
SWIDTH 600 0
DWIDTH 5 0
BBX 5 1 0 2
BITMAP
4FFF20
ENDCHAR
STARTCHAR uni2215
ENCODING 8725
SWIDTH 600 0
DWIDTH 5 0
BBX 6 5 -1 0
BITMAP
000016
000050
000000
014000
170000
ENDCHAR
STARTCHAR uni2219
ENCODING 8729
SWIDTH 600 0
DWIDTH 5 0
BBX 2 1 1 2
BITMAP
77
ENDCHAR
STARTCHAR radical
ENCODING 8730
SWIDTH 600 0
DWIDTH 5 0
BBX 5 8 0 -1
BITMAP
000040
000160
000520
020700
290700
063700
01B400
00B100
ENDCHAR
STARTCHAR infinity
ENCODING 8734
SWIDTH 600 0
DWIDTH 5 0
BBX 5 3 0 1
BITMAP
AC5E70
95C290
AC6E70
ENDCHAR
STARTCHAR orthogonal
ENCODING 8735
SWIDTH 600 0
DWIDTH 5 0
BBX 5 5 0 1
BITMAP
100000
430000
430000
430000
4FFF20
ENDCHAR
STARTCHAR intersection
ENCODING 8745
SWIDTH 600 0
DWIDTH 5 0
BBX 4 4 0 1
BITMAP
0AE7
281A
3407
3407
ENDCHAR
STARTCHAR integral
ENCODING 8747
SWIDTH 600 0
DWIDTH 5 0
BBX 3 9 1 -2
BITMAP
0970
0A00
0800
0800
0800
0800
0800
0A00
7900
ENDCHAR
STARTCHAR uni2237
ENCODING 8759
SWIDTH 600 0
DWIDTH 5 0
BBX 5 4 0 1
BITMAP
0C1940
000000
000000
673A00
ENDCHAR
STARTCHAR approxequal
ENCODING 8776
SWIDTH 600 0
DWIDTH 5 0
BBX 4 3 0 1
BITMAP
2EFC
0000
2EFC
ENDCHAR
STARTCHAR notequal
ENCODING 8800
SWIDTH 600 0
DWIDTH 5 0
BBX 5 5 0 0
BITMAP
000600
4FFF20
007000
4FFF20
070000
ENDCHAR
STARTCHAR equivalence
ENCODING 8801
SWIDTH 600 0
DWIDTH 5 0
BBX 5 5 0 0
BITMAP
4FFF20
000000
4FFF20
000000
4FFF20
ENDCHAR
STARTCHAR lessequal
ENCODING 8804
SWIDTH 600 0
DWIDTH 5 0
BBX 5 4 0 0
BITMAP
038C20
4E9300
048D20
4FFF20
ENDCHAR
STARTCHAR greaterequal
ENCODING 8805
SWIDTH 600 0
DWIDTH 5 0
BBX 5 4 0 0
BITMAP
4B7300
04AE20
4C7300
4FFF20
ENDCHAR
STARTCHAR house
ENCODING 8962
SWIDTH 600 0
DWIDTH 5 0
BBX 5 5 0 0
BITMAP
04E200
1B4A00
810460
800260
9FFF60
ENDCHAR
STARTCHAR revlogicalnot
ENCODING 8976
SWIDTH 600 0
DWIDTH 5 0
BBX 5 3 0 0
BITMAP
4FFF20
430000
220000
ENDCHAR
STARTCHAR uni231C
ENCODING 8988
SWIDTH 600 0
DWIDTH 5 0
BBX 4 7 1 -1
BITMAP
0AF8
0900
1700
4500
6200
8000
2000
ENDCHAR
STARTCHAR uni231D
ENCODING 8989
SWIDTH 600 0
DWIDTH 5 0
BBX 3 7 1 -1
BITMAP
8F90
0050
0330
0610
0700
0700
0200
ENDCHAR
STARTCHAR uni231E
ENCODING 8990
SWIDTH 600 0
DWIDTH 5 0
BBX 3 7 1 -1
BITMAP
0100
0700
0600
3300
6100
6000
BF60
ENDCHAR
STARTCHAR uni231F
ENCODING 8991
SWIDTH 600 0
DWIDTH 5 0
BBX 4 7 0 -1
BITMAP
0001
0017
0044
0071
0080
0080
AF80
ENDCHAR
STARTCHAR integraltp
ENCODING 8992
SWIDTH 600 0
DWIDTH 5 0
BBX 2 10 2 -3
BITMAP
68
90
80
80
80
80
80
80
80
80
ENDCHAR
STARTCHAR integralbt
ENCODING 8993
SWIDTH 600 0
DWIDTH 5 0
BBX 2 10 1 -2
BITMAP
07
08
08
08
08
08
08
08
18
A4
ENDCHAR
STARTCHAR uni2500
ENCODING 9472
SWIDTH 600 0
DWIDTH 5 0
BBX 7 1 -1 2
BITMAP
5FFFFF20
ENDCHAR
STARTCHAR uni2501
ENCODING 9473
SWIDTH 600 0
DWIDTH 5 0
BBX 7 1 -1 2
BITMAP
5FFFFF20
ENDCHAR
STARTCHAR uni2502
ENCODING 9474
SWIDTH 600 0
DWIDTH 5 0
BBX 1 11 2 -3
BITMAP
90
90
90
90
90
90
90
90
90
90
90
ENDCHAR
STARTCHAR uni2503
ENCODING 9475
SWIDTH 600 0
DWIDTH 5 0
BBX 2 11 1 -3
BITMAP
3F
3F
3F
3F
3F
3F
3F
3F
3F
3F
3F
ENDCHAR
STARTCHAR uni2504
ENCODING 9476
SWIDTH 600 0
DWIDTH 5 0
BBX 5 1 0 2
BITMAP
B7E880
ENDCHAR
STARTCHAR uni2505
ENCODING 9477
SWIDTH 600 0
DWIDTH 5 0
BBX 5 1 0 2
BITMAP
B7E880
ENDCHAR
STARTCHAR uni2506
ENCODING 9478
SWIDTH 600 0
DWIDTH 5 0
BBX 1 9 2 -2
BITMAP
90
90
00
40
90
60
20
90
80
ENDCHAR
STARTCHAR uni2507
ENCODING 9479
SWIDTH 600 0
DWIDTH 5 0
BBX 2 9 1 -2
BITMAP
3F
3F
00
00
3F
3F
00
3F
3F
ENDCHAR
STARTCHAR uni2508
ENCODING 9480
SWIDTH 600 0
DWIDTH 5 0
BBX 5 1 0 2
BITMAP
DABBA0
ENDCHAR
STARTCHAR uni2509
ENCODING 9481
SWIDTH 600 0
DWIDTH 5 0
BBX 5 1 0 2
BITMAP
DABBA0
ENDCHAR
STARTCHAR uni250A
ENCODING 9482
SWIDTH 600 0
DWIDTH 5 0
BBX 1 9 2 -2
BITMAP
90
90
90
90
00
90
90
90
90
ENDCHAR
STARTCHAR uni250B
ENCODING 9483
SWIDTH 600 0
DWIDTH 5 0
BBX 2 9 1 -2
BITMAP
3F
3F
3F
3F
00
3F
3F
3F
3F
ENDCHAR
STARTCHAR uni250C
ENCODING 9484
SWIDTH 600 0
DWIDTH 5 0
BBX 4 7 2 -4
BITMAP
EFF2
9000
9000
9000
9000
9000
3000
ENDCHAR
STARTCHAR uni250D
ENCODING 9485
SWIDTH 600 0
DWIDTH 5 0
BBX 4 6 2 -3
BITMAP
EFF2
9000
9000
9000
9000
9000
ENDCHAR
STARTCHAR uni250E
ENCODING 9486
SWIDTH 600 0
DWIDTH 5 0
BBX 5 7 1 -4
BITMAP
3FFF20
3F0000
3F0000
3F0000
3F0000
3F0000
140000
ENDCHAR
STARTCHAR uni250F
ENCODING 9487
SWIDTH 600 0
DWIDTH 5 0
BBX 5 6 1 -3
BITMAP
3FFF20
3F0000
3F0000
3F0000
3F0000
3F0000
ENDCHAR
STARTCHAR uni2510
ENCODING 9488
SWIDTH 600 0
DWIDTH 5 0
BBX 4 7 -1 -4
BITMAP
5FFB
0009
0009
0009
0009
0009
0003
ENDCHAR
STARTCHAR uni2511
ENCODING 9489
SWIDTH 600 0
DWIDTH 5 0
BBX 4 6 -1 -3
BITMAP
5FFB
0009
0009
0009
0009
0009
ENDCHAR
STARTCHAR uni2512
ENCODING 9490
SWIDTH 600 0
DWIDTH 5 0
BBX 4 7 -1 -4
BITMAP
5FFF
003F
003F
003F
003F
003F
0014
ENDCHAR
STARTCHAR uni2513
ENCODING 9491
SWIDTH 600 0
DWIDTH 5 0
BBX 4 6 -1 -3
BITMAP
5FFF
003F
003F
003F
003F
003F
ENDCHAR
STARTCHAR uni2514
ENCODING 9492
SWIDTH 600 0
DWIDTH 5 0
BBX 4 7 2 2
BITMAP
3000
9000
9000
9000
9000
9000
EFF2
ENDCHAR
STARTCHAR uni2515
ENCODING 9493
SWIDTH 600 0
DWIDTH 5 0
BBX 4 6 2 2
BITMAP
9000
9000
9000
9000
9000
EFF2
ENDCHAR
STARTCHAR uni2516
ENCODING 9494
SWIDTH 600 0
DWIDTH 5 0
BBX 5 7 1 2
BITMAP
140000
3F0000
3F0000
3F0000
3F0000
3F0000
3FFF20
ENDCHAR
STARTCHAR uni2517
ENCODING 9495
SWIDTH 600 0
DWIDTH 5 0
BBX 5 6 1 2
BITMAP
3F0000
3F0000
3F0000
3F0000
3F0000
3FFF20
ENDCHAR
STARTCHAR uni2518
ENCODING 9496
SWIDTH 600 0
DWIDTH 5 0
BBX 4 7 -1 2
BITMAP
0003
0009
0009
0009
0009
0009
5FFB
ENDCHAR
STARTCHAR uni2519
ENCODING 9497
SWIDTH 600 0
DWIDTH 5 0
BBX 4 6 -1 2
BITMAP
0009
0009
0009
0009
0009
5FFB
ENDCHAR
STARTCHAR uni251A
ENCODING 9498
SWIDTH 600 0
DWIDTH 5 0
BBX 4 7 -1 2
BITMAP
0014
003F
003F
003F
003F
003F
5FFF
ENDCHAR
STARTCHAR uni251B
ENCODING 9499
SWIDTH 600 0
DWIDTH 5 0
BBX 4 6 -1 2
BITMAP
003F
003F
003F
003F
003F
5FFF
ENDCHAR
STARTCHAR uni251C
ENCODING 9500
SWIDTH 600 0
DWIDTH 5 0
BBX 4 13 2 -4
BITMAP
3000
9000
9000
9000
9000
9000
EFF2
9000
9000
9000
9000
9000
3000
ENDCHAR
STARTCHAR uni251D
ENCODING 9501
SWIDTH 600 0
DWIDTH 5 0
BBX 4 11 2 -3
BITMAP
9000
9000
9000
9000
9000
EFF2
9000
9000
9000
9000
9000
ENDCHAR
STARTCHAR uni251E
ENCODING 9502
SWIDTH 600 0
DWIDTH 5 0
BBX 5 13 1 -4
BITMAP
140000
3F0000
3F0000
3F0000
3F0000
3F0000
3FFF20
090000
090000
090000
090000
090000
030000
ENDCHAR
STARTCHAR uni251F
ENCODING 9503
SWIDTH 600 0
DWIDTH 5 0
BBX 5 13 1 -4
BITMAP
030000
090000
090000
090000
090000
090000
3FFF20
3F0000
3F0000
3F0000
3F0000
3F0000
140000
ENDCHAR
STARTCHAR uni2520
ENCODING 9504
SWIDTH 600 0
DWIDTH 5 0
BBX 5 13 1 -4
BITMAP
140000
3F0000
3F0000
3F0000
3F0000
3F0000
3FFF20
3F0000
3F0000
3F0000
3F0000
3F0000
140000
ENDCHAR
STARTCHAR uni2521
ENCODING 9505
SWIDTH 600 0
DWIDTH 5 0
BBX 5 11 1 -3
BITMAP
3F0000
3F0000
3F0000
3F0000
3F0000
3FFF20
090000
090000
090000
090000
090000
ENDCHAR
STARTCHAR uni2522
ENCODING 9506
SWIDTH 600 0
DWIDTH 5 0
BBX 5 11 1 -3
BITMAP
090000
090000
090000
090000
090000
3FFF20
3F0000
3F0000
3F0000
3F0000
3F0000
ENDCHAR
STARTCHAR uni2523
ENCODING 9507
SWIDTH 600 0
DWIDTH 5 0
BBX 5 11 1 -3
BITMAP
3F0000
3F0000
3F0000
3F0000
3F0000
3FFF20
3F0000
3F0000
3F0000
3F0000
3F0000
ENDCHAR
STARTCHAR uni2524
ENCODING 9508
SWIDTH 600 0
DWIDTH 5 0
BBX 4 13 -1 -4
BITMAP
0003
0009
0009
0009
0009
0009
5FFB
0009
0009
0009
0009
0009
0003
ENDCHAR
STARTCHAR uni2525
ENCODING 9509
SWIDTH 600 0
DWIDTH 5 0
BBX 4 11 -1 -3
BITMAP
0009
0009
0009
0009
0009
5FFB
0009
0009
0009
0009
0009
ENDCHAR
STARTCHAR uni2526
ENCODING 9510
SWIDTH 600 0
DWIDTH 5 0
BBX 4 13 -1 -4
BITMAP
0014
003F
003F
003F
003F
003F
5FFF
0009
0009
0009
0009
0009
0003
ENDCHAR
STARTCHAR uni2527
ENCODING 9511
SWIDTH 600 0
DWIDTH 5 0
BBX 4 13 -1 -4
BITMAP
0003
0009
0009
0009
0009
0009
5FFF
003F
003F
003F
003F
003F
0014
ENDCHAR
STARTCHAR uni2528
ENCODING 9512
SWIDTH 600 0
DWIDTH 5 0
BBX 4 13 -1 -4
BITMAP
0014
003F
003F
003F
003F
003F
5FFF
003F
003F
003F
003F
003F
0014
ENDCHAR
STARTCHAR uni2529
ENCODING 9513
SWIDTH 600 0
DWIDTH 5 0
BBX 4 11 -1 -3
BITMAP
003F
003F
003F
003F
003F
5FFF
0009
0009
0009
0009
0009
ENDCHAR
STARTCHAR uni252A
ENCODING 9514
SWIDTH 600 0
DWIDTH 5 0
BBX 4 11 -1 -3
BITMAP
0009
0009
0009
0009
0009
5FFF
003F
003F
003F
003F
003F
ENDCHAR
STARTCHAR uni252B
ENCODING 9515
SWIDTH 600 0
DWIDTH 5 0
BBX 4 11 -1 -3
BITMAP
003F
003F
003F
003F
003F
5FFF
003F
003F
003F
003F
003F
ENDCHAR
STARTCHAR uni252C
ENCODING 9516
SWIDTH 600 0
DWIDTH 5 0
BBX 7 7 -1 -4
BITMAP
5FFFFF20
00090000
00090000
00090000
00090000
00090000
00030000
ENDCHAR
STARTCHAR uni252D
ENCODING 9517
SWIDTH 600 0
DWIDTH 5 0
BBX 7 6 -1 -3
BITMAP
5FFFFF20
00090000
00090000
00090000
00090000
00090000
ENDCHAR
STARTCHAR uni252E
ENCODING 9518
SWIDTH 600 0
DWIDTH 5 0
BBX 7 6 -1 -3
BITMAP
5FFFFF20
00090000
00090000
00090000
00090000
00090000
ENDCHAR
STARTCHAR uni252F
ENCODING 9519
SWIDTH 600 0
DWIDTH 5 0
BBX 7 6 -1 -3
BITMAP
5FFFFF20
00090000
00090000
00090000
00090000
00090000
ENDCHAR
STARTCHAR uni2530
ENCODING 9520
SWIDTH 600 0
DWIDTH 5 0
BBX 7 7 -1 -4
BITMAP
5FFFFF20
003F0000
003F0000
003F0000
003F0000
003F0000
00140000
ENDCHAR
STARTCHAR uni2531
ENCODING 9521
SWIDTH 600 0
DWIDTH 5 0
BBX 7 6 -1 -3
BITMAP
5FFFFF20
003F0000
003F0000
003F0000
003F0000
003F0000
ENDCHAR
STARTCHAR uni2532
ENCODING 9522
SWIDTH 600 0
DWIDTH 5 0
BBX 7 6 -1 -3
BITMAP
5FFFFF20
003F0000
003F0000
003F0000
003F0000
003F0000
ENDCHAR
STARTCHAR uni2533
ENCODING 9523
SWIDTH 600 0
DWIDTH 5 0
BBX 7 6 -1 -3
BITMAP
5FFFFF20
003F0000
003F0000
003F0000
003F0000
003F0000
ENDCHAR
STARTCHAR uni2534
ENCODING 9524
SWIDTH 600 0
DWIDTH 5 0
BBX 7 7 -1 2
BITMAP
00030000
00090000
00090000
00090000
00090000
00090000
5FFFFF20
ENDCHAR
STARTCHAR uni2535
ENCODING 9525
SWIDTH 600 0
DWIDTH 5 0
BBX 7 6 -1 2
BITMAP
00090000
00090000
00090000
00090000
00090000
5FFFFF20
ENDCHAR
STARTCHAR uni2536
ENCODING 9526
SWIDTH 600 0
DWIDTH 5 0
BBX 7 6 -1 2
BITMAP
00090000
00090000
00090000
00090000
00090000
5FFFFF20
ENDCHAR
STARTCHAR uni2537
ENCODING 9527
SWIDTH 600 0
DWIDTH 5 0
BBX 7 6 -1 2
BITMAP
00090000
00090000
00090000
00090000
00090000
5FFFFF20
ENDCHAR
STARTCHAR uni2538
ENCODING 9528
SWIDTH 600 0
DWIDTH 5 0
BBX 7 7 -1 2
BITMAP
00140000
003F0000
003F0000
003F0000
003F0000
003F0000
5FFFFF20
ENDCHAR
STARTCHAR uni2539
ENCODING 9529
SWIDTH 600 0
DWIDTH 5 0
BBX 7 6 -1 2
BITMAP
003F0000
003F0000
003F0000
003F0000
003F0000
5FFFFF20
ENDCHAR
STARTCHAR uni253A
ENCODING 9530
SWIDTH 600 0
DWIDTH 5 0
BBX 7 6 -1 2
BITMAP
003F0000
003F0000
003F0000
003F0000
003F0000
5FFFFF20
ENDCHAR
STARTCHAR uni253B
ENCODING 9531
SWIDTH 600 0
DWIDTH 5 0
BBX 7 6 -1 2
BITMAP
003F0000
003F0000
003F0000
003F0000
003F0000
5FFFFF20
ENDCHAR
STARTCHAR uni253C
ENCODING 9532
SWIDTH 600 0
DWIDTH 5 0
BBX 7 13 -1 -4
BITMAP
00030000
00090000
00090000
00090000
00090000
00090000
5FFFFF20
00090000
00090000
00090000
00090000
00090000
00030000
ENDCHAR
STARTCHAR uni253D
ENCODING 9533
SWIDTH 600 0
DWIDTH 5 0
BBX 7 11 -1 -3
BITMAP
00090000
00090000
00090000
00090000
00090000
5FFFFF20
00090000
00090000
00090000
00090000
00090000
ENDCHAR
STARTCHAR uni253E
ENCODING 9534
SWIDTH 600 0
DWIDTH 5 0
BBX 7 11 -1 -3
BITMAP
00090000
00090000
00090000
00090000
00090000
5FFFFF20
00090000
00090000
00090000
00090000
00090000
ENDCHAR
STARTCHAR uni253F
ENCODING 9535
SWIDTH 600 0
DWIDTH 5 0
BBX 7 11 -1 -3
BITMAP
00090000
00090000
00090000
00090000
00090000
5FFFFF20
00090000
00090000
00090000
00090000
00090000
ENDCHAR
STARTCHAR uni2540
ENCODING 9536
SWIDTH 600 0
DWIDTH 5 0
BBX 7 13 -1 -4
BITMAP
00140000
003F0000
003F0000
003F0000
003F0000
003F0000
5FFFFF20
00090000
00090000
00090000
00090000
00090000
00030000
ENDCHAR
STARTCHAR uni2541
ENCODING 9537
SWIDTH 600 0
DWIDTH 5 0
BBX 7 13 -1 -4
BITMAP
00030000
00090000
00090000
00090000
00090000
00090000
5FFFFF20
003F0000
003F0000
003F0000
003F0000
003F0000
00140000
ENDCHAR
STARTCHAR uni2542
ENCODING 9538
SWIDTH 600 0
DWIDTH 5 0
BBX 7 13 -1 -4
BITMAP
00140000
003F0000
003F0000
003F0000
003F0000
003F0000
5FFFFF20
003F0000
003F0000
003F0000
003F0000
003F0000
00140000
ENDCHAR
STARTCHAR uni2543
ENCODING 9539
SWIDTH 600 0
DWIDTH 5 0
BBX 7 11 -1 -3
BITMAP
003F0000
003F0000
003F0000
003F0000
003F0000
5FFFFF20
00090000
00090000
00090000
00090000
00090000
ENDCHAR
STARTCHAR uni2544
ENCODING 9540
SWIDTH 600 0
DWIDTH 5 0
BBX 7 11 -1 -3
BITMAP
003F0000
003F0000
003F0000
003F0000
003F0000
5FFFFF20
00090000
00090000
00090000
00090000
00090000
ENDCHAR
STARTCHAR uni2545
ENCODING 9541
SWIDTH 600 0
DWIDTH 5 0
BBX 7 11 -1 -3
BITMAP
00090000
00090000
00090000
00090000
00090000
5FFFFF20
003F0000
003F0000
003F0000
003F0000
003F0000
ENDCHAR
STARTCHAR uni2546
ENCODING 9542
SWIDTH 600 0
DWIDTH 5 0
BBX 7 11 -1 -3
BITMAP
00090000
00090000
00090000
00090000
00090000
5FFFFF20
003F0000
003F0000
003F0000
003F0000
003F0000
ENDCHAR
STARTCHAR uni2547
ENCODING 9543
SWIDTH 600 0
DWIDTH 5 0
BBX 7 11 -1 -3
BITMAP
003F0000
003F0000
003F0000
003F0000
003F0000
5FFFFF20
00090000
00090000
00090000
00090000
00090000
ENDCHAR
STARTCHAR uni2548
ENCODING 9544
SWIDTH 600 0
DWIDTH 5 0
BBX 7 11 -1 -3
BITMAP
00090000
00090000
00090000
00090000
00090000
5FFFFF20
003F0000
003F0000
003F0000
003F0000
003F0000
ENDCHAR
STARTCHAR uni2549
ENCODING 9545
SWIDTH 600 0
DWIDTH 5 0
BBX 7 11 -1 -3
BITMAP
003F0000
003F0000
003F0000
003F0000
003F0000
5FFFFF20
003F0000
003F0000
003F0000
003F0000
003F0000
ENDCHAR
STARTCHAR uni254A
ENCODING 9546
SWIDTH 600 0
DWIDTH 5 0
BBX 7 11 -1 -3
BITMAP
003F0000
003F0000
003F0000
003F0000
003F0000
5FFFFF20
003F0000
003F0000
003F0000
003F0000
003F0000
ENDCHAR
STARTCHAR uni254B
ENCODING 9547
SWIDTH 600 0
DWIDTH 5 0
BBX 7 11 -1 -3
BITMAP
003F0000
003F0000
003F0000
003F0000
003F0000
5FFFFF20
003F0000
003F0000
003F0000
003F0000
003F0000
ENDCHAR
STARTCHAR uni254C
ENCODING 9548
SWIDTH 600 0
DWIDTH 5 0
BBX 5 1 0 2
BITMAP
6C0F30
ENDCHAR
STARTCHAR uni254D
ENCODING 9549
SWIDTH 600 0
DWIDTH 5 0
BBX 5 1 0 2
BITMAP
6C0F30
ENDCHAR
STARTCHAR uni254E
ENCODING 9550
SWIDTH 600 0
DWIDTH 5 0
BBX 1 7 2 -1
BITMAP
90
90
40
00
40
90
90
ENDCHAR
STARTCHAR uni254F
ENCODING 9551
SWIDTH 600 0
DWIDTH 5 0
BBX 2 8 1 -2
BITMAP
3F
3F
00
00
13
3F
3F
13
ENDCHAR
STARTCHAR uni2550
ENCODING 9552
SWIDTH 600 0
DWIDTH 5 0
BBX 7 3 -1 1
BITMAP
5FFFFF20
00000000
5FFFFF20
ENDCHAR
STARTCHAR uni2551
ENCODING 9553
SWIDTH 600 0
DWIDTH 5 0
BBX 3 11 1 -3
BITMAP
8650
8650
8650
8650
8650
8650
8650
8650
8650
8650
8650
ENDCHAR
STARTCHAR uni2552
ENCODING 9554
SWIDTH 600 0
DWIDTH 5 0
BBX 4 8 2 -4
BITMAP
EFF2
9000
EFF2
9000
9000
9000
9000
6000
ENDCHAR
STARTCHAR uni2553
ENCODING 9555
SWIDTH 600 0
DWIDTH 5 0
BBX 5 7 1 -4
BITMAP
8FFF20
865000
865000
865000
865000
865000
222000
ENDCHAR
STARTCHAR uni2554
ENCODING 9556
SWIDTH 600 0
DWIDTH 5 0
BBX 5 8 1 -4
BITMAP
8FFF20
810000
86FF20
865000
865000
865000
765000
033000
ENDCHAR
STARTCHAR uni2555
ENCODING 9557
SWIDTH 600 0
DWIDTH 5 0
BBX 4 8 -1 -4
BITMAP
5FFB
0009
5FFB
0009
0009
0009
0009
0006
ENDCHAR
STARTCHAR uni2556
ENCODING 9558
SWIDTH 600 0
DWIDTH 5 0
BBX 5 7 -1 -4
BITMAP
5FFF50
008650
008650
008650
008650
008650
002220
ENDCHAR
STARTCHAR uni2557
ENCODING 9559
SWIDTH 600 0
DWIDTH 5 0
BBX 5 8 -1 -4
BITMAP
5FFF50
000450
5FF650
008650
008650
008650
008550
005100
ENDCHAR
STARTCHAR uni2558
ENCODING 9560
SWIDTH 600 0
DWIDTH 5 0
BBX 4 8 2 1
BITMAP
6000
9000
9000
9000
9000
EFF2
9000
EFF2
ENDCHAR
STARTCHAR uni2559
ENCODING 9561
SWIDTH 600 0
DWIDTH 5 0
BBX 5 7 1 2
BITMAP
221000
865000
865000
865000
865000
865000
8FFF20
ENDCHAR
STARTCHAR uni255A
ENCODING 9562
SWIDTH 600 0
DWIDTH 5 0
BBX 5 8 1 1
BITMAP
033000
755000
865000
865000
865000
86FF20
810000
8FFF20
ENDCHAR
STARTCHAR uni255B
ENCODING 9563
SWIDTH 600 0
DWIDTH 5 0
BBX 4 8 -1 1
BITMAP
0006
0009
0009
0009
0009
5FFB
0009
5FFB
ENDCHAR
STARTCHAR uni255C
ENCODING 9564
SWIDTH 600 0
DWIDTH 5 0
BBX 5 7 -1 2
BITMAP
002210
008650
008650
008650
008650
008650
5FFF50
ENDCHAR
STARTCHAR uni255D
ENCODING 9565
SWIDTH 600 0
DWIDTH 5 0
BBX 5 8 -1 1
BITMAP
005100
008550
008650
008650
008650
5FF650
000450
5FFF50
ENDCHAR
STARTCHAR uni255E
ENCODING 9566
SWIDTH 600 0
DWIDTH 5 0
BBX 4 13 2 -4
BITMAP
6000
9000
9000
9000
9000
EFF2
9000
EFF2
9000
9000
9000
9000
6000
ENDCHAR
STARTCHAR uni255F
ENCODING 9567
SWIDTH 600 0
DWIDTH 5 0
BBX 5 13 1 -4
BITMAP
011000
865000
865000
865000
865000
865000
86FF20
865000
865000
865000
865000
865000
222000
ENDCHAR
STARTCHAR uni2560
ENCODING 9568
SWIDTH 600 0
DWIDTH 5 0
BBX 5 13 1 -4
BITMAP
033000
865000
865000
865000
865000
86FF20
810000
86FF20
865000
865000
865000
865000
233000
ENDCHAR
STARTCHAR uni2561
ENCODING 9569
SWIDTH 600 0
DWIDTH 5 0
BBX 4 13 -1 -4
BITMAP
0006
0009
0009
0009
0009
5FFB
0009
5FFB
0009
0009
0009
0009
0006
ENDCHAR
STARTCHAR uni2562
ENCODING 9570
SWIDTH 600 0
DWIDTH 5 0
BBX 5 13 -1 -4
BITMAP
002000
008650
008650
008650
008650
008650
5FF650
008650
008650
008650
008650
008650
002110
ENDCHAR
STARTCHAR uni2563
ENCODING 9571
SWIDTH 600 0
DWIDTH 5 0
BBX 5 13 -1 -4
BITMAP
005100
008650
008650
008650
008650
5FF650
000450
5FF650
008650
008650
008650
008650
005210
ENDCHAR
STARTCHAR uni2564
ENCODING 9572
SWIDTH 600 0
DWIDTH 5 0
BBX 7 8 -1 -4
BITMAP
5FFFFF20
00000000
5FFFFF20
00090000
00090000
00090000
00090000
00060000
ENDCHAR
STARTCHAR uni2565
ENCODING 9573
SWIDTH 600 0
DWIDTH 5 0
BBX 7 7 -1 -4
BITMAP
5FFFFF20
00865000
00865000
00865000
00865000
00865000
00222000
ENDCHAR
STARTCHAR uni2566
ENCODING 9574
SWIDTH 600 0
DWIDTH 5 0
BBX 7 8 -1 -4
BITMAP
5FFFFF20
00000000
5FF6FF20
00865000
00865000
00865000
00865000
00543000
ENDCHAR
STARTCHAR uni2567
ENCODING 9575
SWIDTH 600 0
DWIDTH 5 0
BBX 7 8 -1 1
BITMAP
00060000
00090000
00090000
00090000
00090000
5FFFFF20
00000000
5FFFFF20
ENDCHAR
STARTCHAR uni2568
ENCODING 9576
SWIDTH 600 0
DWIDTH 5 0
BBX 7 7 -1 2
BITMAP
00221000
00865000
00865000
00865000
00865000
00865000
5FFFFF20
ENDCHAR
STARTCHAR uni2569
ENCODING 9577
SWIDTH 600 0
DWIDTH 5 0
BBX 7 8 -1 1
BITMAP
00543000
00865000
00865000
00865000
00865000
5FF6FF20
00000000
5FFFFF20
ENDCHAR
STARTCHAR uni256A
ENCODING 9578
SWIDTH 600 0
DWIDTH 5 0
BBX 7 13 -1 -4
BITMAP
00060000
00090000
00090000
00090000
00090000
5FFFFF20
00090000
5FFFFF20
00090000
00090000
00090000
00090000
00060000
ENDCHAR
STARTCHAR uni256B
ENCODING 9579
SWIDTH 600 0
DWIDTH 5 0
BBX 7 13 -1 -4
BITMAP
00221000
00865000
00865000
00865000
00865000
00865000
5FFFFF20
00865000
00865000
00865000
00865000
00865000
00222000
ENDCHAR
STARTCHAR uni256C
ENCODING 9580
SWIDTH 600 0
DWIDTH 5 0
BBX 7 13 -1 -4
BITMAP
00543000
00865000
00865000
00865000
00865000
5FF6FF20
00000000
5FF6FF20
00865000
00865000
00865000
00865000
00543000
ENDCHAR
STARTCHAR uni256D
ENCODING 9581
SWIDTH 600 0
DWIDTH 5 0
BBX 4 7 2 -4
BITMAP
06E2
5810
A000
9000
9000
9000
3000
ENDCHAR
STARTCHAR uni256E
ENCODING 9582
SWIDTH 600 0
DWIDTH 5 0
BBX 4 7 -1 -4
BITMAP
5D40
02A3
0019
0009
0009
0009
0003
ENDCHAR
STARTCHAR uni256F
ENCODING 9583
SWIDTH 600 0
DWIDTH 5 0
BBX 4 7 -1 2
BITMAP
0003
0009
0009
0009
0019
02A3
5D40
ENDCHAR
STARTCHAR uni2570
ENCODING 9584
SWIDTH 600 0
DWIDTH 5 0
BBX 4 7 2 2
BITMAP
3000
9000
9000
9000
A000
6810
07E2
ENDCHAR
STARTCHAR uni2571
ENCODING 9585
SWIDTH 600 0
DWIDTH 5 0
BBX 5 10 0 -3
BITMAP
000080
000460
000A00
003700
00A100
037000
091000
280000
910000
800000
ENDCHAR
STARTCHAR uni2572
ENCODING 9586
SWIDTH 600 0
DWIDTH 5 0
BBX 5 10 0 -3
BITMAP
800000
910000
280000
091000
037000
00A100
003700
000A00
000460
000080
ENDCHAR
STARTCHAR uni2573
ENCODING 9587
SWIDTH 600 0
DWIDTH 5 0
BBX 5 10 0 -3
BITMAP
900090
920460
290B00
0A6700
03E100
03E100
0A6700
290B00
920460
900090
ENDCHAR
STARTCHAR uni2574
ENCODING 9588
SWIDTH 600 0
DWIDTH 5 0
BBX 4 1 -1 2
BITMAP
5FFB
ENDCHAR
STARTCHAR uni2575
ENCODING 9589
SWIDTH 600 0
DWIDTH 5 0
BBX 1 6 2 2
BITMAP
90
90
90
90
90
90
ENDCHAR
STARTCHAR uni2576
ENCODING 9590
SWIDTH 600 0
DWIDTH 5 0
BBX 4 1 2 2
BITMAP
EFF2
ENDCHAR
STARTCHAR uni2577
ENCODING 9591
SWIDTH 600 0
DWIDTH 5 0
BBX 1 6 2 -3
BITMAP
90
90
90
90
90
90
ENDCHAR
STARTCHAR uni2578
ENCODING 9592
SWIDTH 600 0
DWIDTH 5 0
BBX 4 1 -1 2
BITMAP
5FFB
ENDCHAR
STARTCHAR uni2579
ENCODING 9593
SWIDTH 600 0
DWIDTH 5 0
BBX 2 6 1 2
BITMAP
3F
3F
3F
3F
3F
3F
ENDCHAR
STARTCHAR uni257A
ENCODING 9594
SWIDTH 600 0
DWIDTH 5 0
BBX 4 1 2 2
BITMAP
EFF2
ENDCHAR
STARTCHAR uni257B
ENCODING 9595
SWIDTH 600 0
DWIDTH 5 0
BBX 2 6 1 -3
BITMAP
3F
3F
3F
3F
3F
3F
ENDCHAR
STARTCHAR uni257C
ENCODING 9596
SWIDTH 600 0
DWIDTH 5 0
BBX 7 3 -1 1
BITMAP
00045500
5FFFFF20
00045500
ENDCHAR
STARTCHAR uni257D
ENCODING 9597
SWIDTH 600 0
DWIDTH 5 0
BBX 2 11 1 -3
BITMAP
09
09
09
09
09
3E
3F
3F
3F
3F
3F
ENDCHAR
STARTCHAR uni257E
ENCODING 9598
SWIDTH 600 0
DWIDTH 5 0
BBX 7 3 -1 1
BITMAP
15530000
5FFFFF20
15530000
ENDCHAR
STARTCHAR uni257F
ENCODING 9599
SWIDTH 600 0
DWIDTH 5 0
BBX 2 11 1 -3
BITMAP
3F
3F
3F
3F
3F
3E
09
09
09
09
09
ENDCHAR
STARTCHAR uni2580
ENCODING 9600
SWIDTH 600 0
DWIDTH 5 0
BBX 5 6 0 2
BITMAP
FFFFC0
FFFFC0
FFFFC0
FFFFC0
FFFFC0
FFFFC0
ENDCHAR
STARTCHAR uni2581
ENCODING 9601
SWIDTH 600 0
DWIDTH 5 0
BBX 5 1 0 -3
BITMAP
FFFFC0
ENDCHAR
STARTCHAR uni2582
ENCODING 9602
SWIDTH 600 0
DWIDTH 5 0
BBX 5 3 0 -3
BITMAP
FFFFC0
FFFFC0
FFFFC0
ENDCHAR
STARTCHAR uni2583
ENCODING 9603
SWIDTH 600 0
DWIDTH 5 0
BBX 5 4 0 -3
BITMAP
FFFFC0
FFFFC0
FFFFC0
FFFFC0
ENDCHAR
STARTCHAR uni2584
ENCODING 9604
SWIDTH 600 0
DWIDTH 5 0
BBX 5 5 0 -3
BITMAP
FFFFC0
FFFFC0
FFFFC0
FFFFC0
FFFFC0
ENDCHAR
STARTCHAR uni2585
ENCODING 9605
SWIDTH 600 0
DWIDTH 5 0
BBX 5 7 0 -3
BITMAP
FFFFC0
FFFFC0
FFFFC0
FFFFC0
FFFFC0
FFFFC0
FFFFC0
ENDCHAR
STARTCHAR uni2586
ENCODING 9606
SWIDTH 600 0
DWIDTH 5 0
BBX 5 8 0 -3
BITMAP
FFFFC0
FFFFC0
FFFFC0
FFFFC0
FFFFC0
FFFFC0
FFFFC0
FFFFC0
ENDCHAR
STARTCHAR uni2587
ENCODING 9607
SWIDTH 600 0
DWIDTH 5 0
BBX 5 10 0 -3
BITMAP
FFFFC0
FFFFC0
FFFFC0
FFFFC0
FFFFC0
FFFFC0
FFFFC0
FFFFC0
FFFFC0
FFFFC0
ENDCHAR
STARTCHAR uni2588
ENCODING 9608
SWIDTH 600 0
DWIDTH 5 0
BBX 5 11 0 -3
BITMAP
FFFFC0
FFFFC0
FFFFC0
FFFFC0
FFFFC0
FFFFC0
FFFFC0
FFFFC0
FFFFC0
FFFFC0
FFFFC0
ENDCHAR
STARTCHAR uni2589
ENCODING 9609
SWIDTH 600 0
DWIDTH 5 0
BBX 5 11 0 -3
BITMAP
FFFF30
FFFF30
FFFF30
FFFF30
FFFF30
FFFF30
FFFF30
FFFF30
FFFF30
FFFF30
FFFF30
ENDCHAR
STARTCHAR uni258A
ENCODING 9610
SWIDTH 600 0
DWIDTH 5 0
BBX 4 11 0 -3
BITMAP
FFF9
FFF9
FFF9
FFF9
FFF9
FFF9
FFF9
FFF9
FFF9
FFF9
FFF9
ENDCHAR
STARTCHAR uni258B
ENCODING 9611
SWIDTH 600 0
DWIDTH 5 0
BBX 3 11 0 -3
BITMAP
FFF0
FFF0
FFF0
FFF0
FFF0
FFF0
FFF0
FFF0
FFF0
FFF0
FFF0
ENDCHAR
STARTCHAR uni258C
ENCODING 9612
SWIDTH 600 0
DWIDTH 5 0
BBX 3 11 0 -3
BITMAP
FF60
FF60
FF60
FF60
FF60
FF60
FF60
FF60
FF60
FF60
FF60
ENDCHAR
STARTCHAR uni258D
ENCODING 9613
SWIDTH 600 0
DWIDTH 5 0
BBX 2 11 0 -3
BITMAP
FC
FC
FC
FC
FC
FC
FC
FC
FC
FC
FC
ENDCHAR
STARTCHAR uni258E
ENCODING 9614
SWIDTH 600 0
DWIDTH 5 0
BBX 2 11 0 -3
BITMAP
F3
F3
F3
F3
F3
F3
F3
F3
F3
F3
F3
ENDCHAR
STARTCHAR uni258F
ENCODING 9615
SWIDTH 600 0
DWIDTH 5 0
BBX 1 11 0 -3
BITMAP
90
90
90
90
90
90
90
90
90
90
90
ENDCHAR
STARTCHAR uni2590
ENCODING 9616
SWIDTH 600 0
DWIDTH 5 0
BBX 3 11 2 -3
BITMAP
9FC0
9FC0
9FC0
9FC0
9FC0
9FC0
9FC0
9FC0
9FC0
9FC0
9FC0
ENDCHAR
STARTCHAR uni2591
ENCODING 9617
SWIDTH 600 0
DWIDTH 5 0
BBX 6 10 -1 -3
BITMAP
142432
030422
122221
122221
030422
112020
031322
031322
112020
142432
ENDCHAR
STARTCHAR uni2592
ENCODING 9618
SWIDTH 600 0
DWIDTH 5 0
BBX 6 11 -1 -3
BITMAP
062844
224030
062844
254452
254452
062844
234241
163653
163653
234241
285874
ENDCHAR
STARTCHAR uni2593
ENCODING 9619
SWIDTH 600 0
DWIDTH 5 0
BBX 6 12 -1 -4
BITMAP
0A7D87
489792
1C9E98
39A994
39A994
1C9E98
4AA9A4
2BAC96
2BAC96
4AA9A4
0B7E88
448260
ENDCHAR
STARTCHAR uni2594
ENCODING 9620
SWIDTH 600 0
DWIDTH 5 0
BBX 5 1 0 7
BITMAP
FFFFC0
ENDCHAR
STARTCHAR uni2595
ENCODING 9621
SWIDTH 600 0
DWIDTH 5 0
BBX 1 11 4 -3
BITMAP
90
90
90
90
90
90
90
90
90
90
90
ENDCHAR
STARTCHAR uni2596
ENCODING 9622
SWIDTH 600 0
DWIDTH 5 0
BBX 3 5 0 -3
BITMAP
FF60
FF60
FF60
FF60
FF60
ENDCHAR
STARTCHAR uni2597
ENCODING 9623
SWIDTH 600 0
DWIDTH 5 0
BBX 3 5 2 -3
BITMAP
9FC0
9FC0
9FC0
9FC0
9FC0
ENDCHAR
STARTCHAR uni2598
ENCODING 9624
SWIDTH 600 0
DWIDTH 5 0
BBX 3 6 0 2
BITMAP
FF60
FF60
FF60
FF60
FF60
FF60
ENDCHAR
STARTCHAR uni2599
ENCODING 9625
SWIDTH 600 0
DWIDTH 5 0
BBX 5 11 0 -3
BITMAP
FF6000
FF6000
FF6000
FF6000
FF6000
FF6000
FFFFC0
FFFFC0
FFFFC0
FFFFC0
FFFFC0
ENDCHAR
STARTCHAR uni259A
ENCODING 9626
SWIDTH 600 0
DWIDTH 5 0
BBX 5 11 0 -3
BITMAP
FF6000
FF6000
FF6000
FF6000
FF6000
FF6000
009FC0
009FC0
009FC0
009FC0
009FC0
ENDCHAR
STARTCHAR uni259B
ENCODING 9627
SWIDTH 600 0
DWIDTH 5 0
BBX 5 11 0 -3
BITMAP
FFFFC0
FFFFC0
FFFFC0
FFFFC0
FFFFC0
FFFFC0
FF6000
FF6000
FF6000
FF6000
FF6000
ENDCHAR
STARTCHAR uni259C
ENCODING 9628
SWIDTH 600 0
DWIDTH 5 0
BBX 5 11 0 -3
BITMAP
FFFFC0
FFFFC0
FFFFC0
FFFFC0
FFFFC0
FFFFC0
009FC0
009FC0
009FC0
009FC0
009FC0
ENDCHAR
STARTCHAR uni259D
ENCODING 9629
SWIDTH 600 0
DWIDTH 5 0
BBX 3 6 2 2
BITMAP
9FC0
9FC0
9FC0
9FC0
9FC0
9FC0
ENDCHAR
STARTCHAR uni259E
ENCODING 9630
SWIDTH 600 0
DWIDTH 5 0
BBX 5 11 0 -3
BITMAP
009FC0
009FC0
009FC0
009FC0
009FC0
009FC0
FF6000
FF6000
FF6000
FF6000
FF6000
ENDCHAR
STARTCHAR uni259F
ENCODING 9631
SWIDTH 600 0
DWIDTH 5 0
BBX 5 11 0 -3
BITMAP
009FC0
009FC0
009FC0
009FC0
009FC0
009FC0
FFFFC0
FFFFC0
FFFFC0
FFFFC0
FFFFC0
ENDCHAR
STARTCHAR uni25A0
ENCODING 9632
SWIDTH 600 0
DWIDTH 5 0
BBX 5 3 0 1
BITMAP
4FFF10
4FFF10
4FFF10
ENDCHAR
STARTCHAR uni25A1
ENCODING 9633
SWIDTH 600 0
DWIDTH 5 0
BBX 5 4 0 1
BITMAP
6FFF30
600330
600330
6FFF30
ENDCHAR
STARTCHAR uni25AA
ENCODING 9642
SWIDTH 600 0
DWIDTH 5 0
BBX 3 2 1 1
BITMAP
AF70
AF70
ENDCHAR
STARTCHAR uni25AB
ENCODING 9643
SWIDTH 600 0
DWIDTH 5 0
BBX 3 3 1 1
BITMAP
CF90
6060
CF90
ENDCHAR
STARTCHAR filledrect
ENCODING 9644
SWIDTH 600 0
DWIDTH 5 0
BBX 5 1 0 2
BITMAP
FFFFC0
ENDCHAR
STARTCHAR triagup
ENCODING 9650
SWIDTH 600 0
DWIDTH 5 0
BBX 5 4 0 1
BITMAP
007000
05F200
0CF900
4FFF10
ENDCHAR
STARTCHAR uni25B3
ENCODING 9651
SWIDTH 600 0
DWIDTH 5 0
BBX 5 4 0 1
BITMAP
002000
010100
010100
4FFF10
ENDCHAR
STARTCHAR uni25B4
ENCODING 9652
SWIDTH 600 0
DWIDTH 5 0
BBX 3 2 1 1
BITMAP
1900
9F60
ENDCHAR
STARTCHAR uni25B5
ENCODING 9653
SWIDTH 600 0
DWIDTH 5 0
BBX 3 1 1 1
BITMAP
CF90
ENDCHAR
STARTCHAR uni25B6
ENCODING 9654
SWIDTH 600 0
DWIDTH 5 0
BBX 5 4 0 1
BITMAP
781000
8FE910
8FD600
550000
ENDCHAR
STARTCHAR uni25B7
ENCODING 9655
SWIDTH 600 0
DWIDTH 5 0
BBX 5 4 0 1
BITMAP
781000
539810
501200
410000
ENDCHAR
STARTCHAR uni25B8
ENCODING 9656
SWIDTH 600 0
DWIDTH 5 0
BBX 3 3 1 1
BITMAP
8400
AF50
8400
ENDCHAR
STARTCHAR uni25B9
ENCODING 9657
SWIDTH 600 0
DWIDTH 5 0
BBX 3 3 1 1
BITMAP
7400
5460
7400
ENDCHAR
STARTCHAR triagrt
ENCODING 9658
SWIDTH 600 0
DWIDTH 5 0
BBX 5 4 0 1
BITMAP
A72000
CFFA40
CFD720
840000
ENDCHAR
STARTCHAR triagdn
ENCODING 9660
SWIDTH 600 0
DWIDTH 5 0
BBX 5 4 0 1
BITMAP
4FFF10
0CF900
05F200
007000
ENDCHAR
STARTCHAR uni25BD
ENCODING 9661
SWIDTH 600 0
DWIDTH 5 0
BBX 5 4 0 1
BITMAP
4FFF10
010100
010100
001000
ENDCHAR
STARTCHAR uni25BE
ENCODING 9662
SWIDTH 600 0
DWIDTH 5 0
BBX 3 2 1 1
BITMAP
9F60
1900
ENDCHAR
STARTCHAR uni25BF
ENCODING 9663
SWIDTH 600 0
DWIDTH 5 0
BBX 3 1 1 3
BITMAP
CF90
ENDCHAR
STARTCHAR uni25C0
ENCODING 9664
SWIDTH 600 0
DWIDTH 5 0
BBX 5 4 0 1
BITMAP
002940
2AFF40
17EF40
000630
ENDCHAR
STARTCHAR uni25C1
ENCODING 9665
SWIDTH 600 0
DWIDTH 5 0
BBX 5 4 0 1
BITMAP
002940
299340
121140
000230
ENDCHAR
STARTCHAR uni25C2
ENCODING 9666
SWIDTH 600 0
DWIDTH 5 0
BBX 3 3 1 1
BITMAP
0660
8F70
0660
ENDCHAR
STARTCHAR uni25C3
ENCODING 9667
SWIDTH 600 0
DWIDTH 5 0
BBX 3 3 1 1
BITMAP
0560
8250
0560
ENDCHAR
STARTCHAR triaglf
ENCODING 9668
SWIDTH 600 0
DWIDTH 5 0
BBX 5 4 0 1
BITMAP
003880
6CFF90
39EF90
001560
ENDCHAR
STARTCHAR uni25C6
ENCODING 9670
SWIDTH 600 0
DWIDTH 5 0
BBX 5 4 0 1
BITMAP
03B200
4EFD20
4EFD20
03B200
ENDCHAR
STARTCHAR uni25C9
ENCODING 9673
SWIDTH 600 0
DWIDTH 5 0
BBX 5 5 0 0
BITMAP
0AE800
6CFC30
69F750
655830
0AE800
ENDCHAR
STARTCHAR lozenge
ENCODING 9674
SWIDTH 600 0
DWIDTH 5 0
BBX 4 5 0 0
BITMAP
02D1
0957
1809
0957
03D1
ENDCHAR
STARTCHAR uni25CB
ENCODING 9675
SWIDTH 600 0
DWIDTH 5 0
BBX 5 5 0 0
BITMAP
0AE700
461820
600340
561820
0AE700
ENDCHAR
STARTCHAR uni25CC
ENCODING 9676
SWIDTH 600 0
DWIDTH 5 0
BBX 5 4 0 0
BITMAP
067500
510600
C10930
067500
ENDCHAR
STARTCHAR uni25CF
ENCODING 9679
SWIDTH 600 0
DWIDTH 5 0
BBX 5 4 0 1
BITMAP
0AE800
5FFF10
5FFF10
0AE800
ENDCHAR
STARTCHAR invbullet
ENCODING 9688
SWIDTH 600 0
DWIDTH 5 0
BBX 3 4 1 0
BITMAP
CF90
5150
5150
CF90
ENDCHAR
STARTCHAR invcircle
ENCODING 9689
SWIDTH 600 0
DWIDTH 5 0
BBX 5 4 0 1
BITMAP
651740
29F620
2EFB20
6ACB40
ENDCHAR
STARTCHAR uni25E6
ENCODING 9702
SWIDTH 600 0
DWIDTH 5 0
BBX 3 3 1 1
BITMAP
6E50
8270
AD30
ENDCHAR
STARTCHAR uni2610
ENCODING 9744
SWIDTH 600 0
DWIDTH 5 0
BBX 6 6 -1 0
BITMAP
2EFFFF
320009
320009
320009
320009
3FFFFD
ENDCHAR
STARTCHAR uni2611
ENCODING 9745
SWIDTH 600 0
DWIDTH 5 0
BBX 7 6 -1 0
BITMAP
00000450
2FFFFF00
3284AB00
322E2900
32000900
3FFFFE00
ENDCHAR
STARTCHAR uni2615
ENCODING 9749
SWIDTH 600 0
DWIDTH 5 0
BBX 7 5 -1 0
BITMAP
09EE6000
3CFD9000
29EE9610
0912CC10
05ED4000
ENDCHAR
STARTCHAR smileface
ENCODING 9786
SWIDTH 600 0
DWIDTH 5 0
BBX 5 5 0 0
BITMAP
2BEA10
8C6B70
641460
89E870
2BEA10
ENDCHAR
STARTCHAR invsmileface
ENCODING 9787
SWIDTH 600 0
DWIDTH 5 0
BBX 5 5 0 0
BITMAP
1BE900
8ADB50
BBEB80
891C50
1BE900
ENDCHAR
STARTCHAR sun
ENCODING 9788
SWIDTH 600 0
DWIDTH 5 0
BBX 5 6 0 -1
BITMAP
46A420
191900
F508C0
191900
31CB10
000120
ENDCHAR
STARTCHAR female
ENCODING 9792
SWIDTH 600 0
DWIDTH 5 0
BBX 5 7 0 -1
BITMAP
1BE900
641730
640730
1BF900
007000
0FFC00
007000
ENDCHAR
STARTCHAR male
ENCODING 9794
SWIDTH 600 0
DWIDTH 5 0
BBX 5 6 0 0
BITMAP
002650
0006A0
6ED760
A13800
A12800
6EC200
ENDCHAR
STARTCHAR spade
ENCODING 9824
SWIDTH 600 0
DWIDTH 5 0
BBX 5 6 0 0
BITMAP
03B100
3EFC10
CFFF80
CEDF90
05E300
2FFE00
ENDCHAR
STARTCHAR club
ENCODING 9827
SWIDTH 600 0
DWIDTH 5 0
BBX 5 6 0 0
BITMAP
08E500
0AF700
8DFC50
CFDF90
15D400
2FFE00
ENDCHAR
STARTCHAR heart
ENCODING 9829
SWIDTH 600 0
DWIDTH 5 0
BBX 5 6 0 0
BITMAP
8D7E60
DFFFB0
CFFF90
7FFF40
0CFA00
02B100
ENDCHAR
STARTCHAR diamond
ENCODING 9830
SWIDTH 600 0
DWIDTH 5 0
BBX 5 6 0 0
BITMAP
01A000
0CF900
9FFF60
9FFF60
0CF900
01A000
ENDCHAR
STARTCHAR musicalnote
ENCODING 9834
SWIDTH 600 0
DWIDTH 5 0
BBX 5 5 0 0
BITMAP
009400
007810
006320
2DC000
3E7000
ENDCHAR
STARTCHAR musicalnotedbl
ENCODING 9835
SWIDTH 600 0
DWIDTH 5 0
BBX 5 7 0 0
BITMAP
002550
04FFB0
048580
042070
042070
9F4D90
CC4E30
ENDCHAR
STARTCHAR uni2713
ENCODING 10003
SWIDTH 600 0
DWIDTH 5 0
BBX 5 6 0 0
BITMAP
000270
000900
006200
807000
492000
0D0000
ENDCHAR
STARTCHAR uni2752
ENCODING 10066
SWIDTH 600 0
DWIDTH 5 0
BBX 5 5 0 0
BITMAP
4FFF30
500530
500530
500530
6FFF20
ENDCHAR
STARTCHAR uni2764
ENCODING 10084
SWIDTH 600 0
DWIDTH 5 0
BBX 7 5 -1 0
BITMAP
3DD7EC10
8FFFFF50
5FFFFF20
07EFE500
002B1000
ENDCHAR
STARTCHAR uni27E6
ENCODING 10214
SWIDTH 600 0
DWIDTH 5 0
BBX 5 8 0 -2
BITMAP
00DF80
03A100
057000
066000
066000
083000
1A1000
3FF400
ENDCHAR
STARTCHAR uni27E7
ENCODING 10215
SWIDTH 600 0
DWIDTH 5 0
BBX 4 8 0 -2
BITMAP
08FC
0056
0056
0066
0093
02A1
0590
DFA0
ENDCHAR
STARTCHAR uni2E18
ENCODING 11800
SWIDTH 600 0
DWIDTH 5 0
BBX 4 6 0 -2
BITMAP
0084
0000
0090
0780
4623
2DC1
ENDCHAR
STARTCHAR uni2E22
ENCODING 11810
SWIDTH 600 0
DWIDTH 5 0
BBX 4 4 1 2
BITMAP
0AF8
0800
1700
3400
ENDCHAR
STARTCHAR uni2E23
ENCODING 11811
SWIDTH 600 0
DWIDTH 5 0
BBX 3 5 1 1
BITMAP
8F90
0060
0340
0610
0100
ENDCHAR
STARTCHAR uni2E24
ENCODING 11812
SWIDTH 600 0
DWIDTH 5 0
BBX 3 4 1 -2
BITMAP
6100
6000
6000
EF40
ENDCHAR
STARTCHAR uni2E25
ENCODING 11813
SWIDTH 600 0
DWIDTH 5 0
BBX 3 5 0 -2
BITMAP
0010
0080
0080
0080
DF60
ENDCHAR
STARTCHAR uniE0A0
ENCODING 57504
SWIDTH 600 0
DWIDTH 5 0
BBX 5 11 0 -2
BITMAP
360000
360600
363E70
360900
360900
340A00
01A400
0B2000
270000
360000
360000
ENDCHAR
STARTCHAR uniE0A1
ENCODING 57505
SWIDTH 600 0
DWIDTH 5 0
BBX 5 8 0 -1
BITMAP
540000
540000
540000
5FF000
066720
068720
065A20
062B20
ENDCHAR
STARTCHAR uniE0A2
ENCODING 57506
SWIDTH 600 0
DWIDTH 5 0
BBX 5 8 0 -1
BITMAP
08E500
0A2900
080800
9FFF60
9D2F60
9F6F60
9F4F60
9FFF60
ENDCHAR
STARTCHAR uniE0B0
ENCODING 57520
SWIDTH 600 0
DWIDTH 5 0
BBX 5 11 0 -2
BITMAP
700000
F50000
FE3000
FFE200
FFFD10
FFFF90
FFFD10
FFE200
FE3000
F50000
700000
ENDCHAR
STARTCHAR uniE0B1
ENCODING 57521
SWIDTH 600 0
DWIDTH 5 0
BBX 5 10 0 -2
BITMAP
800000
290000
038000
003700
000460
000460
003700
038000
290000
800000
ENDCHAR
STARTCHAR uniE0B2
ENCODING 57522
SWIDTH 600 0
DWIDTH 5 0
BBX 5 11 0 -2
BITMAP
000070
0006E0
005FE0
04FFE0
3EFFE0
CFFFE0
3EFFE0
04FFE0
005FE0
0007E0
000070
ENDCHAR
STARTCHAR uniE0B3
ENCODING 57523
SWIDTH 600 0
DWIDTH 5 0
BBX 5 10 0 -2
BITMAP
000170
001910
019100
092000
820000
820000
092000
019100
001910
000170
ENDCHAR
STARTCHAR f_i
ENCODING 64257
SWIDTH 600 0
DWIDTH 5 0
BBX 5 6 0 0
BITMAP
03E780
092000
3FB820
090900
270900
541800
ENDCHAR
STARTCHAR f_l
ENCODING 64258
SWIDTH 600 0
DWIDTH 5 0
BBX 5 6 0 0
BITMAP
03E760
092630
3FB800
090800
270800
541B00
ENDCHAR
STARTCHAR uniFE0E
ENCODING 65038
SWIDTH 600 0
DWIDTH 5 0
BBX 5 5 0 0
BITMAP
E889C0
A70990
0A0A00
070700
098700
ENDCHAR
STARTCHAR uniFE0F
ENCODING 65039
SWIDTH 600 0
DWIDTH 5 0
BBX 5 5 0 0
BITMAP
068400
4ADA40
E537C0
8A5970
068400
ENDCHAR
STARTCHAR uniFEFF
ENCODING 65279
SWIDTH 600 0
DWIDTH 5 0
BBX 1 1 0 0
BITMAP
00
ENDCHAR
STARTCHAR u1F3B5
ENCODING 127925
SWIDTH 600 0
DWIDTH 5 0
BBX 5 7 0 0
BITMAP
001000
009600
006820
006320
006000
2DB000
3E5000
ENDCHAR
STARTCHAR u1F3B6
ENCODING 127926
SWIDTH 600 0
DWIDTH 5 0
BBX 5 7 0 0
BITMAP
002550
04FFB0
048580
042070
042070
9F4D90
CC4E30
ENDCHAR
STARTCHAR u1F4A9
ENCODING 128169
SWIDTH 600 0
DWIDTH 5 0
BBX 5 6 0 0
BITMAP
004100
0CF900
6FFF30
9FFF60
F71AC0
9EFE60
ENDCHAR
STARTCHAR u1F512
ENCODING 128274
SWIDTH 600 0
DWIDTH 5 0
BBX 5 8 0 -1
BITMAP
08E500
0A2900
080800
9FFF60
9D2F60
9F6F60
9F4F60
9FFF60
ENDCHAR
STARTCHAR u1F916
ENCODING 129302
SWIDTH 600 0
DWIDTH 5 0
BBX 6 5 -1 0
BITMAP
03CFB1
0AFFE8
39DFBB
093748
02CEA1
ENDCHAR
STARTCHAR .notdef
ENCODING -1
SWIDTH 600 0
DWIDTH 5 0
BBX 5 5 0 0
BITMAP
7EFE40
753640
72C340
752740
7FFF40
ENDCHAR
STARTCHAR uni00470303
ENCODING -1
SWIDTH 600 0
DWIDTH 5 0
BBX 5 7 0 0
BITMAP
00B770
016B60
04DD20
2B2230
635F40
760810
1CE900
ENDCHAR
STARTCHAR uni004C00B7004C
ENCODING -1
SWIDTH 600 0
DWIDTH 5 0
BBX 5 5 0 0
BITMAP
170900
540800
769700
804400
EE7F60
ENDCHAR
STARTCHAR uni01320301
ENCODING -1
SWIDTH 600 0
DWIDTH 5 0
BBX 6 9 0 -2
BITMAP
036073
000000
090370
090640
270910
540A00
810A00
004700
03E200
ENDCHAR
STARTCHAR uni00670303
ENCODING -1
SWIDTH 600 0
DWIDTH 5 0
BBX 5 8 0 -2
BITMAP
007340
033C30
09EB50
581920
831B00
5EDB00
324800
7EC200
ENDCHAR
STARTCHAR uni006C00B7006C
ENCODING -1
SWIDTH 600 0
DWIDTH 5 0
BBX 5 6 0 0
BITMAP
F98F10
160700
430700
769600
914510
9D3E50
ENDCHAR
STARTCHAR uni01330301
ENCODING -1
SWIDTH 600 0
DWIDTH 5 0
BBX 5 8 0 -2
BITMAP
019090
072630
090900
090A00
372800
645500
009200
07B000
ENDCHAR
STARTCHAR uni014A.a
ENCODING -1
SWIDTH 600 0
DWIDTH 5 0
BBX 5 7 0 -2
BITMAP
0C1180
196460
458730
727A00
902C00
002900
01E400
ENDCHAR
STARTCHAR a.a
ENCODING -1
SWIDTH 600 0
DWIDTH 5 0
BBX 5 4 0 0
BITMAP
06EC00
041910
3BFF00
6EA900
ENDCHAR
STARTCHAR agrave.a
ENCODING -1
SWIDTH 600 0
DWIDTH 5 0
BBX 5 6 0 0
BITMAP
008000
003500
06EC00
041910
3BFF00
6EA900
ENDCHAR
STARTCHAR aacute.a
ENCODING -1
SWIDTH 600 0
DWIDTH 5 0
BBX 5 6 0 0
BITMAP
000900
006300
06EC00
041910
3BFF00
6EA900
ENDCHAR
STARTCHAR acircumflex.a
ENCODING -1
SWIDTH 600 0
DWIDTH 5 0
BBX 5 6 0 0
BITMAP
017700
000000
06EC00
041910
3BFF00
6EA900
ENDCHAR
STARTCHAR atilde.a
ENCODING -1
SWIDTH 600 0
DWIDTH 5 0
BBX 5 6 0 0
BITMAP
018330
052D20
06EC00
041910
3BFF00
6EA900
ENDCHAR
STARTCHAR adieresis.a
ENCODING -1
SWIDTH 600 0
DWIDTH 5 0
BBX 5 6 0 0
BITMAP
017800
000000
06EC00
041910
3BFF00
6EA900
ENDCHAR
STARTCHAR amacron.a
ENCODING -1
SWIDTH 600 0
DWIDTH 5 0
BBX 5 6 0 0
BITMAP
01FE00
000000
06EC00
041910
3BFF00
6EA900
ENDCHAR
STARTCHAR abreve.a
ENCODING -1
SWIDTH 600 0
DWIDTH 5 0
BBX 5 6 0 0
BITMAP
026630
00CA00
06EC00
041910
3BFF00
6EA900
ENDCHAR
STARTCHAR aring.a
ENCODING -1
SWIDTH 600 0
DWIDTH 5 0
BBX 5 7 0 0
BITMAP
008A00
008800
00A700
06EC00
041910
3BFF00
6EA900
ENDCHAR
STARTCHAR aringacute.a
ENCODING -1
SWIDTH 600 0
DWIDTH 5 0
BBX 5 7 0 0
BITMAP
000500
00AA00
00A900
06EC00
1DEF10
764B00
6EA900
ENDCHAR
STARTCHAR uni01CE.a
ENCODING -1
SWIDTH 600 0
DWIDTH 5 0
BBX 5 6 0 0
BITMAP
008710
000000
06EC00
041910
3BFF00
6EA900
ENDCHAR
STARTCHAR uni1EA1.a
ENCODING -1
SWIDTH 600 0
DWIDTH 5 0
BBX 5 6 0 -2
BITMAP
06EC00
041910
3BFF00
6EA900
000000
083000
ENDCHAR
STARTCHAR uni1EA3.a
ENCODING -1
SWIDTH 600 0
DWIDTH 5 0
BBX 5 7 0 0
BITMAP
006600
001900
006400
06EC00
041910
3BFF00
6EA900
ENDCHAR
STARTCHAR uni1EA5.a
ENCODING -1
SWIDTH 600 0
DWIDTH 5 0
BBX 5 6 0 0
BITMAP
007860
000000
06EC00
041910
3BFF00
6EA900
ENDCHAR
STARTCHAR uni1EA7.a
ENCODING -1
SWIDTH 600 0
DWIDTH 5 0
BBX 5 6 0 0
BITMAP
078700
000000
06EC00
041910
3BFF00
6EA900
ENDCHAR
STARTCHAR uni1EA9.a
ENCODING -1
SWIDTH 600 0
DWIDTH 5 0
BBX 5 8 0 0
BITMAP
000380
000080
007950
000000
06EC00
041910
3BFF00
6EA900
ENDCHAR
STARTCHAR uni1EAB.a
ENCODING -1
SWIDTH 600 0
DWIDTH 5 0
BBX 5 7 0 0
BITMAP
009530
00EF10
000000
06EC00
041910
3BFF00
6EA900
ENDCHAR
STARTCHAR uni1EAD.a
ENCODING -1
SWIDTH 600 0
DWIDTH 5 0
BBX 5 8 0 -2
BITMAP
017700
000000
06EC00
041910
3BFF00
6EA900
000000
083000
ENDCHAR
STARTCHAR uni1EAF.a
ENCODING -1
SWIDTH 600 0
DWIDTH 5 0
BBX 5 7 0 0
BITMAP
001700
026530
00CA00
06EC00
041910
3BFF00
6EA900
ENDCHAR
STARTCHAR uni1EB1.a
ENCODING -1
SWIDTH 600 0
DWIDTH 5 0
BBX 5 7 0 0
BITMAP
004200
026530
00CA00
06EC00
041910
3BFF00
6EA900
ENDCHAR
STARTCHAR uni1EB3.a
ENCODING -1
SWIDTH 600 0
DWIDTH 5 0
BBX 5 9 0 0
BITMAP
003800
000900
003600
026530
00CA00
06EC00
041910
3BFF00
6EA900
ENDCHAR
STARTCHAR uni1EB5.a
ENCODING -1
SWIDTH 600 0
DWIDTH 5 0
BBX 5 7 0 0
BITMAP
00A530
02DF20
00C900
06EC00
041910
3BFF00
6EA900
ENDCHAR
STARTCHAR uni1EB7.a
ENCODING -1
SWIDTH 600 0
DWIDTH 5 0
BBX 5 8 0 -2
BITMAP
026630
00CA00
06EC00
041910
3BFF00
6EA900
000000
083000
ENDCHAR
STARTCHAR aogonek.a
ENCODING -1
SWIDTH 600 0
DWIDTH 5 0
BBX 5 6 0 -2
BITMAP
06EC00
041910
3BFF00
6EA900
004200
00B700
ENDCHAR
STARTCHAR g.a
ENCODING -1
SWIDTH 600 0
DWIDTH 5 0
BBX 5 6 0 -2
BITMAP
09FF80
2A1A00
2CE600
4FE600
813A00
AFC300
ENDCHAR
STARTCHAR uni01F5.a
ENCODING -1
SWIDTH 600 0
DWIDTH 5 0
BBX 5 8 0 -2
BITMAP
000900
006300
09FF80
2A1A00
2CE600
4FE600
813A00
AFC300
ENDCHAR
STARTCHAR gcircumflex.a
ENCODING -1
SWIDTH 600 0
DWIDTH 5 0
BBX 5 8 0 -2
BITMAP
017700
000000
09FF80
2A1A00
2CE600
4FE600
813A00
AFC300
ENDCHAR
STARTCHAR gbreve.a
ENCODING -1
SWIDTH 600 0
DWIDTH 5 0
BBX 5 8 0 -2
BITMAP
026630
00CA00
09FF80
2A1A00
2CE600
4FE600
813A00
AFC300
ENDCHAR
STARTCHAR gdotaccent.a
ENCODING -1
SWIDTH 600 0
DWIDTH 5 0
BBX 5 8 0 -2
BITMAP
006500
000000
09FF80
2A1A00
2CE600
4FE600
813A00
AFC300
ENDCHAR
STARTCHAR uni0123.a
ENCODING -1
SWIDTH 600 0
DWIDTH 5 0
BBX 5 8 0 -2
BITMAP
002800
007200
09FF80
2A1A00
2CE600
4FE600
813A00
AFC300
ENDCHAR
STARTCHAR gcaron.a
ENCODING -1
SWIDTH 600 0
DWIDTH 5 0
BBX 5 8 0 -2
BITMAP
008710
000000
09FF80
2A1A00
2CE600
4FE600
813A00
AFC300
ENDCHAR
STARTCHAR uni1E21.a
ENCODING -1
SWIDTH 600 0
DWIDTH 5 0
BBX 5 8 0 -2
BITMAP
01FE00
000000
09FF80
2A1A00
2CE600
4FE600
813A00
AFC300
ENDCHAR
STARTCHAR uni00670303.a
ENCODING -1
SWIDTH 600 0
DWIDTH 5 0
BBX 5 8 0 -2
BITMAP
018330
052D20
09FF80
2A1A00
2CE600
4FE600
813A00
AFC300
ENDCHAR
STARTCHAR iogonek.d
ENCODING -1
SWIDTH 600 0
DWIDTH 5 0
BBX 4 6 0 -2
BITMAP
2FD0
0070
0271
02E7
0040
00C5
ENDCHAR
STARTCHAR uni0268.d
ENCODING -1
SWIDTH 600 0
DWIDTH 5 0
BBX 4 4 0 0
BITMAP
2FC0
4FFD
0371
02E9
ENDCHAR
STARTCHAR uni029D.d
ENCODING -1
SWIDTH 600 0
DWIDTH 5 0
BBX 4 7 0 -3
BITMAP
0EF7
0053
0090
9DA0
96A0
BCA0
0061
ENDCHAR
STARTCHAR zero.a
ENCODING -1
SWIDTH 600 0
DWIDTH 5 0
BBX 5 5 0 0
BITMAP
06EB00
2A2740
715440
753A10
2DD400
ENDCHAR
STARTCHAR one.a
ENCODING -1
SWIDTH 600 0
DWIDTH 5 0
BBX 4 6 0 0
BITMAP
0043
05C3
0090
0090
0090
AFFC
ENDCHAR
STARTCHAR zero.onum
ENCODING -1
SWIDTH 600 0
DWIDTH 5 0
BBX 5 5 0 0
BITMAP
08EA00
391830
72A630
742B00
2DD400
ENDCHAR
STARTCHAR one.onum
ENCODING -1
SWIDTH 600 0
DWIDTH 5 0
BBX 4 5 0 0
BITMAP
04B3
0090
0090
0090
AFFC
ENDCHAR
STARTCHAR two.onum
ENCODING -1
SWIDTH 600 0
DWIDTH 5 0
BBX 4 5 0 0
BITMAP
07E8
1519
0043
1630
AFFC
ENDCHAR
STARTCHAR three.onum
ENCODING -1
SWIDTH 600 0
DWIDTH 5 0
BBX 4 6 0 -1
BITMAP
07EA
051A
07D3
0159
6139
3DD3
ENDCHAR
STARTCHAR four.onum
ENCODING -1
SWIDTH 600 0
DWIDTH 5 0
BBX 5 6 0 -1
BITMAP
001C00
007800
052800
332600
DFFF10
007100
ENDCHAR
STARTCHAR five.onum
ENCODING -1
SWIDTH 600 0
DWIDTH 5 0
BBX 5 6 0 -1
BITMAP
0BFF30
090000
1CE700
001B00
612A00
3DD300
ENDCHAR
STARTCHAR six.onum
ENCODING -1
SWIDTH 600 0
DWIDTH 5 0
BBX 5 5 0 0
BITMAP
04DD10
2B2220
6BEB00
681A00
1CE600
ENDCHAR
STARTCHAR seven.onum
ENCODING -1
SWIDTH 600 0
DWIDTH 5 0
BBX 5 6 0 -1
BITMAP
2FFF80
000810
006300
018000
063000
0A0000
ENDCHAR
STARTCHAR eight.onum
ENCODING -1
SWIDTH 600 0
DWIDTH 5 0
BBX 5 5 0 0
BITMAP
08EC10
061730
4C8C10
731500
2DE900
ENDCHAR
STARTCHAR nine.onum
ENCODING -1
SWIDTH 600 0
DWIDTH 5 0
BBX 5 6 0 -1
BITMAP
08E900
381910
562C20
1DDB00
415900
4EB100
ENDCHAR
STARTCHAR zero.b
ENCODING -1
SWIDTH 600 0
DWIDTH 5 0
BBX 5 5 0 0
BITMAP
07EA00
391830
716530
744A00
2DD400
ENDCHAR
STARTCHAR one.b
ENCODING -1
SWIDTH 600 0
DWIDTH 5 0
BBX 4 5 0 0
BITMAP
02C3
0490
0090
0090
AFFC
ENDCHAR
STARTCHAR zero.cap
ENCODING -1
SWIDTH 600 0
DWIDTH 5 0
BBX 5 5 0 0
BITMAP
06EC10
2A1750
72A540
752B10
2DE400
ENDCHAR
STARTCHAR one.cap
ENCODING -1
SWIDTH 600 0
DWIDTH 5 0
BBX 4 10 0 0
BITMAP
0284
0063
0070
0050
0040
00BD
00DC
00EC
01FC
9DA7
ENDCHAR
STARTCHAR two.cap
ENCODING -1
SWIDTH 600 0
DWIDTH 5 0
BBX 4 5 0 0
BITMAP
04EB
0619
0023
1520
AFFE
ENDCHAR
STARTCHAR three.cap
ENCODING -1
SWIDTH 600 0
DWIDTH 5 0
BBX 5 5 0 0
BITMAP
05EC10
042A10
04F600
522B00
2DE600
ENDCHAR
STARTCHAR four.cap
ENCODING -1
SWIDTH 600 0
DWIDTH 5 0
BBX 5 5 0 0
BITMAP
005C10
273800
CFFF40
003500
006300
ENDCHAR
STARTCHAR five.cap
ENCODING -1
SWIDTH 600 0
DWIDTH 5 0
BBX 5 5 0 0
BITMAP
09FF40
090000
0BEA00
521B00
3DE500
ENDCHAR
STARTCHAR six.cap
ENCODING -1
SWIDTH 600 0
DWIDTH 5 0
BBX 5 5 0 0
BITMAP
05DD10
2B2220
6CEB00
671A00
1CE700
ENDCHAR
STARTCHAR seven.cap
ENCODING -1
SWIDTH 600 0
DWIDTH 5 0
BBX 4 5 1 0
BITMAP
FFF9
0071
0810
3600
9100
ENDCHAR
STARTCHAR eight.cap
ENCODING -1
SWIDTH 600 0
DWIDTH 5 0
BBX 5 5 0 0
BITMAP
06EC10
072830
2CFA00
752900
3DE800
ENDCHAR
STARTCHAR nine.cap
ENCODING -1
SWIDTH 600 0
DWIDTH 5 0
BBX 5 5 0 0
BITMAP
09EB00
381A40
1DEC30
313B00
3EC300
ENDCHAR
STARTCHAR zero.c
ENCODING -1
SWIDTH 600 0
DWIDTH 5 0
BBX 5 5 0 0
BITMAP
06EC10
2A1750
726440
753A10
2DE400
ENDCHAR
STARTCHAR one.c
ENCODING -1
SWIDTH 600 0
DWIDTH 5 0
BBX 4 6 0 0
BITMAP
0012
03C4
0281
0090
0090
AFFC
ENDCHAR
STARTCHAR at.case
ENCODING -1
SWIDTH 600 0
DWIDTH 5 0
BBX 5 5 0 0
BITMAP
05DE50
392170
719F60
85FE30
2DD400
ENDCHAR
STARTCHAR asterisk.a
ENCODING -1
SWIDTH 600 0
DWIDTH 5 0
BBX 4 3 1 3
BITMAP
6971
1E30
6C60
ENDCHAR
STARTCHAR hyphen.a
ENCODING -1
SWIDTH 600 0
DWIDTH 5 0
BBX 3 1 1 2
BITMAP
FFA0
ENDCHAR
STARTCHAR uni00AD.a
ENCODING -1
SWIDTH 600 0
DWIDTH 5 0
BBX 3 1 1 2
BITMAP
FFA0
ENDCHAR
STARTCHAR uni2010.a
ENCODING -1
SWIDTH 600 0
DWIDTH 5 0
BBX 3 1 1 2
BITMAP
FFA0
ENDCHAR
STARTCHAR dollar.a
ENCODING -1
SWIDTH 600 0
DWIDTH 5 0
BBX 5 7 0 -1
BITMAP
000600
09F900
054910
00C000
493500
0BF900
060000
ENDCHAR
STARTCHAR period.sups
ENCODING -1
SWIDTH 600 0
DWIDTH 5 0
BBX 1 1 2 3
BITMAP
80
ENDCHAR
STARTCHAR comma.sups
ENCODING -1
SWIDTH 600 0
DWIDTH 5 0
BBX 2 3 1 1
BITMAP
08
07
16
ENDCHAR
STARTCHAR period.subs
ENCODING -1
SWIDTH 600 0
DWIDTH 5 0
BBX 2 1 1 -2
BITMAP
62
ENDCHAR
STARTCHAR comma.subs
ENCODING -1
SWIDTH 600 0
DWIDTH 5 0
BBX 2 3 1 -4
BITMAP
53
52
70
ENDCHAR
STARTCHAR zero.dnom
ENCODING -1
SWIDTH 600 0
DWIDTH 5 0
BBX 3 3 1 0
BITMAP
7E20
9540
CB00
ENDCHAR
STARTCHAR one.dnom
ENCODING -1
SWIDTH 600 0
DWIDTH 5 0
BBX 2 3 1 0
BITMAP
4A
07
16
ENDCHAR
STARTCHAR two.dnom
ENCODING -1
SWIDTH 600 0
DWIDTH 5 0
BBX 2 3 1 0
BITMAP
5D
33
EF
ENDCHAR
STARTCHAR three.dnom
ENCODING -1
SWIDTH 600 0
DWIDTH 5 0
BBX 3 3 1 0
BITMAP
4E10
5D00
9C00
ENDCHAR
STARTCHAR four.dnom
ENCODING -1
SWIDTH 600 0
DWIDTH 5 0
BBX 3 3 1 0
BITMAP
1500
6400
FF20
ENDCHAR
STARTCHAR five.dnom
ENCODING -1
SWIDTH 600 0
DWIDTH 5 0
BBX 3 3 1 0
BITMAP
6F30
AD00
BC00
ENDCHAR
STARTCHAR six.dnom
ENCODING -1
SWIDTH 600 0
DWIDTH 5 0
BBX 3 3 1 0
BITMAP
5E20
BE10
AD00
ENDCHAR
STARTCHAR seven.dnom
ENCODING -1
SWIDTH 600 0
DWIDTH 5 0
BBX 3 3 1 0
BITMAP
8F60
0600
4400
ENDCHAR
STARTCHAR eight.dnom
ENCODING -1
SWIDTH 600 0
DWIDTH 5 0
BBX 3 3 1 0
BITMAP
6E10
8D00
BC00
ENDCHAR
STARTCHAR nine.dnom
ENCODING -1
SWIDTH 600 0
DWIDTH 5 0
BBX 3 3 1 0
BITMAP
8D10
BE20
CA00
ENDCHAR
STARTCHAR parenleft.dnom
ENCODING -1
SWIDTH 600 0
DWIDTH 5 0
BBX 2 4 1 -1
BITMAP
07
35
52
25
ENDCHAR
STARTCHAR parenright.dnom
ENCODING -1
SWIDTH 600 0
DWIDTH 5 0
BBX 2 4 1 -1
BITMAP
06
07
07
61
ENDCHAR
STARTCHAR period.dnom
ENCODING -1
SWIDTH 600 0
DWIDTH 5 0
BBX 2 1 1 0
BITMAP
44
ENDCHAR
STARTCHAR comma.dnom
ENCODING -1
SWIDTH 600 0
DWIDTH 5 0
BBX 2 3 1 -2
BITMAP
45
45
81
ENDCHAR
STARTCHAR zero.numr
ENCODING -1
SWIDTH 600 0
DWIDTH 5 0
BBX 3 3 1 2
BITMAP
2D90
7380
5E50
ENDCHAR
STARTCHAR one.numr
ENCODING -1
SWIDTH 600 0
DWIDTH 5 0
BBX 2 3 2 2
BITMAP
B3
60
70
ENDCHAR
STARTCHAR two.numr
ENCODING -1
SWIDTH 600 0
DWIDTH 5 0
BBX 3 3 1 2
BITMAP
0C60
1420
7F70
ENDCHAR
STARTCHAR three.numr
ENCODING -1
SWIDTH 600 0
DWIDTH 5 0
BBX 3 3 1 2
BITMAP
0B70
2C50
2E50
ENDCHAR
STARTCHAR four.numr
ENCODING -1
SWIDTH 600 0
DWIDTH 5 0
BBX 3 3 1 2
BITMAP
0500
2530
7FA0
ENDCHAR
STARTCHAR five.numr
ENCODING -1
SWIDTH 600 0
DWIDTH 5 0
BBX 3 3 1 2
BITMAP
0EA0
3F60
3F50
ENDCHAR
STARTCHAR six.numr
ENCODING -1
SWIDTH 600 0
DWIDTH 5 0
BBX 3 3 1 2
BITMAP
1C90
5E70
3E50
ENDCHAR
STARTCHAR seven.numr
ENCODING -1
SWIDTH 600 0
DWIDTH 5 0
BBX 3 3 1 2
BITMAP
1FD0
0340
0800
ENDCHAR
STARTCHAR eight.numr
ENCODING -1
SWIDTH 600 0
DWIDTH 5 0
BBX 3 3 1 2
BITMAP
0D80
1E60
4E50
ENDCHAR
STARTCHAR nine.numr
ENCODING -1
SWIDTH 600 0
DWIDTH 5 0
BBX 3 3 1 2
BITMAP
2E60
4E90
5E30
ENDCHAR
STARTCHAR parenleft.numr
ENCODING -1
SWIDTH 600 0
DWIDTH 5 0
BBX 2 4 2 1
BITMAP
35
80
70
70
ENDCHAR
STARTCHAR parenright.numr
ENCODING -1
SWIDTH 600 0
DWIDTH 5 0
BBX 3 4 1 1
BITMAP
0610
0430
0710
2600
ENDCHAR
STARTCHAR period.numr
ENCODING -1
SWIDTH 600 0
DWIDTH 5 0
BBX 1 1 2 2
BITMAP
80
ENDCHAR
STARTCHAR comma.numr
ENCODING -1
SWIDTH 600 0
DWIDTH 5 0
BBX 2 3 1 0
BITMAP
09
08
26
ENDCHAR
STARTCHAR ordfeminine.a
ENCODING -1
SWIDTH 600 0
DWIDTH 5 0
BBX 3 3 1 3
BITMAP
0AC0
0460
5E80
ENDCHAR
STARTCHAR q.sups
ENCODING -1
SWIDTH 600 0
DWIDTH 5 0
BBX 3 4 1 2
BITMAP
2DB0
8270
5D80
0030
ENDCHAR
STARTCHAR egrave.sups
ENCODING -1
SWIDTH 600 0
DWIDTH 5 0
BBX 3 5 1 3
BITMAP
0100
0140
1CB0
6FF0
4E60
ENDCHAR
STARTCHAR eacute.sups
ENCODING -1
SWIDTH 600 0
DWIDTH 5 0
BBX 3 5 1 3
BITMAP
0010
0150
1CB0
6FF0
4E60
ENDCHAR
STARTCHAR a.supa
ENCODING -1
SWIDTH 600 0
DWIDTH 5 0
BBX 3 3 1 3
BITMAP
0AC0
0460
5E80
ENDCHAR
STARTCHAR g.supa
ENCODING -1
SWIDTH 600 0
DWIDTH 5 0
BBX 4 4 1 2
BITMAP
1DF4
3E90
6FC0
AE70
ENDCHAR
STARTCHAR colon.sups
ENCODING -1
SWIDTH 600 0
DWIDTH 5 0
BBX 1 2 2 3
BITMAP
80
70
ENDCHAR
STARTCHAR hyphen.sups
ENCODING -1
SWIDTH 600 0
DWIDTH 5 0
BBX 2 1 2 4
BITMAP
C6
ENDCHAR
STARTCHAR endash.sups
ENCODING -1
SWIDTH 600 0
DWIDTH 5 0
BBX 3 1 1 4
BITMAP
4FD0
ENDCHAR
STARTCHAR emdash.sups
ENCODING -1
SWIDTH 600 0
DWIDTH 5 0
BBX 5 1 0 4
BITMAP
1FFFA0
ENDCHAR
STARTCHAR slash.frac
ENCODING -1
SWIDTH 600 0
DWIDTH 5 0
BBX 6 5 -1 0
BITMAP
000016
000050
000000
014000
170000
ENDCHAR
STARTCHAR uni0300.cap
ENCODING -1
SWIDTH 600 0
DWIDTH 5 0
BBX 2 1 2 6
BITMAP
53
ENDCHAR
STARTCHAR uni0301.cap
ENCODING -1
SWIDTH 600 0
DWIDTH 5 0
BBX 3 1 2 6
BITMAP
2710
ENDCHAR
STARTCHAR uni0302.cap
ENCODING -1
SWIDTH 600 0
DWIDTH 5 0
BBX 3 1 2 6
BITMAP
7810
ENDCHAR
STARTCHAR uni0303.cap
ENCODING -1
SWIDTH 600 0
DWIDTH 5 0
BBX 4 2 1 5
BITMAP
1D47
44D3
ENDCHAR
STARTCHAR uni0304.cap
ENCODING -1
SWIDTH 600 0
DWIDTH 5 0
BBX 3 1 2 6
BITMAP
EF20
ENDCHAR
STARTCHAR uni0305.cap
ENCODING -1
SWIDTH 600 0
DWIDTH 5 0
BBX 3 1 2 6
BITMAP
EF20
ENDCHAR
STARTCHAR uni0306.c
ENCODING -1
SWIDTH 600 0
DWIDTH 5 0
BBX 3 2 1 4
BITMAP
1780
0B80
ENDCHAR
STARTCHAR uni0306.cap
ENCODING -1
SWIDTH 600 0
DWIDTH 5 0
BBX 3 2 2 5
BITMAP
8440
AC00
ENDCHAR
STARTCHAR uni0306.ccap
ENCODING -1
SWIDTH 600 0
DWIDTH 5 0
BBX 3 2 2 5
BITMAP
9630
9B00
ENDCHAR
STARTCHAR uni0307.cap
ENCODING -1
SWIDTH 600 0
DWIDTH 5 0
BBX 2 1 2 6
BITMAP
36
ENDCHAR
STARTCHAR uni0308.cap
ENCODING -1
SWIDTH 600 0
DWIDTH 5 0
BBX 3 1 2 6
BITMAP
8620
ENDCHAR
STARTCHAR uni0309.cap
ENCODING -1
SWIDTH 600 0
DWIDTH 5 0
BBX 2 3 2 5
BITMAP
66
19
54
ENDCHAR
STARTCHAR uni0310.cap
ENCODING -1
SWIDTH 600 0
DWIDTH 5 0
BBX 3 3 2 5
BITMAP
1800
8450
AC00
ENDCHAR
STARTCHAR uni030A.cap
ENCODING -1
SWIDTH 600 0
DWIDTH 5 0
BBX 2 3 2 5
BITMAP
4B
77
69
ENDCHAR
STARTCHAR uni030B.cap
ENCODING -1
SWIDTH 600 0
DWIDTH 5 0
BBX 3 1 2 6
BITMAP
4550
ENDCHAR
STARTCHAR uni030C.cap
ENCODING -1
SWIDTH 600 0
DWIDTH 5 0
BBX 3 1 2 6
BITMAP
7720
ENDCHAR
STARTCHAR uni030C.a
ENCODING -1
SWIDTH 600 0
DWIDTH 5 0
BBX 2 2 2 4
BITMAP
45
61
ENDCHAR
STARTCHAR uni030F.cap
ENCODING -1
SWIDTH 600 0
DWIDTH 5 0
BBX 3 1 1 6
BITMAP
3560
ENDCHAR
STARTCHAR uni0311.cap
ENCODING -1
SWIDTH 600 0
DWIDTH 5 0
BBX 4 2 1 5
BITMAP
08D0
1853
ENDCHAR
STARTCHAR uni0326.a
ENCODING -1
SWIDTH 600 0
DWIDTH 5 0
BBX 2 2 2 4
BITMAP
28
71
ENDCHAR
STARTCHAR uni0327.cap
ENCODING -1
SWIDTH 600 0
DWIDTH 5 0
BBX 3 4 0 -4
BITMAP
0510
0920
0630
2B00
ENDCHAR
STARTCHAR uni0328.cap
ENCODING -1
SWIDTH 600 0
DWIDTH 5 0
BBX 2 2 1 -2
BITMAP
51
D4
ENDCHAR
STARTCHAR uni0342.cap
ENCODING -1
SWIDTH 600 0
DWIDTH 5 0
BBX 4 2 1 5
BITMAP
1D47
44D3
ENDCHAR
STARTCHAR uni03080301
ENCODING -1
SWIDTH 600 0
DWIDTH 5 0
BBX 3 2 1 5
BITMAP
0060
1670
ENDCHAR
STARTCHAR uni03080301.cap
ENCODING -1
SWIDTH 600 0
DWIDTH 5 0
BBX 3 2 2 6
BITMAP
0700
7610
ENDCHAR
STARTCHAR uni03080300
ENCODING -1
SWIDTH 600 0
DWIDTH 5 0
BBX 3 2 1 5
BITMAP
0420
1670
ENDCHAR
STARTCHAR uni03080300.cap
ENCODING -1
SWIDTH 600 0
DWIDTH 5 0
BBX 3 2 2 6
BITMAP
3300
7610
ENDCHAR
STARTCHAR uni03080303
ENCODING -1
SWIDTH 600 0
DWIDTH 5 0
BBX 4 4 1 5
BITMAP
0B44
15C1
0000
1670
ENDCHAR
STARTCHAR uni03080304
ENCODING -1
SWIDTH 600 0
DWIDTH 5 0
BBX 4 3 1 5
BITMAP
0DF3
0000
1670
ENDCHAR
STARTCHAR uni03080304.cap
ENCODING -1
SWIDTH 600 0
DWIDTH 5 0
BBX 3 3 2 6
BITMAP
BF40
0000
7610
ENDCHAR
STARTCHAR uni0308030C
ENCODING -1
SWIDTH 600 0
DWIDTH 5 0
BBX 4 2 1 5
BITMAP
0671
1670
ENDCHAR
STARTCHAR uni0308030C.cap
ENCODING -1
SWIDTH 600 0
DWIDTH 5 0
BBX 3 2 2 6
BITMAP
5720
7610
ENDCHAR
STARTCHAR uni03020301
ENCODING -1
SWIDTH 600 0
DWIDTH 5 0
BBX 4 1 1 5
BITMAP
1785
ENDCHAR
STARTCHAR uni03020301.cap
ENCODING -1
SWIDTH 600 0
DWIDTH 5 0
BBX 3 1 2 6
BITMAP
6860
ENDCHAR
STARTCHAR uni03020300
ENCODING -1
SWIDTH 600 0
DWIDTH 5 0
BBX 3 1 1 5
BITMAP
7770
ENDCHAR
STARTCHAR uni03020300.cap
ENCODING -1
SWIDTH 600 0
DWIDTH 5 0
BBX 3 1 1 6
BITMAP
3980
ENDCHAR
STARTCHAR uni03020309
ENCODING -1
SWIDTH 600 0
DWIDTH 5 0
BBX 4 3 1 5
BITMAP
0037
0008
1795
ENDCHAR
STARTCHAR uni03020309.cap
ENCODING -1
SWIDTH 600 0
DWIDTH 5 0
BBX 3 3 2 6
BITMAP
01A0
0090
6880
ENDCHAR
STARTCHAR uni03020303
ENCODING -1
SWIDTH 600 0
DWIDTH 5 0
BBX 4 2 1 5
BITMAP
0A53
1EF0
ENDCHAR
STARTCHAR uni03020303.cap
ENCODING -1
SWIDTH 600 0
DWIDTH 5 0
BBX 3 2 2 6
BITMAP
9650
CF30
ENDCHAR
STARTCHAR uni03060301
ENCODING -1
SWIDTH 600 0
DWIDTH 5 0
BBX 4 3 1 4
BITMAP
0160
3563
0DA0
ENDCHAR
STARTCHAR uni03060301.cap
ENCODING -1
SWIDTH 600 0
DWIDTH 5 0
BBX 3 3 2 5
BITMAP
0700
8440
9B00
ENDCHAR
STARTCHAR uni03060300
ENCODING -1
SWIDTH 600 0
DWIDTH 5 0
BBX 4 3 1 4
BITMAP
0520
3563
0DA0
ENDCHAR
STARTCHAR uni03060300.cap
ENCODING -1
SWIDTH 600 0
DWIDTH 5 0
BBX 3 3 2 5
BITMAP
3400
8440
9B00
ENDCHAR
STARTCHAR uni03060309
ENCODING -1
SWIDTH 600 0
DWIDTH 5 0
BBX 4 5 1 4
BITMAP
0470
0090
0350
3563
0DA0
ENDCHAR
STARTCHAR uni03060309.cap
ENCODING -1
SWIDTH 600 0
DWIDTH 5 0
BBX 3 5 2 5
BITMAP
1A00
0900
1700
8440
9B00
ENDCHAR
STARTCHAR uni03060303
ENCODING -1
SWIDTH 600 0
DWIDTH 5 0
BBX 4 3 1 4
BITMAP
0A53
3DF1
0C80
ENDCHAR
STARTCHAR uni03060303.cap
ENCODING -1
SWIDTH 600 0
DWIDTH 5 0
BBX 3 3 2 5
BITMAP
9650
EF60
9B00
ENDCHAR
STARTCHAR uni03020306
ENCODING -1
SWIDTH 600 0
DWIDTH 5 0
BBX 2 3 2 4
BITMAP
66
43
33
ENDCHAR
STARTCHAR uni03040301
ENCODING -1
SWIDTH 600 0
DWIDTH 5 0
BBX 3 3 1 5
BITMAP
0060
0000
2FE0
ENDCHAR
STARTCHAR uni03040301.cap
ENCODING -1
SWIDTH 600 0
DWIDTH 5 0
BBX 3 3 2 6
BITMAP
0610
0000
EF20
ENDCHAR
STARTCHAR space.frac
ENCODING -1
SWIDTH 600 0
DWIDTH 5 0
BBX 1 1 0 0
BITMAP
00
ENDCHAR
STARTCHAR nbspace.frac
ENCODING -1
SWIDTH 600 0
DWIDTH 5 0
BBX 1 1 0 0
BITMAP
00
ENDCHAR
STARTCHAR u1F3B5_uniFE0F
ENCODING -1
SWIDTH 600 0
DWIDTH 5 0
BBX 5 7 0 0
BITMAP
001000
009600
006820
006320
006000
2DB000
3E5000
ENDCHAR
STARTCHAR u1F3B6_uniFE0F
ENCODING -1
SWIDTH 600 0
DWIDTH 5 0
BBX 5 7 0 0
BITMAP
002550
04FFB0
048580
042070
042070
9F4D90
CC4E30
ENDCHAR
STARTCHAR uni2611_uniFE0F
ENCODING -1
SWIDTH 600 0
DWIDTH 5 0
BBX 7 7 -1 0
BITMAP
00000350
2EFFFF00
32005C00
32517900
32781900
32150900
3FFFFD00
ENDCHAR
STARTCHAR uni2713_uniFE0F
ENCODING -1
SWIDTH 600 0
DWIDTH 5 0
BBX 5 6 0 0
BITMAP
000270
000900
006200
807000
492000
0D0000
ENDCHAR
STARTCHAR uni2665_uniFE0F
ENCODING -1
SWIDTH 600 0
DWIDTH 5 0
BBX 5 6 0 0
BITMAP
8D7E60
DFFFB0
CFFF90
7FFF40
0CFA00
02B100
ENDCHAR
STARTCHAR uni2663_uniFE0F
ENCODING -1
SWIDTH 600 0
DWIDTH 5 0
BBX 5 6 0 0
BITMAP
08E500
0AF700
8DFC50
CFDF90
15D400
2FFE00
ENDCHAR
STARTCHAR uni2666_uniFE0F
ENCODING -1
SWIDTH 600 0
DWIDTH 5 0
BBX 5 6 0 0
BITMAP
01A000
0CF900
9FFF60
9FFF60
0CF900
01A000
ENDCHAR
STARTCHAR uni2660_uniFE0F
ENCODING -1
SWIDTH 600 0
DWIDTH 5 0
BBX 5 6 0 0
BITMAP
03B100
3EFC10
CFFF80
CEDF90
05E300
2FFE00
ENDCHAR
STARTCHAR uni263A_uniFE0F
ENCODING -1
SWIDTH 600 0
DWIDTH 5 0
BBX 5 5 0 0
BITMAP
068400
4ADA40
E537C0
8A5970
068400
ENDCHAR
STARTCHAR uni263B_uniFE0F
ENCODING -1
SWIDTH 600 0
DWIDTH 5 0
BBX 5 5 0 0
BITMAP
1BE900
8ADB50
BBEB80
891C50
1BE900
ENDCHAR
STARTCHAR uni2764_uniFE0F
ENCODING -1
SWIDTH 600 0
DWIDTH 5 0
BBX 7 5 -1 0
BITMAP
3DD7EC10
8FFFFF50
5FFFFF20
07EFE500
002B1000
ENDCHAR
STARTCHAR uni2615_uniFE0F
ENCODING -1
SWIDTH 600 0
DWIDTH 5 0
BBX 7 5 -1 0
BITMAP
09EE6000
3CFD9000
29EE9610
0912CC10
05ED4000
ENDCHAR
STARTCHAR u1F4A9_uniFE0F
ENCODING -1
SWIDTH 600 0
DWIDTH 5 0
BBX 5 6 0 0
BITMAP
004100
0CF900
6FFF30
9FFF60
F71AC0
9EFE60
ENDCHAR
STARTCHAR u1F916_uniFE0F
ENCODING -1
SWIDTH 600 0
DWIDTH 5 0
BBX 6 5 -1 0
BITMAP
03CFB1
0AFFE8
39DFBB
093748
02CEA1
ENDCHAR
STARTCHAR u1F512_uniFE0F
ENCODING -1
SWIDTH 600 0
DWIDTH 5 0
BBX 5 8 0 -1
BITMAP
08E500
0A2900
080800
9FFF60
9D2F60
9F5F60
9F4F60
9FFF60
ENDCHAR
ENDFONT
